<svg width="713" height="381" viewBox="0 0 713 381" fill="none" xmlns="http://www.w3.org/2000/svg">
<g id="undraw_amusement_park_17oe 1" clip-path="url(#clip0_6_2)">
<path id="Vector" d="M13.9204 351.453C13.9204 347.885 15.3377 344.463 17.8606 341.94C20.3835 339.417 23.8053 338 27.3732 338C30.9411 338 34.3628 339.417 36.8857 341.94C39.4086 344.463 40.8259 347.885 40.8259 351.453" fill="#F2F2F2"/>
<path id="Vector_2" d="M27.3732 351.453C27.2768 351.453 27.1843 351.414 27.1161 351.346C27.0479 351.278 27.0096 351.186 27.0096 351.089V343.999C27.0096 343.903 27.0479 343.81 27.1161 343.742C27.1843 343.674 27.2768 343.636 27.3732 343.636C27.4697 343.636 27.5621 343.674 27.6303 343.742C27.6985 343.81 27.7368 343.903 27.7368 343.999V351.089C27.7368 351.186 27.6985 351.278 27.6303 351.346C27.5621 351.414 27.4697 351.453 27.3732 351.453V351.453Z" fill="#CCCCCC"/>
<path id="Vector_3" d="M27.373 349.016C27.2861 349.017 27.2021 348.985 27.1363 348.929L22.7733 345.184C22.7369 345.153 22.707 345.115 22.6853 345.072C22.6636 345.03 22.6505 344.983 22.6468 344.936C22.6431 344.888 22.6488 344.84 22.6637 344.794C22.6786 344.749 22.7022 344.707 22.7334 344.671C22.7646 344.634 22.8026 344.605 22.8453 344.583C22.888 344.561 22.9345 344.548 22.9822 344.545C23.0299 344.541 23.0779 344.547 23.1233 344.562C23.1687 344.577 23.2107 344.601 23.2469 344.632L27.61 348.377C27.6664 348.425 27.7065 348.49 27.7252 348.562C27.7438 348.634 27.7399 348.71 27.7141 348.779C27.6883 348.849 27.6418 348.909 27.5808 348.951C27.5198 348.994 27.4473 349.016 27.373 349.016H27.373Z" fill="#CCCCCC"/>
<path id="Vector_4" d="M55.3694 351.453C55.3694 347.885 56.7868 344.463 59.3097 341.94C61.8325 339.417 65.2543 338 68.8222 338C72.3901 338 75.8118 339.417 78.3347 341.94C80.8576 344.463 82.275 347.885 82.275 351.453" fill="#F2F2F2"/>
<path id="Vector_5" d="M68.8222 351.453C68.7258 351.453 68.6333 351.414 68.5651 351.346C68.4969 351.278 68.4586 351.186 68.4586 351.089V343.999C68.4586 343.903 68.4969 343.81 68.5651 343.742C68.6333 343.674 68.7258 343.636 68.8222 343.636C68.9186 343.636 69.0111 343.674 69.0793 343.742C69.1475 343.81 69.1858 343.903 69.1858 343.999V351.089C69.1858 351.186 69.1475 351.278 69.0793 351.346C69.0111 351.414 68.9186 351.453 68.8222 351.453V351.453Z" fill="#CCCCCC"/>
<path id="Vector_6" d="M68.8221 349.016C68.7352 349.017 68.6512 348.985 68.5854 348.929L64.2223 345.184C64.1492 345.121 64.104 345.032 64.0966 344.936C64.0893 344.84 64.1205 344.745 64.1833 344.671C64.2461 344.598 64.3354 344.553 64.4316 344.546C64.5277 344.538 64.6228 344.569 64.696 344.632L69.0591 348.377C69.1154 348.425 69.1556 348.49 69.1742 348.562C69.1928 348.634 69.189 348.71 69.1632 348.779C69.1373 348.849 69.0908 348.909 69.0298 348.951C68.9688 348.994 68.8963 349.016 68.8221 349.016V349.016Z" fill="#CCCCCC"/>
<g id="giant-wheel">
<path id="Vector_7" d="M304.838 298C222.679 298 155.838 231.159 155.838 149C155.838 66.8413 222.679 0 304.838 0C386.997 0 453.838 66.8413 453.838 149C453.838 231.159 386.997 298 304.838 298ZM304.838 2C223.782 2 157.838 67.9438 157.838 149C157.838 230.056 223.782 296 304.838 296C385.894 296 451.838 230.056 451.838 149C451.838 67.9438 385.894 2 304.838 2Z" fill="#CCCCCC"/>
<path id="Vector_8" d="M304.838 138C304.572 138 304.318 137.895 304.131 137.707C303.943 137.52 303.838 137.265 303.838 137V1C303.838 0.734784 303.943 0.480444 304.131 0.292908C304.318 0.105371 304.572 0 304.838 0C305.103 0 305.357 0.105371 305.545 0.292908C305.732 0.480444 305.838 0.734784 305.838 1V137C305.838 137.265 305.732 137.52 305.545 137.707C305.357 137.895 305.103 138 304.838 138V138Z" fill="#CCCCCC"/>
<path id="Vector_9" d="M452.838 150H316.838C316.572 150 316.318 149.895 316.131 149.707C315.943 149.52 315.838 149.265 315.838 149C315.838 148.735 315.943 148.48 316.131 148.293C316.318 148.105 316.572 148 316.838 148H452.838C453.103 148 453.357 148.105 453.545 148.293C453.732 148.48 453.838 148.735 453.838 149C453.838 149.265 453.732 149.52 453.545 149.707C453.357 149.895 453.103 150 452.838 150Z" fill="#CCCCCC"/>
<path id="Vector_10" d="M292.838 150H156.902C156.637 150 156.383 149.895 156.195 149.707C156.007 149.52 155.902 149.265 155.902 149C155.902 148.735 156.007 148.48 156.195 148.293C156.383 148.105 156.637 148 156.902 148H292.838C293.103 148 293.357 148.105 293.545 148.293C293.732 148.48 293.838 148.735 293.838 149C293.838 149.265 293.732 149.52 293.545 149.707C293.357 149.895 293.103 150 292.838 150Z" fill="#CCCCCC"/>
<path id="Vector_11" d="M304.838 298C304.572 298 304.318 297.895 304.131 297.707C303.943 297.52 303.838 297.265 303.838 297V161C303.838 160.735 303.943 160.48 304.131 160.293C304.318 160.105 304.572 160 304.838 160C305.103 160 305.357 160.105 305.545 160.293C305.732 160.48 305.838 160.735 305.838 161V297C305.838 297.265 305.732 297.52 305.545 297.707C305.357 297.895 305.103 298 304.838 298V298Z" fill="#CCCCCC"/>
<path id="Vector_12" d="M313.655 141.874C313.457 141.874 313.264 141.815 313.099 141.705C312.935 141.596 312.807 141.439 312.731 141.257C312.655 141.074 312.635 140.873 312.674 140.679C312.713 140.485 312.808 140.307 312.948 140.167L408.691 44.4234C408.784 44.3305 408.894 44.2569 409.015 44.2066C409.137 44.1564 409.267 44.1305 409.398 44.1305C409.529 44.1305 409.659 44.1564 409.781 44.2066C409.902 44.2569 410.012 44.3305 410.105 44.4234C410.198 44.5162 410.272 44.6265 410.322 44.7478C410.372 44.8691 410.398 44.9991 410.398 45.1304C410.398 45.2617 410.372 45.3917 410.322 45.5131C410.272 45.6344 410.198 45.7446 410.105 45.8375L314.362 141.581C314.269 141.674 314.159 141.748 314.037 141.798C313.916 141.848 313.786 141.874 313.655 141.874V141.874Z" fill="#CCCCCC"/>
<path id="Vector_13" d="M296.021 141.874C295.89 141.874 295.76 141.848 295.638 141.798C295.517 141.748 295.407 141.674 295.314 141.581L199.57 45.8374C199.383 45.6499 199.278 45.3956 199.278 45.1304C199.278 44.8652 199.383 44.6108 199.57 44.4233C199.758 44.2358 200.012 44.1305 200.277 44.1305C200.543 44.1305 200.797 44.2358 200.984 44.4233L296.728 140.167C296.868 140.307 296.963 140.485 297.002 140.679C297.04 140.873 297.02 141.074 296.945 141.257C296.869 141.439 296.741 141.595 296.577 141.705C296.412 141.815 296.219 141.874 296.021 141.874L296.021 141.874Z" fill="#CCCCCC"/>
<path id="Vector_14" d="M409.398 253.87C409.267 253.87 409.137 253.844 409.015 253.794C408.894 253.743 408.784 253.67 408.691 253.577L312.948 157.833C312.76 157.645 312.655 157.391 312.655 157.126C312.655 156.861 312.76 156.606 312.948 156.419C313.135 156.231 313.389 156.126 313.655 156.126C313.92 156.126 314.174 156.231 314.362 156.419L410.105 252.163C410.245 252.302 410.34 252.481 410.379 252.674C410.417 252.868 410.397 253.069 410.322 253.252C410.246 253.435 410.118 253.591 409.953 253.701C409.789 253.811 409.596 253.87 409.398 253.87L409.398 253.87Z" fill="#CCCCCC"/>
<path id="Vector_15" d="M200.277 253.87C200.08 253.87 199.886 253.811 199.722 253.701C199.558 253.591 199.429 253.435 199.354 253.252C199.278 253.07 199.258 252.869 199.297 252.675C199.335 252.481 199.431 252.302 199.57 252.163L295.314 156.419C295.407 156.326 295.517 156.252 295.638 156.202C295.76 156.152 295.89 156.126 296.021 156.126C296.152 156.126 296.282 156.152 296.404 156.202C296.525 156.252 296.635 156.326 296.728 156.419C296.821 156.512 296.895 156.622 296.945 156.743C296.995 156.865 297.021 156.995 297.021 157.126C297.021 157.257 296.995 157.387 296.945 157.509C296.895 157.63 296.821 157.74 296.728 157.833L200.984 253.577C200.892 253.67 200.782 253.743 200.66 253.794C200.539 253.844 200.409 253.87 200.277 253.87V253.87Z" fill="#CCCCCC"/>
<path id="Vector_16" d="M304.838 251.5C284.565 251.5 264.748 245.488 247.892 234.226C231.036 222.963 217.898 206.954 210.14 188.225C202.382 169.496 200.352 148.886 204.307 129.003C208.262 109.12 218.024 90.8565 232.359 76.5216C246.694 62.1867 264.958 52.4245 284.841 48.4695C304.724 44.5145 325.333 46.5444 344.063 54.3024C362.792 62.0604 378.801 75.198 390.063 92.0541C401.326 108.91 407.338 128.727 407.338 149C407.307 176.175 396.498 202.229 377.282 221.445C358.066 240.66 332.013 251.469 304.838 251.5V251.5ZM304.838 48.5C284.961 48.5 265.53 54.3942 249.003 65.4373C232.476 76.4804 219.594 92.1763 211.988 110.54C204.381 128.904 202.391 149.112 206.269 168.607C210.147 188.102 219.718 206.009 233.773 220.064C247.829 234.119 265.736 243.691 285.231 247.569C304.726 251.447 324.933 249.457 343.297 241.85C361.661 234.243 377.357 221.362 388.4 204.835C399.443 188.308 405.338 168.877 405.338 149C405.308 122.355 394.71 96.8099 375.869 77.9691C357.028 59.1282 331.483 48.5301 304.838 48.5V48.5Z" fill="#CCCCCC"/>
</g>
<path id="Vector_17" d="M304.838 161C311.465 161 316.838 155.627 316.838 149C316.838 142.373 311.465 137 304.838 137C298.21 137 292.838 142.373 292.838 149C292.838 155.627 298.21 161 304.838 161Z" fill="#3F3D56"/>
<path id="Vector_18" d="M258.381 351.695L247.838 352L299.295 144.305L308.86 147.223L258.381 351.695Z" fill="#3F3D56"/>
<path id="Vector_19" d="M351.295 351.695L361.838 352L310.381 144.305L300.816 147.223L351.295 351.695Z" fill="#3F3D56"/>
<path id="Vector_20" d="M320.838 31H287.838V49H320.838V31Z" fill="#CCCCCC"/>
<path id="Vector_21" d="M302.838 35H289.838V49H302.838V35Z" fill="white"/>
<path id="Vector_22" d="M318.838 35H305.838V49H318.838V35Z" fill="white"/>
<path id="Vector_23" d="M304.338 68.5C299.3 68.4943 294.471 66.4907 290.909 62.9287C287.347 59.3668 285.343 54.5374 285.338 49.5V49C285.339 47.8069 285.814 46.6631 286.657 45.8195C287.501 44.9759 288.645 44.5013 289.838 44.5H318.838C320.031 44.5013 321.175 44.9759 322.018 45.8195C322.862 46.6631 323.336 47.8069 323.338 49V49.5C323.332 54.5374 321.328 59.3668 317.766 62.9287C314.205 66.4907 309.375 68.4943 304.338 68.5Z" fill="#CCCCCC"/>
<path id="Vector_24" d="M319.602 35.5H289.074C288.648 35.5 288.229 35.3911 287.856 35.1836C287.484 34.9761 287.171 34.6769 286.947 34.3143C286.723 33.9518 286.595 33.538 286.576 33.1123C286.557 32.6866 286.647 32.263 286.838 31.8818L292.838 19.8818C293.044 19.4655 293.363 19.1154 293.758 18.8712C294.153 18.627 294.609 18.4984 295.074 18.5H313.602C314.066 18.4984 314.522 18.627 314.917 18.8712C315.313 19.1154 315.631 19.4655 315.838 19.8818L321.838 31.8818C322.028 32.263 322.118 32.6866 322.099 33.1123C322.08 33.538 321.953 33.9518 321.728 34.3143C321.504 34.6768 321.191 34.9761 320.819 35.1836C320.447 35.3911 320.028 35.5 319.602 35.5Z" fill="#6C63FF"/>
<path id="Vector_25" d="M409.838 71H376.838V89H409.838V71Z" fill="#CCCCCC"/>
<path id="Vector_26" d="M391.838 75H378.838V89H391.838V75Z" fill="white"/>
<path id="Vector_27" d="M407.838 75H394.838V89H407.838V75Z" fill="white"/>
<path id="Vector_28" d="M393.338 108.5C388.3 108.494 383.471 106.491 379.909 102.929C376.347 99.3668 374.343 94.5374 374.338 89.5V89C374.339 87.8069 374.814 86.6631 375.657 85.8195C376.501 84.9759 377.645 84.5013 378.838 84.5H407.838C409.031 84.5013 410.175 84.9759 411.018 85.8195C411.862 86.6631 412.336 87.8069 412.338 89V89.5C412.332 94.5374 410.328 99.3668 406.766 102.929C403.205 106.491 398.375 108.494 393.338 108.5Z" fill="#CCCCCC"/>
<path id="Vector_29" d="M384.074 59.5C383.795 59.4991 383.522 59.5763 383.285 59.7228C383.047 59.8694 382.856 60.0794 382.732 60.3291L376.732 72.3291C376.618 72.5578 376.564 72.8119 376.575 73.0674C376.587 73.3228 376.663 73.5711 376.798 73.7886C376.932 74.0062 377.12 74.1857 377.343 74.3102C377.567 74.4347 377.818 74.5 378.074 74.5H408.602C408.857 74.5 409.109 74.4347 409.332 74.3102C409.556 74.1857 409.743 74.0062 409.878 73.7886C410.012 73.5711 410.089 73.3228 410.1 73.0674C410.112 72.8119 410.058 72.5578 409.943 72.3291L403.943 60.3291C403.819 60.0794 403.628 59.8694 403.391 59.7228C403.154 59.5763 402.88 59.4991 402.602 59.5H384.074Z" fill="#6C63FF"/>
<path id="Vector_30" d="M444.838 161H411.838V179H444.838V161Z" fill="#CCCCCC"/>
<path id="Vector_31" d="M426.838 165H413.838V179H426.838V165Z" fill="white"/>
<path id="Vector_32" d="M442.838 165H429.838V179H442.838V165Z" fill="white"/>
<path id="Vector_33" d="M428.338 198.5C423.3 198.494 418.471 196.491 414.909 192.929C411.347 189.367 409.343 184.537 409.338 179.5V179C409.339 177.807 409.814 176.663 410.657 175.82C411.501 174.976 412.645 174.501 413.838 174.5H442.838C444.031 174.501 445.175 174.976 446.018 175.82C446.862 176.663 447.336 177.807 447.338 179V179.5C447.332 184.537 445.328 189.367 441.766 192.929C438.205 196.491 433.375 198.494 428.338 198.5V198.5Z" fill="#CCCCCC"/>
<path id="Vector_34" d="M443.602 165.5H413.074C412.648 165.5 412.229 165.391 411.856 165.184C411.484 164.976 411.171 164.677 410.947 164.314C410.723 163.952 410.595 163.538 410.576 163.112C410.557 162.687 410.647 162.263 410.838 161.882L416.838 149.882C417.044 149.466 417.363 149.115 417.758 148.871C418.153 148.627 418.609 148.498 419.074 148.5H437.602C438.066 148.498 438.522 148.627 438.917 148.871C439.313 149.115 439.631 149.466 439.838 149.882L445.838 161.882C446.028 162.263 446.118 162.687 446.099 163.112C446.08 163.538 445.953 163.952 445.728 164.314C445.504 164.677 445.191 164.976 444.819 165.184C444.447 165.391 444.028 165.5 443.602 165.5V165.5Z" fill="#6C63FF"/>
<path id="Vector_35" d="M407.838 245H374.838V263H407.838V245Z" fill="#CCCCCC"/>
<path id="Vector_36" d="M389.838 249H376.838V263H389.838V249Z" fill="white"/>
<path id="Vector_37" d="M405.838 249H392.838V263H405.838V249Z" fill="white"/>
<path id="Vector_38" d="M391.338 282.5C386.3 282.494 381.471 280.491 377.909 276.929C374.347 273.367 372.343 268.537 372.338 263.5V263C372.339 261.807 372.814 260.663 373.657 259.819C374.501 258.976 375.645 258.501 376.838 258.5H405.838C407.031 258.501 408.175 258.976 409.018 259.819C409.862 260.663 410.336 261.807 410.338 263V263.5C410.332 268.537 408.328 273.367 404.766 276.929C401.205 280.491 396.375 282.494 391.338 282.5Z" fill="#CCCCCC"/>
<path id="Vector_39" d="M406.602 249.5H376.074C375.648 249.5 375.229 249.391 374.856 249.184C374.484 248.976 374.171 248.677 373.947 248.314C373.723 247.952 373.595 247.538 373.576 247.112C373.557 246.687 373.647 246.263 373.838 245.882L379.838 233.882C380.044 233.466 380.363 233.115 380.758 232.871C381.153 232.627 381.609 232.498 382.074 232.5H400.602C401.066 232.498 401.522 232.627 401.917 232.871C402.313 233.115 402.631 233.466 402.838 233.882L408.838 245.882C409.028 246.263 409.118 246.687 409.099 247.112C409.08 247.538 408.953 247.952 408.728 248.314C408.504 248.677 408.191 248.976 407.819 249.184C407.447 249.391 407.028 249.5 406.602 249.5V249.5Z" fill="#6C63FF"/>
<path id="Vector_40" d="M199.838 89H232.838V71H199.838V89Z" fill="#CCCCCC"/>
<path id="Vector_41" d="M217.838 89H230.838V75H217.838V89Z" fill="white"/>
<path id="Vector_42" d="M201.838 89H214.838V75H201.838V89Z" fill="white"/>
<path id="Vector_43" d="M216.338 108.5C211.3 108.494 206.471 106.491 202.909 102.929C199.347 99.3668 197.343 94.5374 197.338 89.5V89C197.339 87.8069 197.814 86.6631 198.657 85.8195C199.501 84.9759 200.645 84.5013 201.838 84.5H230.838C232.031 84.5013 233.175 84.9759 234.018 85.8195C234.862 86.6631 235.336 87.8069 235.338 89V89.5C235.332 94.5374 233.328 99.3668 229.766 102.929C226.205 106.491 221.375 108.494 216.338 108.5V108.5Z" fill="#CCCCCC"/>
<path id="Vector_44" d="M231.602 75.5H201.074C200.648 75.5 200.229 75.3911 199.856 75.1836C199.484 74.9761 199.171 74.6769 198.947 74.3143C198.723 73.9518 198.595 73.538 198.576 73.1123C198.557 72.6866 198.647 72.263 198.838 71.8818L204.838 59.8818C205.044 59.4655 205.363 59.1154 205.758 58.8712C206.153 58.627 206.609 58.4984 207.074 58.5H225.602C226.066 58.4984 226.522 58.627 226.917 58.8712C227.313 59.1154 227.631 59.4655 227.838 59.8818L233.838 71.8818C234.028 72.263 234.118 72.6866 234.099 73.1123C234.08 73.538 233.952 73.9518 233.728 74.3143C233.504 74.6768 233.191 74.9761 232.819 75.1836C232.447 75.3911 232.028 75.5 231.602 75.5V75.5Z" fill="#6C63FF"/>
<path id="Vector_45" d="M164.838 179H197.838V161H164.838V179Z" fill="#CCCCCC"/>
<path id="Vector_46" d="M182.838 179H195.838V165H182.838V179Z" fill="white"/>
<path id="Vector_47" d="M166.838 179H179.838V165H166.838V179Z" fill="white"/>
<path id="Vector_48" d="M181.338 198.5C176.3 198.494 171.471 196.491 167.909 192.929C164.347 189.367 162.343 184.537 162.338 179.5V179C162.339 177.807 162.814 176.663 163.657 175.82C164.501 174.976 165.645 174.501 166.838 174.5H195.838C197.031 174.501 198.175 174.976 199.018 175.82C199.862 176.663 200.336 177.807 200.338 179V179.5C200.332 184.537 198.328 189.367 194.766 192.929C191.205 196.491 186.375 198.494 181.338 198.5V198.5Z" fill="#CCCCCC"/>
<path id="Vector_49" d="M196.602 165.5H166.074C165.648 165.5 165.229 165.391 164.856 165.184C164.484 164.976 164.171 164.677 163.947 164.314C163.723 163.952 163.595 163.538 163.576 163.112C163.557 162.687 163.647 162.263 163.838 161.882L169.838 149.882C170.044 149.466 170.363 149.115 170.758 148.871C171.153 148.627 171.609 148.498 172.074 148.5H190.602C191.066 148.498 191.522 148.627 191.917 148.871C192.313 149.115 192.631 149.466 192.838 149.882L198.838 161.882C199.028 162.263 199.118 162.687 199.099 163.112C199.08 163.538 198.953 163.952 198.728 164.314C198.504 164.677 198.191 164.976 197.819 165.184C197.447 165.391 197.028 165.5 196.602 165.5V165.5Z" fill="#6C63FF"/>
<path id="Vector_50" d="M201.838 263H234.838V245H201.838V263Z" fill="#CCCCCC"/>
<path id="Vector_51" d="M219.838 263H232.838V249H219.838V263Z" fill="white"/>
<path id="Vector_52" d="M203.838 263H216.838V249H203.838V263Z" fill="white"/>
<path id="Vector_53" d="M218.338 282.5C213.3 282.494 208.471 280.491 204.909 276.929C201.347 273.367 199.343 268.537 199.338 263.5V263C199.339 261.807 199.814 260.663 200.657 259.819C201.501 258.976 202.645 258.501 203.838 258.5H232.838C234.031 258.501 235.175 258.976 236.018 259.819C236.862 260.663 237.336 261.807 237.338 263V263.5C237.332 268.537 235.328 273.367 231.766 276.929C228.205 280.491 223.375 282.494 218.338 282.5Z" fill="#CCCCCC"/>
<path id="Vector_54" d="M233.602 249.5H203.074C202.648 249.5 202.229 249.391 201.856 249.184C201.484 248.976 201.171 248.677 200.947 248.314C200.723 247.952 200.595 247.538 200.576 247.112C200.557 246.687 200.647 246.263 200.838 245.882L206.838 233.882C207.044 233.466 207.363 233.115 207.758 232.871C208.153 232.627 208.609 232.498 209.074 232.5H227.602C228.066 232.498 228.522 232.627 228.917 232.871C229.313 233.115 229.631 233.466 229.838 233.882L235.838 245.882C236.028 246.263 236.118 246.687 236.099 247.112C236.08 247.538 235.952 247.952 235.728 248.314C235.504 248.677 235.191 248.976 234.819 249.184C234.447 249.391 234.028 249.5 233.602 249.5V249.5Z" fill="#6C63FF"/>
<path id="Vector_55" d="M320.838 283H287.838V301H320.838V283Z" fill="#CCCCCC"/>
<path id="Vector_56" d="M302.838 287H289.838V301H302.838V287Z" fill="white"/>
<path id="Vector_57" d="M318.838 287H305.838V301H318.838V287Z" fill="white"/>
<path id="Vector_58" d="M289.838 297.5C288.91 297.501 288.02 297.87 287.364 298.526C286.708 299.182 286.339 300.072 286.338 301V301.5C286.338 306.274 288.234 310.852 291.61 314.228C294.986 317.604 299.564 319.5 304.338 319.5C309.112 319.5 313.69 317.604 317.066 314.228C320.441 310.852 322.338 306.274 322.338 301.5V301C322.337 300.072 321.968 299.182 321.311 298.526C320.655 297.87 319.766 297.501 318.838 297.5H289.838Z" fill="#CCCCCC"/>
<path id="Vector_59" d="M295.074 271.5C294.795 271.499 294.522 271.576 294.285 271.723C294.047 271.869 293.856 272.079 293.732 272.329L287.732 284.329C287.618 284.558 287.564 284.812 287.575 285.067C287.587 285.323 287.663 285.571 287.798 285.789C287.932 286.006 288.12 286.186 288.343 286.31C288.567 286.435 288.818 286.5 289.074 286.5H319.602C319.857 286.5 320.109 286.435 320.332 286.31C320.556 286.186 320.743 286.006 320.878 285.789C321.012 285.571 321.089 285.323 321.1 285.067C321.112 284.812 321.058 284.558 320.943 284.329L314.943 272.329C314.819 272.079 314.628 271.869 314.391 271.723C314.154 271.576 313.88 271.499 313.602 271.5H295.074Z" fill="#6C63FF"/>
<path id="Vector_60" d="M529.046 322C529.312 322 529.566 321.895 529.753 321.707C529.941 321.52 530.046 321.265 530.046 321C530.046 320.735 529.941 320.48 529.753 320.293C529.566 320.105 529.312 320 529.046 320H519.546V316H529.046C529.312 316 529.566 315.895 529.753 315.707C529.941 315.52 530.046 315.265 530.046 315C530.046 314.735 529.941 314.48 529.753 314.293C529.566 314.105 529.312 314 529.046 314H448.046C447.781 314 447.527 314.105 447.339 314.293C447.152 314.48 447.046 314.735 447.046 315C447.046 315.265 447.152 315.52 447.339 315.707C447.527 315.895 447.781 316 448.046 316H457.546V320H448.046C447.781 320 447.527 320.105 447.339 320.293C447.152 320.48 447.046 320.735 447.046 321C447.046 321.265 447.152 321.52 447.339 321.707C447.527 321.895 447.781 322 448.046 322H457.546V326H448.046C447.781 326 447.527 326.105 447.339 326.293C447.152 326.48 447.046 326.735 447.046 327C447.046 327.265 447.152 327.52 447.339 327.707C447.527 327.895 447.781 328 448.046 328H457.546V332H449.046C448.516 332 448.007 332.211 447.632 332.586C447.257 332.961 447.046 333.47 447.046 334C447.046 334.53 447.257 335.039 447.632 335.414C448.007 335.789 448.516 336 449.046 336H457.138C457.079 336.16 457.048 336.329 457.046 336.5V350.5C457.046 350.898 457.204 351.279 457.486 351.561C457.767 351.842 458.149 352 458.546 352C458.944 352 459.326 351.842 459.607 351.561C459.888 351.279 460.046 350.898 460.046 350.5V336.5C460.045 336.329 460.014 336.16 459.955 336H517.138C517.079 336.16 517.048 336.329 517.046 336.5V350.5C517.046 350.898 517.204 351.279 517.486 351.561C517.767 351.842 518.149 352 518.546 352C518.944 352 519.326 351.842 519.607 351.561C519.888 351.279 520.046 350.898 520.046 350.5V336.5C520.045 336.329 520.014 336.16 519.955 336H528.046C528.577 336 529.086 335.789 529.461 335.414C529.836 335.039 530.046 334.53 530.046 334C530.046 333.47 529.836 332.961 529.461 332.586C529.086 332.211 528.577 332 528.046 332H519.546V328H529.046C529.312 328 529.566 327.895 529.754 327.707C529.941 327.52 530.046 327.265 530.046 327C530.046 326.735 529.941 326.48 529.754 326.293C529.566 326.105 529.312 326 529.046 326H519.546V322H529.046ZM459.546 316H517.546V320H459.546V316ZM517.546 332H459.546V328H517.546V332ZM517.546 326H459.546V322H517.546V326Z" fill="#3F3D56"/>
<path id="Vector_61" d="M189.046 322C189.312 322 189.566 321.895 189.754 321.707C189.941 321.52 190.046 321.265 190.046 321C190.046 320.735 189.941 320.48 189.754 320.293C189.566 320.105 189.312 320 189.046 320H179.546V316H189.046C189.312 316 189.566 315.895 189.754 315.707C189.941 315.52 190.046 315.265 190.046 315C190.046 314.735 189.941 314.48 189.754 314.293C189.566 314.105 189.312 314 189.046 314H108.046C107.781 314 107.527 314.105 107.339 314.293C107.152 314.48 107.046 314.735 107.046 315C107.046 315.265 107.152 315.52 107.339 315.707C107.527 315.895 107.781 316 108.046 316H117.546V320H108.046C107.781 320 107.527 320.105 107.339 320.293C107.152 320.48 107.046 320.735 107.046 321C107.046 321.265 107.152 321.52 107.339 321.707C107.527 321.895 107.781 322 108.046 322H117.546V326H108.046C107.781 326 107.527 326.105 107.339 326.293C107.152 326.48 107.046 326.735 107.046 327C107.046 327.265 107.152 327.52 107.339 327.707C107.527 327.895 107.781 328 108.046 328H117.546V332H109.046C108.516 332 108.007 332.211 107.632 332.586C107.257 332.961 107.046 333.47 107.046 334C107.046 334.53 107.257 335.039 107.632 335.414C108.007 335.789 108.516 336 109.046 336H117.138C117.079 336.16 117.048 336.329 117.046 336.5V350.5C117.046 350.898 117.204 351.279 117.486 351.561C117.767 351.842 118.149 352 118.546 352C118.944 352 119.326 351.842 119.607 351.561C119.888 351.279 120.046 350.898 120.046 350.5V336.5C120.045 336.329 120.014 336.16 119.955 336H177.138C177.079 336.16 177.048 336.329 177.046 336.5V350.5C177.046 350.898 177.204 351.279 177.486 351.561C177.767 351.842 178.149 352 178.546 352C178.944 352 179.326 351.842 179.607 351.561C179.888 351.279 180.046 350.898 180.046 350.5V336.5C180.045 336.329 180.014 336.16 179.955 336H188.046C188.577 336 189.086 335.789 189.461 335.414C189.836 335.039 190.046 334.53 190.046 334C190.046 333.47 189.836 332.961 189.461 332.586C189.086 332.211 188.577 332 188.046 332H179.546V328H189.046C189.312 328 189.566 327.895 189.754 327.707C189.941 327.52 190.046 327.265 190.046 327C190.046 326.735 189.941 326.48 189.754 326.293C189.566 326.105 189.312 326 189.046 326H179.546V322H189.046ZM119.546 316H177.546V320H119.546V316ZM177.546 332H119.546V328H177.546V332ZM177.546 326H119.546V322H177.546V326Z" fill="#3F3D56"/>
<path id="Vector_62" d="M504.046 316.5H501.046C500.649 316.5 500.267 316.341 499.986 316.06C499.705 315.779 499.547 315.398 499.546 315V312C499.547 311.602 499.705 311.221 499.986 310.94C500.267 310.659 500.649 310.5 501.046 310.5H504.046C504.444 310.5 504.825 310.659 505.107 310.94C505.388 311.221 505.546 311.602 505.546 312V315C505.546 315.398 505.388 315.779 505.107 316.06C504.825 316.341 504.444 316.5 504.046 316.5Z" fill="#CCCCCC"/>
<g id="ballons">
<path id="Vector_63" d="M502.603 313.194C502.546 313.195 502.488 313.19 502.432 313.18C502.303 313.157 502.179 313.11 502.068 313.04C501.957 312.97 501.861 312.879 501.785 312.771C501.709 312.664 501.655 312.543 501.626 312.415C501.597 312.287 501.594 312.154 501.616 312.025L511.506 254.479C511.551 254.218 511.698 253.985 511.915 253.833C512.131 253.68 512.399 253.62 512.66 253.664C512.921 253.709 513.154 253.856 513.307 254.072C513.46 254.288 513.521 254.556 513.477 254.817L503.587 312.364C503.547 312.596 503.426 312.807 503.246 312.959C503.066 313.11 502.838 313.194 502.603 313.194V313.194Z" fill="#CCCCCC"/>
<path id="Vector_64" d="M502.6 313.194C502.365 313.194 502.137 313.11 501.957 312.959C501.777 312.807 501.656 312.596 501.616 312.364L491.727 254.817C491.682 254.556 491.742 254.287 491.895 254.071C492.049 253.854 492.281 253.707 492.543 253.662C492.804 253.617 493.073 253.678 493.289 253.831C493.506 253.984 493.653 254.217 493.698 254.479L503.587 312.025C503.609 312.154 503.606 312.287 503.577 312.415C503.548 312.543 503.494 312.664 503.418 312.771C503.342 312.879 503.246 312.97 503.135 313.04C503.024 313.11 502.9 313.157 502.771 313.18C502.715 313.19 502.658 313.195 502.6 313.194Z" fill="#CCCCCC"/>
<path id="Vector_65" d="M523.892 244.628C524.856 237.799 521.209 231.638 515.745 230.866C510.282 230.095 505.071 235.006 504.107 241.835C503.294 247.595 505.768 252.866 509.838 254.843L509.606 256.484L514.553 257.183L514.784 255.541C519.243 254.768 523.079 250.388 523.892 244.628Z" fill="#FF6584"/>
<path id="Vector_66" d="M500.925 241.52C499.742 234.726 494.376 229.985 488.94 230.932C483.504 231.879 480.057 238.154 481.241 244.949C482.239 250.68 486.214 254.934 490.695 255.563L490.98 257.196L495.901 256.339L495.616 254.706C499.621 252.599 501.923 247.251 500.925 241.52Z" fill="#CCCCCC"/>
<path id="Vector_67" d="M502.546 312C502.281 312 502.027 311.895 501.839 311.707C501.652 311.52 501.546 311.265 501.546 311V251.842C501.546 251.577 501.652 251.323 501.839 251.135C502.027 250.948 502.281 250.842 502.546 250.842C502.812 250.842 503.066 250.948 503.253 251.135C503.441 251.323 503.546 251.577 503.546 251.842V311C503.546 311.265 503.441 311.52 503.253 311.707C503.066 311.895 502.812 312 502.546 312V312Z" fill="#CCCCCC"/>
<path id="Vector_68" d="M511.917 240.479C511.917 233.582 507.444 227.991 501.927 227.991C496.409 227.991 491.936 233.582 491.936 240.479C491.936 246.296 495.122 251.169 499.429 252.558V254.216H504.424V252.558C508.731 251.169 511.917 246.296 511.917 240.479Z" fill="#6C63FF"/>
</g>
<path id="Vector_69" d="M710.485 353.537H1.19067C0.874886 353.537 0.572035 353.412 0.34874 353.188C0.125444 352.965 0 352.662 0 352.346C0 352.031 0.125444 351.728 0.34874 351.505C0.572035 351.281 0.874886 351.156 1.19067 351.156H710.485C710.8 351.156 711.103 351.281 711.327 351.505C711.55 351.728 711.675 352.031 711.675 352.346C711.675 352.662 711.55 352.965 711.327 353.188C711.103 353.412 710.8 353.537 710.485 353.537V353.537Z" fill="#CCCCCC"/>
<path id="Vector_70" d="M553.475 351.407L551.2 351.406L550.118 342.633H553.475V351.407Z" fill="#A0616A"/>
<path id="Vector_71" d="M549.251 350.757H553.962V353.519H546.814V353.195C546.814 352.874 546.877 352.557 546.999 352.262C547.122 351.966 547.301 351.697 547.528 351.471C547.754 351.244 548.023 351.065 548.318 350.942C548.614 350.82 548.931 350.757 549.251 350.757V350.757Z" fill="#2F2E41"/>
<path id="Vector_72" d="M569.978 348.83L567.909 349.775L563.28 342.245L566.333 340.85L569.978 348.83Z" fill="#A0616A"/>
<path id="Vector_73" d="M565.867 349.994L570.152 348.036L571.299 350.549L564.797 353.519L564.662 353.224C564.529 352.933 564.455 352.618 564.443 352.298C564.432 351.978 564.483 351.659 564.595 351.359C564.707 351.059 564.877 350.784 565.095 350.55C565.313 350.316 565.576 350.127 565.867 349.994Z" fill="#2F2E41"/>
<path id="Vector_74" d="M553.33 349.093H551.157C550.946 349.093 550.743 349.012 550.589 348.869C550.435 348.725 550.34 348.529 550.324 348.319L549.139 316.676C549.13 316.555 549.148 316.433 549.191 316.319C549.234 316.205 549.302 316.103 549.389 316.018C549.476 315.933 549.58 315.868 549.695 315.828C549.81 315.787 549.932 315.773 550.053 315.784L562.62 317.119C562.823 317.139 563.012 317.233 563.151 317.383C563.29 317.533 563.369 317.729 563.373 317.934L563.637 331.892C563.638 331.968 563.653 332.043 563.68 332.114L568.835 345.481C568.875 345.585 568.894 345.695 568.89 345.805C568.887 345.916 568.862 346.025 568.817 346.126C568.771 346.227 568.706 346.317 568.625 346.393C568.544 346.468 568.448 346.527 568.344 346.565L566.143 347.376C565.951 347.447 565.741 347.445 565.551 347.371C565.361 347.297 565.205 347.156 565.112 346.975L558.779 334.662C558.745 334.595 558.719 334.523 558.704 334.45L557.622 329.237C557.591 329.086 557.507 328.951 557.385 328.857C557.263 328.762 557.111 328.714 556.957 328.721C556.803 328.728 556.656 328.789 556.543 328.895C556.431 329 556.359 329.142 556.341 329.295L554.159 348.353C554.136 348.557 554.039 348.745 553.886 348.881C553.733 349.018 553.535 349.093 553.33 349.093V349.093Z" fill="#2F2E41"/>
<path id="Vector_75" d="M554.412 291.934C556.928 291.934 558.968 289.894 558.968 287.377C558.968 284.861 556.928 282.82 554.412 282.82C551.895 282.82 549.855 284.861 549.855 287.377C549.855 289.894 551.895 291.934 554.412 291.934Z" fill="#A0616A"/>
<path id="Vector_76" d="M557.553 319.563C554.614 319.527 551.738 318.705 549.224 317.183V317.183C549.094 317.103 548.989 316.989 548.92 316.854C548.851 316.719 548.82 316.567 548.831 316.415L549.939 300.576C550.01 299.507 550.331 298.47 550.874 297.547C551.418 296.624 552.17 295.841 553.071 295.26C553.931 294.691 554.913 294.331 555.937 294.209C556.961 294.087 558 294.206 558.97 294.557C559.398 294.705 559.802 294.915 560.17 295.179C561.35 296.02 562.277 297.17 562.849 298.502C563.422 299.833 563.617 301.297 563.416 302.732C562.603 308.895 563.523 317.209 563.631 318.136L563.639 318.203L563.578 318.231C561.69 319.109 559.634 319.563 557.553 319.563Z" fill="#6C63FF"/>
<path id="Vector_77" d="M563.354 321.826C563.572 321.662 563.752 321.452 563.88 321.211C564.008 320.97 564.082 320.704 564.096 320.432C564.11 320.16 564.064 319.887 563.962 319.635C563.859 319.382 563.703 319.155 563.503 318.969L566.177 312.902L562.78 313.478L560.762 319.151C560.472 319.507 560.323 319.957 560.343 320.416C560.363 320.874 560.55 321.31 560.87 321.64C561.189 321.969 561.619 322.17 562.077 322.205C562.535 322.239 562.989 322.104 563.354 321.826V321.826Z" fill="#A0616A"/>
<path id="Vector_78" d="M563.61 318.078C563.495 318.078 563.38 318.054 563.274 318.007C563.169 317.961 563.074 317.893 562.996 317.807L561.999 316.72C561.902 316.613 561.834 316.484 561.802 316.344C561.769 316.203 561.773 316.057 561.814 315.919L564.097 308.192L560.623 300.898C560.471 300.578 560.434 300.214 560.517 299.869C560.592 299.567 560.756 299.293 560.988 299.086C561.221 298.878 561.51 298.746 561.82 298.706C562.129 298.667 562.443 298.722 562.72 298.865C562.997 299.007 563.225 299.23 563.372 299.505L568.068 307.124C568.251 307.42 568.358 307.756 568.38 308.103C568.402 308.45 568.339 308.797 568.196 309.114L564.372 317.587C564.315 317.713 564.228 317.823 564.119 317.906C564.009 317.99 563.88 318.046 563.743 318.067C563.699 318.074 563.655 318.078 563.61 318.078Z" fill="#6C63FF"/>
<path id="Vector_79" d="M558.166 291.395C557.694 291.476 557.305 290.818 557.246 290.355C557.25 289.897 557.293 289.441 557.374 288.99C557.401 288.751 557.349 288.509 557.228 288.301C557.106 288.093 556.92 287.93 556.698 287.836C556.198 287.693 555.734 288.094 555.222 288.046C554.508 287.979 554.149 287.143 554.063 286.467C553.976 285.791 553.908 284.991 553.29 284.606C552.674 284.222 551.911 284.501 551.203 284.513C550.598 284.506 550.01 284.307 549.526 283.944C549.041 283.581 548.685 283.073 548.508 282.494C548.653 282.536 548.808 282.528 548.949 282.472C549.089 282.416 549.206 282.314 549.283 282.184C549.343 282.045 549.355 281.89 549.317 281.743C549.28 281.596 549.195 281.465 549.076 281.372L550.433 282.036C550.398 281.942 550.384 281.842 550.389 281.743C550.395 281.643 550.421 281.546 550.466 281.457C550.512 281.368 550.574 281.289 550.651 281.225C550.728 281.161 550.817 281.114 550.913 281.086C551.325 280.977 551.758 280.973 552.172 281.073C554.296 281.403 556.757 281.241 558.166 282.86C559.229 284.174 559.817 285.809 559.836 287.498C559.498 288.88 558.934 290.197 558.166 291.395V291.395Z" fill="#2F2E41"/>
<path id="Vector_80" d="M534.004 299.163C534.241 299.028 534.505 298.946 534.777 298.924C535.049 298.902 535.322 298.94 535.578 299.035C535.833 299.13 536.065 299.28 536.257 299.474C536.448 299.669 536.594 299.902 536.686 300.159L543.315 300.112L541.439 303.001L535.431 302.604C534.99 302.728 534.517 302.687 534.104 302.486C533.691 302.286 533.365 301.941 533.189 301.517C533.013 301.093 532.999 300.619 533.149 300.185C533.3 299.751 533.604 299.387 534.004 299.163V299.163Z" fill="#A0616A"/>
<path id="Vector_81" d="M537.454 302.312C537.43 302.199 537.431 302.082 537.455 301.969C537.479 301.856 537.526 301.749 537.594 301.655L538.455 300.458C538.54 300.341 538.653 300.248 538.783 300.188C538.914 300.128 539.058 300.102 539.201 300.113L546.956 299.788L553.664 295.885C553.947 295.67 554.295 295.56 554.65 295.572C554.961 295.582 555.262 295.687 555.513 295.872C555.763 296.058 555.952 296.315 556.054 296.609C556.155 296.904 556.165 297.222 556.082 297.523C555.999 297.823 555.827 298.091 555.589 298.292L549.087 304.443C548.835 304.682 548.527 304.855 548.192 304.948C547.857 305.04 547.504 305.049 547.164 304.974L538.091 302.958C537.956 302.928 537.83 302.865 537.726 302.775C537.621 302.685 537.541 302.57 537.492 302.44C537.476 302.399 537.463 302.356 537.454 302.312V302.312Z" fill="#6C63FF"/>
<path id="Vector_82" d="M423.453 347.67C423.547 347.406 423.582 347.124 423.555 346.844C423.528 346.565 423.44 346.294 423.297 346.052C423.155 345.81 422.961 345.603 422.729 345.444C422.498 345.285 422.234 345.179 421.957 345.133L420.805 338.405L418.216 340.829L419.707 346.847C419.66 347.317 419.788 347.788 420.066 348.171C420.344 348.554 420.752 348.821 421.214 348.922C421.676 349.024 422.159 348.953 422.571 348.722C422.984 348.491 423.298 348.117 423.453 347.67V347.67Z" fill="#FFB8B8"/>
<path id="Vector_83" d="M421.733 344.451L419.19 345.118C419.069 345.15 418.941 345.132 418.833 345.07C418.724 345.008 418.644 344.906 418.61 344.786L414.041 328.601L412.661 324.472C412.528 324.074 412.498 323.649 412.574 323.237C412.649 322.824 412.828 322.437 413.093 322.112C413.358 321.787 413.701 321.534 414.09 321.377C414.479 321.22 414.901 321.164 415.318 321.215V321.215C415.8 321.273 416.254 321.47 416.625 321.784C416.996 322.097 417.267 322.512 417.405 322.978L421.055 335.317L422.086 343.933C422.097 344.028 422.079 344.125 422.034 344.211C421.989 344.296 421.92 344.366 421.834 344.412C421.802 344.429 421.768 344.442 421.733 344.451V344.451Z" fill="#6C63FF"/>
<path id="Vector_84" d="M412.442 318.484C415.033 318.484 417.134 316.384 417.134 313.793C417.134 311.202 415.033 309.101 412.442 309.101C409.851 309.101 407.75 311.202 407.75 313.793C407.75 316.384 409.851 318.484 412.442 318.484Z" fill="#FFB8B8"/>
<path id="Vector_85" d="M398.628 377.976L396.383 377.308L397.891 368.332L401.204 369.318L398.628 377.976Z" fill="#FFB8B8"/>
<path id="Vector_86" d="M398.553 380.322L391.315 378.168L391.343 378.077C391.453 377.707 391.635 377.362 391.878 377.062C392.121 376.763 392.421 376.514 392.76 376.33C393.1 376.146 393.472 376.031 393.856 375.991C394.24 375.951 394.628 375.988 394.998 376.098H394.998L399.419 377.413L398.553 380.322Z" fill="#2F2E41"/>
<path id="Vector_87" d="M423.22 377.861L420.878 377.86L419.764 368.827L422.074 368.828L423.22 377.861Z" fill="#FFB8B8"/>
<path id="Vector_88" d="M423.817 380.131L416.266 380.13V380.035C416.266 379.649 416.342 379.267 416.49 378.91C416.637 378.554 416.854 378.229 417.127 377.957C417.4 377.684 417.724 377.467 418.08 377.319C418.437 377.172 418.819 377.096 419.205 377.096H419.205L423.817 377.096L423.817 380.131Z" fill="#2F2E41"/>
<path id="Vector_89" d="M399.491 375.32H397.14C397.014 375.32 396.89 375.292 396.775 375.239C396.661 375.185 396.56 375.107 396.48 375.01C396.399 374.914 396.341 374.8 396.309 374.678C396.277 374.556 396.272 374.429 396.295 374.305C394.795 373.638 402.869 334.919 404.776 335.67L404.839 335.579L414.445 336.363C418.748 344.974 421.471 359.223 424.02 374.098C424.051 374.222 424.055 374.351 424.03 374.475C424.005 374.6 423.953 374.718 423.878 374.821C423.802 374.923 423.704 375.007 423.592 375.068C423.48 375.128 423.355 375.162 423.228 375.168L420.586 375.296C420.408 375.306 420.23 375.259 420.08 375.162C419.929 375.065 419.812 374.924 419.746 374.757L409.624 349.453C409.604 349.398 409.567 349.35 409.518 349.318C409.469 349.285 409.411 349.27 409.352 349.273C409.293 349.273 409.236 349.292 409.189 349.327C409.142 349.361 409.106 349.41 409.088 349.465L400.304 374.743C400.245 374.911 400.135 375.057 399.99 375.161C399.844 375.264 399.67 375.32 399.491 375.32V375.32Z" fill="#2F2E41"/>
<path id="Vector_90" d="M414.646 337.121L414.573 337.115L404.346 336.343L406.14 324.934C406.336 323.66 406.94 322.484 407.86 321.582C408.78 320.679 409.967 320.099 411.244 319.926V319.926C411.323 319.915 411.402 319.904 411.481 319.894C412.485 319.762 413.505 319.89 414.445 320.266C415.384 320.642 416.211 321.253 416.846 322.041C417.497 322.833 417.932 323.78 418.111 324.789C418.291 325.798 418.207 326.836 417.869 327.804L414.646 337.121Z" fill="#6C63FF"/>
<path id="Vector_91" d="M421.552 319.159C418.326 320.635 413.949 320.371 408.945 319.159C409.637 317.263 410.177 315.431 409.565 314.086C409.318 313.578 409.178 313.025 409.155 312.461C409.132 311.896 409.226 311.334 409.431 310.807C409.91 309.66 410.719 308.68 411.754 307.991C412.789 307.302 414.005 306.934 415.249 306.934V306.934C416.921 306.934 418.524 307.598 419.706 308.78C420.888 309.963 421.552 311.566 421.552 313.238L421.552 319.159Z" fill="#2F2E41"/>
<path id="Vector_92" d="M411.204 307.363H414.676V312.296H406.271C406.271 311.648 406.398 311.007 406.646 310.408C406.894 309.81 407.257 309.266 407.716 308.808C408.174 308.35 408.717 307.986 409.316 307.738C409.914 307.491 410.556 307.363 411.204 307.363V307.363Z" fill="#2F2E41"/>
<path id="Vector_93" d="M404.124 348.732C404.331 348.542 404.494 348.309 404.602 348.049C404.709 347.79 404.758 347.51 404.745 347.229C404.733 346.949 404.659 346.674 404.529 346.426C404.398 346.177 404.215 345.959 403.992 345.789L406.128 339.306L402.704 340.234L401.201 346.248C400.94 346.642 400.832 347.118 400.898 347.587C400.964 348.055 401.199 348.482 401.56 348.788C401.92 349.094 402.38 349.258 402.853 349.247C403.326 349.237 403.778 349.053 404.124 348.732V348.732Z" fill="#FFB8B8"/>
<path id="Vector_94" d="M404.113 345.082L401.555 344.48C401.433 344.45 401.328 344.375 401.261 344.27C401.194 344.164 401.172 344.036 401.197 343.914L404.747 327.475L405.463 323.181C405.532 322.767 405.704 322.378 405.964 322.048C406.224 321.719 406.563 321.461 406.95 321.298C407.336 321.135 407.758 321.073 408.175 321.116C408.592 321.16 408.991 321.309 409.336 321.548C409.735 321.825 410.043 322.213 410.224 322.664C410.405 323.114 410.45 323.608 410.353 324.084L407.795 336.694L404.668 344.789C404.633 344.879 404.572 344.956 404.492 345.01C404.412 345.065 404.318 345.094 404.222 345.094C404.185 345.094 404.149 345.09 404.113 345.082V345.082Z" fill="#6C63FF"/>
<path id="Vector_95" d="M483.179 309.354C483.08 309.379 482.983 309.412 482.89 309.453L475.203 304.494L475.309 302.275L471.98 301.677L471.411 305.588C471.365 305.904 471.422 306.226 471.575 306.507C471.728 306.787 471.968 307.01 472.258 307.143L481.725 311.464C481.772 311.855 481.937 312.221 482.197 312.516C482.458 312.81 482.802 313.018 483.184 313.112C483.565 313.206 483.967 313.182 484.334 313.042C484.702 312.903 485.018 312.654 485.241 312.331C485.464 312.007 485.583 311.623 485.583 311.23C485.582 310.837 485.462 310.453 485.238 310.13C485.014 309.807 484.698 309.559 484.33 309.421C483.962 309.282 483.56 309.259 483.179 309.354H483.179Z" fill="#FFB8B8"/>
<path id="Vector_96" d="M474.89 304.358L470.767 303.597C470.65 303.575 470.539 303.528 470.441 303.46C470.344 303.391 470.262 303.302 470.202 303.199C470.141 303.096 470.104 302.982 470.092 302.863C470.08 302.744 470.094 302.625 470.133 302.512L471.486 298.558C471.598 297.957 471.945 297.425 472.45 297.08C472.954 296.735 473.575 296.605 474.176 296.717C474.777 296.83 475.308 297.177 475.654 297.681C475.999 298.186 476.129 298.807 476.017 299.408L475.87 303.571C475.865 303.69 475.836 303.807 475.782 303.913C475.729 304.02 475.653 304.114 475.56 304.189C475.467 304.263 475.359 304.317 475.243 304.346C475.127 304.375 475.007 304.379 474.89 304.358V304.358Z" fill="#3F3D56"/>
<path id="Vector_97" d="M489.224 293.632C489.201 293.732 489.186 293.833 489.18 293.935L481.257 298.506L479.331 297.397L477.278 300.085L480.496 302.379C480.756 302.564 481.069 302.66 481.389 302.652C481.708 302.645 482.016 302.533 482.267 302.336L490.437 295.89C490.805 296.027 491.207 296.048 491.588 295.95C491.969 295.853 492.311 295.642 492.569 295.346C492.827 295.049 492.989 294.681 493.033 294.29C493.077 293.9 493 293.505 492.814 293.158C492.628 292.812 492.341 292.531 491.991 292.351C491.641 292.172 491.245 292.104 490.855 292.155C490.465 292.207 490.101 292.376 489.809 292.639C489.518 292.903 489.314 293.25 489.224 293.633L489.224 293.632Z" fill="#FFB8B8"/>
<path id="Vector_98" d="M480.992 298.722L478.431 302.041C478.358 302.135 478.266 302.213 478.16 302.269C478.055 302.324 477.938 302.356 477.819 302.363C477.7 302.369 477.581 302.35 477.47 302.306C477.359 302.263 477.259 302.196 477.176 302.11L474.277 299.1C473.794 298.725 473.48 298.173 473.404 297.567C473.327 296.96 473.495 296.348 473.87 295.865C474.245 295.382 474.796 295.068 475.403 294.992C476.009 294.915 476.621 295.083 477.104 295.458L480.74 297.491C480.844 297.549 480.934 297.629 481.005 297.725C481.075 297.822 481.124 297.932 481.148 298.049C481.172 298.166 481.17 298.286 481.143 298.403C481.116 298.519 481.065 298.628 480.992 298.722V298.722Z" fill="#CCCCCC"/>
<path id="Vector_99" d="M470.505 290.798C473.007 290.798 475.035 288.77 475.035 286.268C475.035 283.766 473.007 281.738 470.505 281.738C468.004 281.738 465.975 283.766 465.975 286.268C465.975 288.77 468.004 290.798 470.505 290.798Z" fill="#FFB8B8"/>
<path id="Vector_100" d="M474.782 351.13H477.043L478.118 342.408H474.781L474.782 351.13Z" fill="#FFB8B8"/>
<path id="Vector_101" d="M474.205 350.392L478.658 350.391H478.658C479.031 350.391 479.4 350.465 479.744 350.607C480.088 350.75 480.401 350.959 480.665 351.223C480.928 351.486 481.137 351.799 481.28 352.143C481.422 352.488 481.496 352.857 481.496 353.229V353.321L474.205 353.322L474.205 350.392Z" fill="#2F2E41"/>
<path id="Vector_102" d="M467.035 351.13H469.296L470.372 342.408H467.035V351.13Z" fill="#FFB8B8"/>
<path id="Vector_103" d="M466.458 350.392L470.911 350.391H470.911C471.284 350.391 471.653 350.465 471.998 350.607C472.342 350.75 472.655 350.959 472.918 351.223C473.182 351.486 473.391 351.799 473.533 352.143C473.676 352.488 473.749 352.857 473.749 353.229V353.321L466.458 353.322L466.458 350.392Z" fill="#2F2E41"/>
<path id="Vector_104" d="M474.103 347.82L471.797 329.975C471.795 329.951 471.785 329.929 471.767 329.912C471.75 329.896 471.727 329.888 471.703 329.888C471.691 329.888 471.679 329.89 471.668 329.894C471.657 329.899 471.647 329.905 471.639 329.913C471.63 329.922 471.624 329.932 471.619 329.943C471.614 329.954 471.612 329.965 471.612 329.977L470.95 347.563C470.942 347.778 470.851 347.982 470.697 348.131C470.542 348.28 470.335 348.363 470.12 348.362H467.381C467.164 348.363 466.955 348.279 466.8 348.128C466.645 347.976 466.556 347.769 466.552 347.552L465.841 318.251L478.098 318.374L478.404 347.769C478.401 347.886 478.374 348.001 478.323 348.106C478.273 348.212 478.201 348.305 478.113 348.381C478.026 348.456 477.924 348.512 477.814 348.545C477.704 348.578 477.588 348.588 477.475 348.573L474.819 348.58C474.63 348.555 474.457 348.465 474.326 348.327C474.196 348.188 474.117 348.009 474.103 347.82V347.82Z" fill="#2F2E41"/>
<path id="Vector_105" d="M465.659 319.053C465.522 319 465.401 318.912 465.309 318.798C465.217 318.683 465.157 318.547 465.135 318.402L465.013 302.298C464.471 298.713 463.83 295.2 466.965 293.383L467.242 292.554C467.272 292.465 467.328 292.386 467.404 292.33C467.48 292.274 467.571 292.242 467.666 292.239L473.613 292.069C473.705 292.066 473.796 292.091 473.875 292.141C473.953 292.191 474.014 292.263 474.05 292.348L474.492 293.38L474.649 293.47C476.143 294.322 477.353 295.595 478.127 297.131C478.901 298.666 479.205 300.396 479.001 302.104L478.661 304.974L478.42 318.39C478.417 318.537 478.375 318.681 478.298 318.807C478.222 318.933 478.114 319.036 477.984 319.107C476.302 319.981 474.427 320.418 472.532 320.376C470.182 320.334 467.857 319.886 465.659 319.053Z" fill="#CCCCCC"/>
<path id="Vector_106" d="M470.358 290.966C469.676 290.981 468.999 290.851 468.371 290.585C467.743 290.32 467.178 289.924 466.714 289.425C466.249 288.925 465.896 288.333 465.677 287.687C465.457 287.042 465.377 286.357 465.442 285.678C465.506 284.999 465.713 284.341 466.05 283.748C466.387 283.155 466.845 282.64 467.395 282.237C467.945 281.833 468.574 281.551 469.24 281.408C469.907 281.265 470.597 281.265 471.263 281.407C472.245 280.762 473.405 280.444 474.579 280.499C475.162 280.536 475.725 280.729 476.208 281.059C476.691 281.389 477.075 281.843 477.322 282.373C477.541 282.914 477.548 283.518 477.342 284.064C477.136 284.61 476.732 285.059 476.21 285.32C475.489 285.528 474.725 285.539 473.998 285.352C473.269 285.164 472.497 285.233 471.811 285.545C471.169 285.926 470.88 286.947 471.455 287.424C471.761 287.686 471.978 288.036 472.08 288.425C472.182 288.815 472.162 289.226 472.024 289.604C471.889 289.956 471.664 290.268 471.372 290.506C471.08 290.745 470.73 290.904 470.358 290.966Z" fill="#2F2E41"/>
<path id="Vector_107" d="M207.665 377.775H209.869L210.917 369.275H207.664L207.665 377.775Z" fill="#FFB8B8"/>
<path id="Vector_108" d="M206.693 380.322L206.693 376.646L211.443 376.645C212.285 376.646 213.092 376.981 213.687 377.577C214.283 378.172 214.618 378.979 214.619 379.821V380.321L206.693 380.322Z" fill="#2F2E41"/>
<path id="Vector_109" d="M195.787 377.775H197.99L199.038 369.275H195.786L195.787 377.775Z" fill="#FFB8B8"/>
<path id="Vector_110" d="M194.815 380.322L194.814 376.646L199.564 376.645C200.406 376.646 201.214 376.981 201.809 377.577C202.404 378.172 202.739 378.979 202.74 379.821V380.321L194.815 380.322Z" fill="#2F2E41"/>
<path id="Vector_111" d="M202.241 317.349C204.855 317.349 206.975 315.23 206.975 312.615C206.975 310 204.855 307.88 202.241 307.88C199.626 307.88 197.506 310 197.506 312.615C197.506 315.23 199.626 317.349 202.241 317.349Z" fill="#FFB8B8"/>
<path id="Vector_112" d="M218.429 343.491C218.396 343.229 218.306 342.977 218.165 342.754C218.024 342.53 217.836 342.34 217.614 342.197C217.392 342.054 217.141 341.962 216.879 341.926C216.617 341.891 216.351 341.913 216.098 341.992L213.452 338.82L211.133 339.958L214.932 344.384C215.092 344.799 215.399 345.141 215.794 345.345C216.19 345.549 216.646 345.601 217.077 345.491C217.508 345.381 217.884 345.116 218.133 344.748C218.382 344.379 218.488 343.932 218.429 343.491V343.491Z" fill="#FFB8B8"/>
<path id="Vector_113" d="M195.658 346.699C195.77 346.46 195.829 346.199 195.83 345.935C195.831 345.671 195.774 345.409 195.664 345.17C195.553 344.93 195.391 344.717 195.189 344.547C194.987 344.376 194.75 344.252 194.495 344.183L193.964 340.087L191.396 339.802L192.227 345.577C192.14 346.013 192.215 346.466 192.439 346.85C192.664 347.234 193.021 347.523 193.444 347.661C193.867 347.8 194.325 347.778 194.733 347.601C195.141 347.423 195.47 347.103 195.657 346.699H195.658Z" fill="#FFB8B8"/>
<path id="Vector_114" d="M198.284 321.557C198.032 321.234 197.7 320.983 197.32 320.829C196.94 320.675 196.526 320.625 196.121 320.682C195.715 320.739 195.331 320.903 195.009 321.155C194.687 321.408 194.436 321.742 194.284 322.122L190.404 331.806C190.007 332.796 189.881 333.873 190.037 334.928L191.301 343.44C191.317 343.55 191.357 343.655 191.418 343.748C191.479 343.841 191.559 343.92 191.652 343.979C191.746 344.038 191.852 344.076 191.962 344.091C192.072 344.106 192.184 344.096 192.29 344.064L193.955 343.552C194.128 343.5 194.276 343.388 194.375 343.237C194.473 343.086 194.516 342.905 194.495 342.726V342.726C193.907 337.714 194.684 332.637 196.743 328.031L198.573 323.939C198.745 323.553 198.809 323.128 198.759 322.708C198.708 322.289 198.544 321.891 198.284 321.557V321.557Z" fill="#CCCCCC"/>
<path id="Vector_115" d="M201.088 317.349C200.375 317.365 199.667 317.229 199.011 316.951C198.355 316.674 197.764 316.26 197.279 315.738C196.794 315.216 196.425 314.598 196.195 313.923C195.966 313.248 195.883 312.532 195.95 311.823C196.017 311.113 196.234 310.426 196.586 309.806C196.937 309.186 197.416 308.648 197.991 308.226C198.566 307.805 199.223 307.509 199.92 307.36C200.617 307.211 201.337 307.21 202.034 307.359C203.06 306.684 204.273 306.352 205.499 306.41C206.109 306.448 206.697 306.65 207.202 306.995C207.706 307.34 208.108 307.814 208.366 308.369C208.595 308.934 208.603 309.565 208.387 310.136C208.172 310.707 207.75 311.175 207.204 311.448C206.45 311.666 205.652 311.678 204.892 311.481C204.13 311.286 203.323 311.357 202.607 311.683C201.935 312.082 201.633 313.149 202.235 313.647C202.554 313.922 202.781 314.287 202.888 314.694C202.994 315.101 202.974 315.531 202.829 315.926C202.688 316.294 202.453 316.619 202.148 316.869C201.842 317.119 201.477 317.284 201.088 317.349V317.349Z" fill="#2F2E41"/>
<path id="Vector_116" d="M195.214 343.304L194.374 375.175C194.371 375.281 194.39 375.387 194.43 375.485C194.47 375.584 194.53 375.673 194.606 375.747C194.682 375.821 194.773 375.879 194.872 375.917C194.972 375.954 195.078 375.971 195.184 375.965L197.951 375.824C198.127 375.815 198.295 375.746 198.427 375.628C198.558 375.51 198.645 375.35 198.673 375.175L201.963 354.475C201.978 354.386 202.022 354.305 202.089 354.246C202.157 354.187 202.243 354.153 202.332 354.15C202.422 354.147 202.51 354.176 202.581 354.231C202.651 354.286 202.701 354.364 202.72 354.451L207.175 374.382C207.198 374.489 207.245 374.589 207.31 374.676C207.376 374.764 207.459 374.836 207.554 374.889C207.65 374.942 207.756 374.974 207.864 374.982C207.973 374.991 208.083 374.977 208.185 374.94L210.931 374.773C211.09 374.716 211.226 374.609 211.318 374.468C211.41 374.327 211.454 374.16 211.442 373.991L209.045 343.002L195.214 343.304Z" fill="#2F2E41"/>
<path id="Vector_117" d="M193.866 328.166C193.749 327.017 193.861 325.856 194.198 324.751C194.535 323.646 195.088 322.619 195.826 321.731C196.565 320.842 197.473 320.11 198.497 319.577C199.522 319.043 200.642 318.719 201.794 318.624C203.879 318.476 207.116 318.423 208.183 321.157C211.398 329.39 205.77 329.19 207.709 336.324C209.648 343.457 211.361 343.866 208.7 344.381C206.04 344.896 194.076 347.937 194.567 342.916C194.869 339.83 194.328 332.984 193.866 328.166Z" fill="#CCCCCC"/>
<path id="Vector_118" d="M207.614 320.319C207.232 320.171 206.818 320.127 206.413 320.19C206.008 320.253 205.627 320.423 205.308 320.68C204.99 320.938 204.745 321.275 204.598 321.658C204.452 322.04 204.408 322.455 204.473 322.859L205.984 332.303C206.243 333.918 206.926 335.435 207.963 336.699L212.871 342.679C212.941 342.765 213.029 342.835 213.129 342.883C213.229 342.932 213.338 342.959 213.449 342.961C213.56 342.964 213.67 342.942 213.772 342.898C213.874 342.854 213.965 342.789 214.04 342.706L215.205 341.412C215.326 341.278 215.396 341.105 215.403 340.925C215.41 340.745 215.353 340.568 215.243 340.425L214.9 339.979C212.045 336.274 210.244 331.867 209.687 327.223L209.086 322.214C209.036 321.794 208.872 321.396 208.613 321.062C208.353 320.729 208.008 320.472 207.614 320.319V320.319Z" fill="#CCCCCC"/>
<path id="Vector_119" d="M218.655 345.686C218.898 345.565 219.111 345.392 219.28 345.179C219.449 344.967 219.57 344.72 219.633 344.456C219.696 344.192 219.701 343.918 219.647 343.652C219.592 343.386 219.481 343.135 219.319 342.917L220.707 329.343H217.707L216.603 342.597C216.255 342.893 216.028 343.307 215.964 343.759C215.9 344.212 216.005 344.672 216.258 345.053C216.51 345.433 216.894 345.708 217.336 345.825C217.778 345.941 218.247 345.892 218.655 345.686V345.686Z" fill="#A0616A"/>
<path id="Vector_120" d="M221.41 321.852C223.754 321.852 225.655 319.951 225.655 317.607C225.655 315.263 223.754 313.362 221.41 313.362C219.065 313.362 217.165 315.263 217.165 317.607C217.165 319.951 219.065 321.852 221.41 321.852Z" fill="#A0616A"/>
<path id="Vector_121" d="M222.209 337.248C222.039 337.248 221.874 337.192 221.739 337.089C221.603 336.986 221.506 336.842 221.461 336.678C220.748 334.542 219.869 332.466 218.831 330.468C218.514 329.816 218.338 329.104 218.316 328.38C218.293 327.655 218.424 326.933 218.7 326.263C218.976 325.592 219.39 324.988 219.916 324.488C220.442 323.989 221.068 323.607 221.752 323.367V323.367C222.4 323.138 223.088 323.041 223.774 323.083C224.46 323.124 225.131 323.303 225.747 323.608C226.363 323.914 226.912 324.339 227.36 324.861C227.809 325.382 228.148 325.987 228.359 326.642C229.155 329.396 229.481 332.264 229.322 335.127C229.313 335.297 229.248 335.46 229.138 335.59C229.027 335.72 228.877 335.81 228.711 335.847L222.376 337.23C222.321 337.242 222.265 337.248 222.209 337.248V337.248Z" fill="#6C63FF"/>
<path id="Vector_122" d="M228.344 377.557H230.463L231.471 369.384H228.343L228.344 377.557Z" fill="#A0616A"/>
<path id="Vector_123" d="M235.049 380.024H227.39L227.39 376.452H231.977C232.381 376.452 232.78 376.531 233.153 376.686C233.526 376.84 233.864 377.066 234.15 377.352C234.435 377.637 234.661 377.976 234.815 378.348C234.97 378.721 235.049 379.121 235.049 379.524L235.049 380.024Z" fill="#2F2E41"/>
<path id="Vector_124" d="M207.156 374.811L209.013 375.832L213.834 369.156L211.094 367.649L207.156 374.811Z" fill="#A0616A"/>
<path id="Vector_125" d="M211.844 380.204L205.132 376.514L206.853 373.382L210.872 375.592C211.586 375.985 212.115 376.645 212.342 377.428C212.57 378.21 212.477 379.051 212.084 379.765L211.844 380.204Z" fill="#2F2E41"/>
<path id="Vector_126" d="M228.245 373.021C228.056 373.02 227.874 372.952 227.732 372.827C227.59 372.702 227.499 372.53 227.474 372.343L224.824 351.923C224.813 351.833 224.773 351.749 224.71 351.683C224.648 351.616 224.566 351.572 224.477 351.555C224.387 351.538 224.294 351.549 224.212 351.588C224.13 351.627 224.062 351.691 224.018 351.77L212.974 371.807C212.883 371.97 212.736 372.096 212.56 372.16C212.385 372.225 212.191 372.224 212.016 372.158L209.609 371.241C209.512 371.204 209.424 371.148 209.349 371.077C209.274 371.005 209.214 370.919 209.173 370.824C209.131 370.729 209.109 370.627 209.108 370.523C209.107 370.42 209.126 370.317 209.165 370.221L216.816 351.428C216.835 351.38 216.848 351.33 216.855 351.279C217.891 343.259 220.527 339.181 221.311 338.122C221.368 338.044 221.405 337.954 221.42 337.858C221.435 337.763 221.427 337.665 221.396 337.574L221.289 337.251C221.246 337.122 221.237 336.985 221.263 336.853C221.289 336.72 221.35 336.596 221.438 336.494C224.261 333.279 229.18 335.034 229.23 335.052L229.254 335.061L229.27 335.082C234.786 342.647 232.746 367.219 232.282 372.067C232.264 372.25 232.183 372.42 232.052 372.548C231.922 372.676 231.75 372.754 231.567 372.767L228.305 373.018C228.285 373.02 228.265 373.021 228.245 373.021Z" fill="#2F2E41"/>
<path id="Vector_127" d="M237.912 322.538C237.891 322.631 237.877 322.726 237.871 322.821L230.446 327.104L228.642 326.066L226.718 328.584L229.734 330.734C229.978 330.907 230.271 330.997 230.57 330.99C230.869 330.983 231.158 330.879 231.393 330.693L239.049 324.654C239.394 324.781 239.77 324.801 240.127 324.71C240.484 324.619 240.805 324.421 241.047 324.143C241.289 323.865 241.44 323.52 241.481 323.154C241.522 322.788 241.451 322.418 241.277 322.094C241.102 321.769 240.833 321.505 240.505 321.337C240.177 321.169 239.806 321.105 239.441 321.154C239.076 321.202 238.734 321.36 238.461 321.607C238.188 321.855 237.996 322.179 237.912 322.538V322.538Z" fill="#A0616A"/>
<path id="Vector_128" d="M230.198 327.307L227.799 330.417C227.73 330.506 227.644 330.578 227.545 330.63C227.446 330.682 227.337 330.712 227.226 330.719C227.114 330.725 227.002 330.707 226.898 330.666C226.794 330.625 226.7 330.562 226.623 330.482L223.906 327.661C223.456 327.309 223.163 326.793 223.093 326.225C223.022 325.658 223.18 325.086 223.53 324.634C223.881 324.183 224.396 323.889 224.963 323.816C225.53 323.744 226.103 323.899 226.555 324.248L229.962 326.153C230.06 326.208 230.144 326.283 230.21 326.373C230.276 326.463 230.322 326.567 230.344 326.676C230.367 326.786 230.365 326.899 230.34 327.008C230.315 327.117 230.267 327.219 230.198 327.307H230.198Z" fill="#6C63FF"/>
<path id="Vector_129" d="M220.898 332.71L217.033 332.012C216.923 331.992 216.818 331.949 216.726 331.885C216.635 331.821 216.558 331.738 216.501 331.642C216.444 331.546 216.409 331.439 216.397 331.327C216.386 331.216 216.398 331.104 216.434 330.998L217.687 327.288C217.792 326.726 218.115 326.228 218.586 325.904C219.058 325.58 219.638 325.456 220.2 325.559C220.763 325.663 221.261 325.985 221.587 326.455C221.912 326.925 222.038 327.505 221.936 328.068L221.814 331.969C221.81 332.081 221.782 332.191 221.733 332.291C221.683 332.391 221.612 332.479 221.525 332.549C221.439 332.62 221.338 332.671 221.229 332.698C221.121 332.726 221.008 332.73 220.898 332.71V332.71Z" fill="#6C63FF"/>
<path id="Vector_130" d="M222.082 316.631C223.173 317.377 224.605 318.145 225.719 317.35C226.068 317.084 226.321 316.713 226.441 316.292C226.561 315.87 226.541 315.421 226.385 315.012C225.851 313.486 224.385 312.815 222.984 312.3C221.203 311.495 219.221 311.244 217.296 311.577C215.414 312.057 213.752 313.878 214.091 315.79C214.364 317.327 215.814 318.606 215.608 320.153C215.401 321.711 213.65 322.531 212.103 322.809C210.557 323.088 208.826 323.177 207.715 324.288C206.297 325.705 206.651 328.238 207.985 329.734C209.443 331.13 211.291 332.049 213.283 332.369C215.868 332.98 218.663 333.301 221.118 332.287C223.573 331.273 225.483 328.545 224.772 325.986C224.397 324.925 223.823 323.946 223.08 323.102C222.337 322.257 221.779 321.266 221.443 320.192C221.323 319.739 221.309 319.263 221.404 318.804C221.499 318.345 221.699 317.914 221.989 317.545C222.099 317.426 222.168 317.275 222.186 317.113C222.205 316.952 222.172 316.79 222.092 316.649L222.082 316.631Z" fill="#2F2E41"/>
<g id="trees">
<path id="Vector_131" d="M82.4482 274.887C82.4482 257.102 68.021 214.899 50.2241 214.899C32.4272 214.899 18 257.102 18 274.887C18.0048 283.43 21.4019 291.622 27.4445 297.661C33.4872 303.7 41.6809 307.093 50.2241 307.093C58.7674 307.093 66.961 303.7 73.0037 297.661C79.0463 291.622 82.4435 283.43 82.4482 274.887H82.4482Z" fill="#38785D"/>
<path id="Vector_132" d="M706.448 225.527C706.448 193.944 680.828 119 649.224 119C617.62 119 592 193.944 592 225.527C592.011 240.696 598.045 255.241 608.775 265.964C619.506 276.686 634.055 282.709 649.224 282.709C664.394 282.709 678.943 276.686 689.673 265.964C700.403 255.241 706.437 240.696 706.448 225.527Z" fill="#7B997A"/>
</g>
<path id="Vector_133" d="M651.654 350.894C651.481 350.894 651.314 350.825 651.192 350.702C651.069 350.579 651 350.413 651 350.239V216.654C651 216.481 651.069 216.314 651.192 216.192C651.314 216.069 651.481 216 651.654 216C651.828 216 651.994 216.069 652.117 216.192C652.24 216.314 652.309 216.481 652.309 216.654V350.239C652.309 350.413 652.24 350.579 652.117 350.702C651.994 350.825 651.828 350.894 651.654 350.894Z" fill="#CCCCCC"/>
<path id="Vector_134" d="M651.563 249.262C651.47 249.262 651.377 249.242 651.291 249.203C651.206 249.164 651.978 249.229 651.917 249.158L619.006 211.204C618.893 211.073 617.988 210.78 618 210.607C618.013 210.435 618.093 210.274 618.224 210.16C618.355 210.046 618.526 209.989 618.699 210.002C618.872 210.014 618.267 211.118 618.381 211.249L651.291 249.203C651.374 249.298 652.193 248.39 652.211 248.514C652.229 248.638 652.21 248.765 652.158 248.879C652.106 248.993 652.023 249.09 651.917 249.158C651.812 249.226 651.689 249.262 651.563 249.262Z" fill="#CCCCCC"/>
<path id="Vector_135" d="M653.654 270.008C653.525 270.008 653.398 269.97 653.291 269.898C653.183 269.826 653.099 269.724 653.05 269.604C653 269.485 652.987 269.353 653.013 269.226C653.038 269.099 653.1 268.983 653.192 268.891L671.892 250.19C672.015 250.068 672.181 250 672.354 250C672.528 250 672.694 250.069 672.816 250.192C672.939 250.314 673.007 250.48 673.008 250.653C673.008 250.827 672.94 250.993 672.817 251.116L654.117 269.816C654.056 269.877 653.984 269.926 653.905 269.959C653.825 269.991 653.74 270.008 653.654 270.008V270.008Z" fill="#CCCCCC"/>
<path id="Vector_136" d="M48.3685 355.962C48.2708 355.962 48.177 355.923 48.1079 355.854C48.0388 355.784 48 355.691 48 355.593V280.369C48 280.271 48.0388 280.177 48.1079 280.108C48.177 280.039 48.2708 280 48.3685 280C48.4662 280 48.56 280.039 48.6291 280.108C48.6982 280.177 48.737 280.271 48.737 280.369V355.593C48.737 355.691 48.6982 355.785 48.6291 355.854C48.56 355.923 48.4662 355.962 48.3685 355.962V355.962Z" fill="#CCCCCC"/>
<path id="Vector_137" d="M47.9006 290.109C47.8477 290.109 47.7955 290.097 47.7474 290.075C47.6993 290.053 47.6565 290.021 47.6219 289.982L29.0891 268.609C29.0256 268.535 28.9939 268.439 29.001 268.342C29.0081 268.244 29.0534 268.154 29.1271 268.09C29.2007 268.026 29.2967 267.994 29.3939 268.001C29.4912 268.008 29.5818 268.053 29.646 268.126L48.1788 289.499C48.2251 289.552 48.255 289.618 48.2651 289.687C48.2752 289.757 48.265 289.829 48.2356 289.893C48.2063 289.957 48.1591 290.012 48.0997 290.05C48.0403 290.088 47.9712 290.109 47.9006 290.109V290.109Z" fill="#CCCCCC"/>
<path id="Vector_138" d="M49.3684 300.268C49.2955 300.268 49.2243 300.246 49.1637 300.206C49.1031 300.165 49.0559 300.108 49.028 300.04C49.0002 299.973 48.9929 299.899 49.0071 299.827C49.0213 299.756 49.0564 299.69 49.1079 299.639L59.6385 289.108C59.7076 289.039 59.8014 289 59.8991 289C59.9968 289 60.0905 289.039 60.1596 289.108C60.2287 289.177 60.2675 289.271 60.2675 289.368C60.2675 289.466 60.2287 289.56 60.1596 289.629L49.6289 300.16C49.5948 300.194 49.5542 300.221 49.5095 300.24C49.4647 300.258 49.4168 300.268 49.3684 300.268Z" fill="#CCCCCC"/>
</g>
<defs>
<clipPath id="clip0_6_2">
<rect width="712.046" height="380.322" fill="white"/>
</clipPath>
</defs>
</svg>
