<svg width="834" height="554" viewBox="0 0 834 554" fill="none" xmlns="http://www.w3.org/2000/svg">
<g id="undraw_speech_to_text_re_rw02 1" clip-path="url(#clip0_14_192)">
<g id="backgroundCircles">
<path id="Vector" d="M512.401 184.87C532.283 184.87 548.401 168.752 548.401 148.87C548.401 128.988 532.283 112.87 512.401 112.87C492.519 112.87 476.401 128.988 476.401 148.87C476.401 168.752 492.519 184.87 512.401 184.87Z" fill="#F2F2F2"/>
<path id="Vector_2" d="M298.401 112.87C314.97 112.87 328.401 99.4386 328.401 82.8701C328.401 66.3015 314.97 52.8701 298.401 52.8701C281.833 52.8701 268.401 66.3015 268.401 82.8701C268.401 99.4386 281.833 112.87 298.401 112.87Z" fill="#F2F2F2"/>
<path id="Vector_3" d="M200.401 396.87C216.97 396.87 230.401 383.439 230.401 366.87C230.401 350.302 216.97 336.87 200.401 336.87C183.833 336.87 170.401 350.302 170.401 366.87C170.401 383.439 183.833 396.87 200.401 396.87Z" fill="#F2F2F2"/>
</g>
<path id="Vector_4" d="M169.909 412.87C178.599 423.17 187.999 497.426 198.029 506.406L668.609 507.406C678.639 498.426 688.039 424.17 696.729 413.87L169.909 412.87Z" fill="#E6E6E6"/>
<path id="Vector_5" d="M316.599 325.646V428.206H388.449V325.646C388.45 324.908 388.215 324.19 387.777 323.596C387.34 323.002 386.724 322.564 386.019 322.346C385.687 322.236 385.339 322.182 384.989 322.186H320.069C319.614 322.185 319.163 322.274 318.742 322.447C318.322 322.621 317.939 322.875 317.617 323.197C317.295 323.518 317.039 323.9 316.864 324.32C316.69 324.74 316.599 325.191 316.599 325.646V325.646ZM344.639 360.886C344.658 358.864 345.474 356.932 346.911 355.509C348.347 354.086 350.287 353.288 352.309 353.288C354.331 353.288 356.271 354.086 357.707 355.509C359.143 356.932 359.96 358.864 359.979 360.886V372.786C359.969 374.813 359.156 376.754 357.719 378.184C356.281 379.614 354.336 380.417 352.309 380.417C350.282 380.417 348.337 379.614 346.899 378.184C345.462 376.754 344.649 374.813 344.639 372.786V360.886Z" fill="#3F3D56"/>
<path id="Vector_6" d="M203.569 171.126V358.386C203.571 360.772 204.52 363.06 206.207 364.748C207.894 366.435 210.183 367.384 212.569 367.386H490.069C492.455 367.384 494.743 366.435 496.431 364.748C498.118 363.06 499.067 360.772 499.069 358.386V171.126C499.063 168.741 498.113 166.457 496.426 164.772C494.739 163.087 492.453 162.139 490.069 162.136H212.569C210.185 162.139 207.899 163.087 206.212 164.772C204.525 166.457 203.575 168.741 203.569 171.126V171.126Z" fill="#3F3D56"/>
<path id="Vector_7" d="M210 174.82V357.44C210.002 358.715 210.51 359.937 211.411 360.839C212.313 361.74 213.535 362.248 214.81 362.25H487.68C488.955 362.248 490.177 361.74 491.079 360.839C491.98 359.937 492.488 358.715 492.49 357.44V174.82C492.49 173.543 491.983 172.319 491.082 171.415C490.18 170.512 488.957 170.003 487.68 170H214.81C213.533 170.003 212.31 170.512 211.408 171.415C210.507 172.319 210 173.543 210 174.82Z" fill="#6C63FF"/>
<path id="Vector_8" d="M265.719 439.086C265.997 439.434 266.35 439.715 266.752 439.907C267.153 440.099 267.594 440.198 268.039 440.196H430.379C430.823 440.195 431.261 440.096 431.662 439.904C432.063 439.713 432.416 439.435 432.695 439.09C432.975 438.745 433.174 438.343 433.279 437.911C433.383 437.48 433.39 437.03 433.299 436.596L430.779 424.626C430.674 424.138 430.45 423.683 430.125 423.304C429.8 422.925 429.385 422.634 428.919 422.456C428.581 422.323 428.222 422.255 427.859 422.256H270.549C270.186 422.255 269.827 422.323 269.489 422.456C269.023 422.634 268.608 422.925 268.283 423.304C267.958 423.683 267.733 424.138 267.629 424.626L265.109 436.596C265.019 437.03 265.028 437.479 265.133 437.91C265.239 438.34 265.439 438.742 265.719 439.086Z" fill="#3F3D56"/>
<path id="Vector_9" d="M223.662 193.792H478.986C479.251 193.787 479.504 193.677 479.689 193.487C479.875 193.298 479.979 193.043 479.979 192.777C479.979 192.512 479.875 192.257 479.689 192.067C479.504 191.877 479.251 191.768 478.986 191.762H223.662C223.397 191.768 223.144 191.877 222.959 192.067C222.773 192.257 222.669 192.512 222.669 192.777C222.669 193.043 222.773 193.298 222.959 193.487C223.144 193.677 223.397 193.787 223.662 193.792V193.792Z" fill="#3F3D56"/>
<path id="Vector_10" d="M461.605 186.578C464.892 186.578 467.556 183.854 467.556 180.495C467.556 177.135 464.892 174.411 461.605 174.411C458.319 174.411 455.655 177.135 455.655 180.495C455.655 183.854 458.319 186.578 461.605 186.578Z" fill="#3F3D56"/>
<path id="Vector_11" d="M441.049 186.578C444.336 186.578 447 183.854 447 180.495C447 177.135 444.336 174.411 441.049 174.411C437.763 174.411 435.099 177.135 435.099 180.495C435.099 183.854 437.763 186.578 441.049 186.578Z" fill="#3F3D56"/>
<path id="Vector_12" d="M420.493 186.578C423.78 186.578 426.444 183.854 426.444 180.495C426.444 177.135 423.78 174.411 420.493 174.411C417.207 174.411 414.543 177.135 414.543 180.495C414.543 183.854 417.207 186.578 420.493 186.578Z" fill="#3F3D56"/>
<path id="Vector_13" d="M234.95 177.026C234.95 177.17 234.977 177.312 235.032 177.445C235.086 177.578 235.166 177.699 235.267 177.802C235.369 177.904 235.489 177.985 235.622 178.041C235.754 178.096 235.897 178.125 236.04 178.126H250.64C250.929 178.119 251.203 178 251.405 177.793C251.607 177.587 251.72 177.309 251.72 177.021C251.72 176.732 251.607 176.455 251.405 176.248C251.203 176.042 250.929 175.922 250.64 175.916H236.04C235.749 175.919 235.471 176.038 235.266 176.246C235.062 176.454 234.949 176.734 234.95 177.026V177.026Z" fill="#3F3D56"/>
<path id="Vector_14" d="M234.95 181.176C234.95 181.32 234.977 181.462 235.032 181.595C235.086 181.728 235.166 181.849 235.267 181.952C235.369 182.054 235.489 182.135 235.622 182.191C235.754 182.246 235.897 182.275 236.04 182.276H250.64C250.929 182.269 251.204 182.15 251.406 181.944C251.608 181.737 251.721 181.46 251.721 181.171C251.721 180.882 251.608 180.604 251.406 180.398C251.204 180.191 250.929 180.072 250.64 180.066H236.04C235.749 180.069 235.471 180.188 235.266 180.396C235.062 180.604 234.949 180.884 234.95 181.176V181.176Z" fill="#3F3D56"/>
<path id="Vector_15" d="M234.95 185.316C234.949 185.607 235.062 185.888 235.266 186.096C235.471 186.304 235.749 186.422 236.04 186.426H250.64C250.929 186.419 251.203 186.3 251.405 186.093C251.607 185.887 251.72 185.609 251.72 185.321C251.72 185.032 251.607 184.755 251.405 184.548C251.203 184.342 250.929 184.222 250.64 184.216H236.04C235.897 184.216 235.754 184.245 235.622 184.301C235.489 184.357 235.369 184.438 235.267 184.54C235.166 184.642 235.086 184.763 235.032 184.896C234.977 185.029 234.95 185.172 234.95 185.316V185.316Z" fill="#3F3D56"/>
<path id="Vector_16" d="M795.943 392.196C795.923 392.146 795.913 392.106 795.893 392.067C795.507 391.026 795.056 390.011 794.543 389.026C791.633 383.556 794.713 375.157 791.433 365.877C786.133 350.837 779.673 341.967 770.203 334.017C769.923 333.777 769.643 333.547 769.353 333.307L769.343 333.297C763.023 328.107 755.403 323.257 745.943 317.217C743.973 315.957 737.163 319.597 737.323 313.357C737.503 306.427 737.693 299.247 734.293 294.767L734.073 294.477L733.723 294.387C722.066 292.081 710.176 291.164 698.303 291.657H698.293C693.252 291.844 688.246 292.578 683.363 293.846C683.003 293.946 682.643 294.047 682.293 294.167C682.023 294.237 681.753 294.327 681.483 294.417L681.263 294.497L681.093 294.657C677.803 297.947 677.043 303.847 676.683 309.997V310.006C676.613 311.127 676.553 312.247 676.503 313.366C676.223 319.346 661.793 324.176 656.293 326.886C645.963 331.986 647.521 343.87 647.401 343.87C647.401 343.87 630.033 379.526 629.823 415.636C629.813 417.646 629.8 419.666 629.783 421.696C629.663 438.516 629.343 455.626 628.083 471.216C627.533 477.916 626.823 484.326 625.873 490.316C621.253 519.486 600.323 495.266 590.313 514.676C590.642 516.585 591.196 518.448 591.963 520.226C593.113 520.906 594.293 521.566 595.463 522.226C600.653 525.116 605.94 527.813 611.323 530.316C611.623 530.456 611.923 530.596 612.223 530.726C622.097 535.295 632.275 539.178 642.683 542.346C644.713 542.966 646.743 543.556 648.793 544.116C666.927 549.122 685.599 551.919 704.403 552.446C704.479 552.438 704.556 552.435 704.633 552.436C726.872 551.822 748.965 548.637 770.473 542.946C770.773 542.867 771.073 542.787 771.373 542.706C772.783 542.326 774.183 541.946 775.583 541.546C787.961 538.024 800.088 533.675 811.883 528.526C811.895 528.966 811.939 529.403 812.013 529.836C812.023 529.978 812.043 530.118 812.073 530.256C812.093 530.096 812.113 529.937 812.123 529.776C812.183 529.306 812.233 528.826 812.283 528.346C818.403 468.666 805.693 417.997 795.943 392.196Z" fill="#F2F2F2"/>
<path id="Vector_17" d="M707.419 286.474C739.491 286.474 765.49 260.475 765.49 228.403C765.49 196.331 739.491 170.332 707.419 170.332C675.347 170.332 649.348 196.331 649.348 228.403C649.348 260.475 675.347 286.474 707.419 286.474Z" fill="#FFB6B6"/>
<path id="Vector_18" d="M711.718 287.52C720.571 285.938 729.274 283.603 737.73 280.539C746.032 277.097 762.612 259.157 766.342 249.579C769.113 242.462 769.746 232.068 769.791 224.602C769.883 214.716 767.898 204.921 763.964 195.851C760.03 186.781 754.235 178.638 746.954 171.95C744.104 169.114 740.54 167.102 736.64 166.125C736.3 166.063 735.952 166.017 735.604 165.987C730.13 165.631 724.886 163.647 720.547 160.29C719.699 159.605 718.803 158.982 717.866 158.426C713.193 155.822 707.971 154.36 702.626 154.16C693.943 153.559 682.427 158.078 668.4 167.597C661.353 172.38 652.714 172.829 645.973 172.686C645.597 172.686 645.227 172.785 644.901 172.973C644.575 173.161 644.303 173.431 644.114 173.756C641.866 176.876 638.52 179.028 634.749 179.782C632.457 180.333 630.656 184.007 628.537 188.752C628.057 189.829 627.496 191.086 627.067 191.867L626.74 190.59L625.713 192.286C624.099 194.952 623.186 197.983 623.059 201.097C622.932 204.211 623.594 207.306 624.986 210.095C626.377 212.884 628.451 215.276 631.015 217.047C633.58 218.818 636.55 219.912 639.651 220.226C642.097 220.391 644.553 220.307 646.982 219.974C648.463 219.821 649.994 219.663 651.486 219.633C656.3 219.679 661.02 220.973 665.186 223.388C669.351 225.803 672.819 229.257 675.251 233.412C675.821 234.371 676.604 235.186 677.54 235.794C678.475 236.402 679.538 236.787 680.646 236.92C681.754 237.052 682.877 236.928 683.929 236.557C684.982 236.186 685.935 235.578 686.715 234.781C687.989 233.318 689.599 232.185 691.406 231.479C693.214 230.772 695.165 230.514 697.094 230.725C698.836 231.293 700.33 232.442 701.325 233.98C702.501 235.681 704.157 236.993 706.082 237.748C712.529 239.627 715.54 252.929 715.609 264.494C715.675 275.641 713.181 284.2 709.544 285.308C706.744 286.16 706.456 286.427 706.348 286.972L706.251 287.461L706.655 287.821C708.345 288.086 710.071 287.983 711.718 287.52V287.52Z" fill="#2F2E41"/>
<path id="Vector_19" d="M506.191 467.056C517.31 467.056 526.323 464.179 526.323 460.631C526.323 457.082 517.31 454.206 506.191 454.206C495.072 454.206 486.059 457.082 486.059 460.631C486.059 464.179 495.072 467.056 506.191 467.056Z" fill="#3F3D56"/>
<path id="Vector_20" d="M506.191 462.773C517.31 462.773 526.323 459.896 526.323 456.347C526.323 452.799 517.31 449.922 506.191 449.922C495.072 449.922 486.059 452.799 486.059 456.347C486.059 459.896 495.072 462.773 506.191 462.773Z" fill="#3F3D56"/>
<g id="mirco">
<path id="Vector_21" d="M502.651 460.653L505.651 460.608L504.824 404.59C504.703 395.449 506.983 386.437 511.434 378.453C515.886 370.469 522.354 363.792 530.193 359.09L587.452 324.864L585.913 322.288L528.654 356.516C520.363 361.489 513.523 368.55 508.815 376.993C504.107 385.437 501.696 394.968 501.824 404.635L502.651 460.653Z" fill="#3F3D56"/>
<path id="Vector_22" d="M578.684 342.835C578.684 346.857 581.944 350.117 585.966 350.117C589.987 350.117 593.248 346.857 593.248 342.835V297.431C593.248 293.409 589.987 290.149 585.966 290.149C581.944 290.149 578.684 293.409 578.684 297.431V342.835Z" fill="#6C63FF"/>
</g>
<g id="manLeftHand">
<path id="Vector_23" d="M490.737 384.553C491.405 386.996 492.6 389.263 494.239 391.194C495.878 393.125 497.92 394.673 500.222 395.729C502.524 396.786 505.029 397.325 507.562 397.308C510.094 397.291 512.593 396.72 514.88 395.633L558.063 439.512L564.745 408.226L522.713 371.354C520.633 367.631 517.26 364.801 513.233 363.4C509.205 361.999 504.804 362.123 500.863 363.75C496.921 365.377 493.713 368.393 491.847 372.227C489.981 376.061 489.586 380.447 490.737 384.553V384.553Z" fill="#FFB6B6"/>
<path id="Vector_24" d="M716.301 338.735L716.027 338.582L684.54 327.754C680.543 326.379 676.299 325.871 672.09 326.261C667.88 326.652 663.803 327.934 660.127 330.022C658.42 330.987 656.815 332.122 655.336 333.409L655.326 333.411C650.392 337.673 646.992 343.436 645.647 349.815L629.109 428.333L595.857 410.413L582.307 407.177L569.973 394.799L539.172 382.258L537.463 384.299L521.965 402.823L520.747 404.279L554.872 453.649L570.169 455.314L574.454 462.937L574.756 463.075L587.296 468.727L640.778 492.823L666.677 473.002L670.73 469.891C704.236 438.848 719.898 413.876 726.438 394.857C729.899 384.811 730.81 376.439 730.467 369.69C729.402 348.833 716.833 339.134 716.301 338.735Z" fill="#F2F2F2"/>
</g>
<path id="Vector_25" d="M745.901 357.87H730.901C720.592 357.87 710.384 359.901 700.86 363.846C691.336 367.791 682.683 373.573 675.393 380.862C668.104 388.152 662.322 396.805 658.377 406.329C654.432 415.853 652.401 426.061 652.401 436.37C638.408 453.674 639.265 475.403 652.401 500.79L609.406 482.865C606.469 481.647 603.169 481.644 600.231 482.856C597.292 484.068 594.954 486.397 593.731 489.332C592.507 492.266 592.498 495.566 593.706 498.507C594.913 501.447 597.238 503.789 600.171 505.017L652.401 526.792V530.846C652.401 536.953 654.827 542.809 659.145 547.127C663.462 551.444 669.318 553.87 675.425 553.87H801.377C807.484 553.87 813.34 551.444 817.658 547.127C821.975 542.809 824.401 536.953 824.401 530.846C833.739 496.589 839.584 463.366 824.401 436.37C824.401 415.55 816.131 395.584 801.409 380.862C786.687 366.141 766.721 357.87 745.901 357.87V357.87Z" fill="#3F3D56"/>
<path id="Vector_26" d="M386.401 291.87C388.61 291.87 390.401 290.079 390.401 287.87C390.401 285.661 388.61 283.87 386.401 283.87C384.192 283.87 382.401 285.661 382.401 287.87C382.401 290.079 384.192 291.87 386.401 291.87Z" fill="#F2F2F2"/>
<path id="Vector_27" d="M400.401 291.87C402.61 291.87 404.401 290.079 404.401 287.87C404.401 285.661 402.61 283.87 400.401 283.87C398.192 283.87 396.401 285.661 396.401 287.87C396.401 290.079 398.192 291.87 400.401 291.87Z" fill="#F2F2F2"/>
<g id="cpTexts">
<path id="Vector_28" d="M414.401 291.87C416.61 291.87 418.401 290.079 418.401 287.87C418.401 285.661 416.61 283.87 414.401 283.87C412.192 283.87 410.401 285.661 410.401 287.87C410.401 290.079 412.192 291.87 414.401 291.87Z" fill="#F2F2F2"/>
<path id="Vector_29" d="M285.661 245.905L315.518 246.35C315.907 246.337 316.276 246.173 316.546 245.893C316.816 245.613 316.967 245.239 316.967 244.85C316.967 244.461 316.816 244.087 316.546 243.808C316.276 243.528 315.907 243.364 315.518 243.35L285.661 242.905C285.272 242.919 284.904 243.083 284.634 243.363C284.363 243.642 284.212 244.016 284.212 244.405C284.212 244.794 284.363 245.168 284.634 245.448C284.904 245.728 285.272 245.892 285.661 245.905V245.905Z" fill="white"/>
<path id="Vector_30" d="M321.633 277.301C325.167 280.028 330.846 277.642 331.832 273.43C332.981 268.521 328.694 263.901 323.828 264.007C318.417 264.126 314.592 268.677 314.006 273.799C313.78 276.125 314.131 278.471 315.027 280.629C315.922 282.787 317.336 284.692 319.142 286.174C321.063 287.856 323.369 289.039 325.855 289.619C328.341 290.2 330.932 290.161 333.399 289.505C335.247 288.96 334.461 286.064 332.602 286.612C329.432 287.429 326.069 286.993 323.212 285.393C320.356 283.793 318.227 281.153 317.268 278.023C316.326 274.485 317.216 270.066 320.513 268.041C323.478 266.222 327.674 266.882 328.804 270.528C329.064 271.27 329.079 272.076 328.847 272.827C328.615 273.579 328.149 274.236 327.517 274.704C326.885 275.171 326.12 275.424 325.333 275.425C324.547 275.427 323.781 275.176 323.147 274.711C322.803 274.512 322.395 274.458 322.011 274.559C321.627 274.659 321.298 274.907 321.095 275.249C320.904 275.595 320.853 276.001 320.953 276.383C321.053 276.765 321.297 277.094 321.633 277.301H321.633Z" fill="white"/>
<path id="Vector_31" d="M352.241 263.763C349.23 267.135 346.533 270.775 344.184 274.638L340.678 265.372C340.002 263.583 337.1 264.359 337.785 266.17C339.275 270.108 340.765 274.047 342.255 277.985C340.54 281.16 339.056 284.455 337.817 287.845C337.153 289.661 340.051 290.444 340.709 288.642C341.574 286.29 342.565 283.987 343.677 281.742C345.042 285.35 346.406 288.958 347.771 292.566C348.448 294.355 351.349 293.579 350.664 291.768C348.956 287.254 347.248 282.739 345.54 278.224C348.029 273.806 350.987 269.668 354.363 265.884C355.647 264.449 353.532 262.32 352.241 263.763Z" fill="white"/>
<path id="Vector_32" d="M298.969 244.44L301.067 289.406C301.156 291.329 304.157 291.34 304.067 289.406L301.969 244.44C301.879 242.517 298.879 242.506 298.969 244.44Z" fill="white"/>
<path id="Vector_33" d="M372.968 267.87H365.412C365.393 266.352 365.373 264.834 365.342 263.318C365.303 261.39 362.303 261.384 362.342 263.318C362.373 264.835 362.403 266.353 362.434 267.87H355.96C355.571 267.884 355.203 268.047 354.933 268.327C354.662 268.607 354.511 268.981 354.511 269.37C354.511 269.759 354.662 270.133 354.933 270.413C355.203 270.693 355.571 270.857 355.96 270.87H362.494C362.507 271.508 362.52 272.145 362.533 272.783C362.49 275.735 362.617 278.686 362.912 281.623C363.552 286.339 366.748 291.697 372.209 291.234C374.119 291.073 374.136 288.071 372.209 288.234C367.281 288.652 365.866 282.862 365.681 279.07C365.548 276.342 365.49 273.606 365.451 270.87H372.968C373.357 270.856 373.725 270.693 373.995 270.413C374.266 270.133 374.417 269.759 374.417 269.37C374.417 268.981 374.266 268.607 373.995 268.327C373.725 268.048 373.357 267.884 372.968 267.87V267.87Z" fill="#F2F2F2"/>
</g>
<path id="Vector_34" d="M78.6714 407.591C77.6994 407.595 76.7298 407.686 75.7741 407.864L59.8726 307.198L75.803 210.287C76.8053 204.191 75.4585 197.942 72.0342 192.799C68.61 187.657 63.3631 184.005 57.3518 182.579C51.3405 181.153 45.0122 182.059 39.6431 185.116C34.274 188.172 30.2637 193.151 28.421 199.048V199.048C22.4491 218.158 19.4939 238.082 19.6619 258.102L20.2175 324.193L62.6098 425.695C62.9804 428.791 64.2379 431.714 66.2309 434.113C68.2239 436.511 70.8676 438.283 73.8437 439.214C76.8198 440.145 80.0017 440.197 83.0064 439.362C86.0111 438.528 88.7107 436.843 90.7802 434.51C92.8498 432.177 94.2012 429.296 94.6718 426.214C95.1424 423.131 94.7122 419.978 93.4329 417.134C92.1537 414.29 90.0798 411.876 87.461 410.183C84.8422 408.49 81.7899 407.59 78.6714 407.591Z" fill="#FFB8B8"/>
<path id="Vector_35" d="M49.5489 175.81C39.3724 175.827 29.6175 179.877 22.4217 187.073C15.2258 194.269 11.1758 204.024 11.1589 214.2L18.9589 293L19.6589 300.06L20.0189 300.08L47.4089 301.44H47.4189L60.7089 302.1L62.9889 302.21L65.5989 293L87.9389 214.2C87.928 204.022 83.8799 194.263 76.6827 187.066C69.4856 179.869 59.7273 175.821 49.5489 175.81V175.81Z" fill="#E6E6E6"/>
<path id="Vector_36" d="M50.7289 554L38.1289 515.34C38.1289 515.34 15.0289 491.85 44.6589 429.49C45.3089 428.11 45.9889 426.72 46.6989 425.3C47.9389 422.81 49.2656 420.256 50.6789 417.64C52.8189 413.84 54.9889 409.91 57.4389 405.85L59.6789 406.25L61.7989 406.62L69.0489 407.9H69.0589L174.049 426.4C174.049 426.4 172.119 435.02 171.079 444.27C170.249 451.86 169.979 459.54 171.939 462.79C176.179 470.05 170.449 489.67 170.449 489.67C170.449 489.67 170.769 491.57 171.309 494.93V494.94C171.839 498.21 172.579 502.85 173.419 508.47C173.459 508.85 173.509 509.23 173.569 509.61C174.899 518.71 176.489 530.2 177.909 542.55C178.349 546.3 178.769 550.13 179.169 554L50.7289 554Z" fill="#2F2E41"/>
<path id="Vector_37" d="M20.8034 196.193C22.1008 192.615 24.2776 189.421 27.1333 186.905C29.9891 184.389 33.432 182.632 37.1449 181.796C42.6484 180.231 48.3763 179.605 54.0879 179.944C70.808 180.603 66.5922 143.144 83.1484 145.57C83.1484 145.57 98.7314 140.008 110.924 150.199C122 159.457 129.636 184.635 132.479 183.203C133.083 182.904 134.534 182.936 136.564 183.205C160.287 186.354 177.359 207.635 175.949 231.525L174.744 251.947C174.744 251.947 183.262 264.77 170.901 287.407L155.329 357C155.329 357 194.29 434.168 176.329 450C158.368 465.832 87.945 441.146 87.945 441.146C87.945 441.146 48.4534 428.938 40.1245 423.646C22.5313 412.47 45.017 386.985 58.9194 388.186C59.2861 386.733 59.2422 385.206 58.7927 383.776C58.3432 382.345 57.5057 381.068 56.3734 380.086C52.531 377.632 56.8362 372.077 57.1603 371.568C56.7898 371.938 53.8734 374.993 51.6514 368.558C49.4295 362.124 56.2807 354.022 56.2807 354.022L36.9304 312.359L21.7002 279.445L19.8483 275.649L23.0251 255.17L22.7279 254.555C15.9585 240.441 14.4603 224.372 18.5041 209.251C19.9711 203.69 21.0269 198.623 20.8034 196.193Z" fill="white"/>
<path id="Vector_38" d="M179.169 554H172.489C174.339 550.03 176.169 546.18 177.909 542.55C178.349 546.3 178.769 550.13 179.169 554Z" fill="#2F2E41"/>
<g id="womanRightHand">
<path id="Vector_39" d="M310.29 321.054C309.698 321.825 309.177 322.648 308.733 323.512L219.403 274.455L152.53 202.527C148.324 198.003 142.558 195.242 136.396 194.801C130.233 194.36 124.133 196.273 119.326 200.153C114.518 204.033 111.361 209.591 110.49 215.708C109.619 221.824 111.101 228.043 114.635 233.11L114.635 233.11C126.089 249.531 140.033 264.066 155.966 276.19L208.562 316.214L314.772 344.838C317.447 346.44 320.528 347.236 323.645 347.128C326.761 347.021 329.78 346.015 332.339 344.232C334.897 342.449 336.886 339.965 338.066 337.078C339.245 334.191 339.566 331.025 338.988 327.961C338.411 324.896 336.96 322.064 334.811 319.804C332.662 317.545 329.905 315.955 326.873 315.225C323.841 314.495 320.663 314.657 317.721 315.691C314.779 316.725 312.199 318.588 310.29 321.054V321.054Z" fill="#FFB8B8"/>
<path id="Vector_40" d="M189.374 301.609L215.892 270.676L217.37 268.947L163.052 195.336C160.704 193.508 158.147 191.966 155.434 190.744L155.427 190.737C146.861 186.843 137.162 186.232 128.175 189.019C119.187 191.807 111.537 197.799 106.677 205.856C101.817 213.914 100.086 223.476 101.814 232.726C103.541 241.976 108.607 250.269 116.047 256.03L131.9 265.971L189.137 301.881L189.374 301.609Z" fill="white"/>
</g>
<path id="Vector_41" d="M141.78 111.91C136.209 122.096 127.336 130.081 116.621 134.55C105.906 139.02 93.9879 139.707 82.8303 136.498C71.6726 133.29 61.9403 126.377 55.2362 116.899C48.5321 107.42 45.2558 95.9411 45.9471 84.3519C46.6383 72.7627 51.2558 61.7544 59.0391 53.14C66.8224 44.5256 77.3073 38.8187 88.7673 36.9593C100.227 35.0998 111.979 37.1986 122.086 42.91C132.194 48.6214 140.056 57.6048 144.376 68.3809C144.61 68.9656 144.82 69.5504 145.031 70.1585C147.473 76.9517 148.446 84.1858 147.886 91.3829C147.325 98.58 145.244 105.576 141.78 111.91Z" fill="#FFB6B6"/>
<path id="Vector_42" d="M149.124 70.1585C146.925 64.007 147.884 67.2114 145.662 61.0832C147.112 66.5097 144.82 69.5504 145.031 70.1585H84.1934V34.793C102.017 27.7292 119.442 21.718 129.967 34.793C139.347 34.7934 148.342 38.5196 154.974 45.1518C161.606 51.784 165.333 60.7792 165.333 70.1586L149.124 70.1585Z" fill="#2F2E41"/>
<path id="Vector_43" d="M127.558 168.466C127.512 167.811 127.441 167.133 127.348 166.478C126.53 161.674 125.205 156.969 123.395 152.444C121.641 147.509 119.863 142.55 118.085 137.615C120.375 146.574 119.676 156.035 116.097 164.56C105.829 156.561 112.308 138.27 98.8823 138.27C66.6042 138.27 33.3904 112.097 33.3904 79.7951C33.3904 47.5169 47.2372 23.3786 79.5153 23.3786C111.817 23.3786 138.014 38.1609 138.645 70.4391C98.8823 79.7951 135.066 165.192 127.558 168.466Z" fill="#2F2E41"/>
<path id="Vector_44" d="M37.4239 74.8478C58.0925 74.8478 74.8478 58.0925 74.8478 37.4239C74.8478 16.7552 58.0925 0 37.4239 0C16.7552 0 0 16.7552 0 37.4239C0 58.0925 16.7552 74.8478 37.4239 74.8478Z" fill="#2F2E41"/>
</g>
<defs>
<clipPath id="clip0_14_192">
<rect width="833.723" height="554" fill="white"/>
</clipPath>
</defs>
</svg>
