<svg width="900" height="635" viewBox="0 0 900 635" fill="none" xmlns="http://www.w3.org/2000/svg">
<g id="undraw_jogging_re_k28i 1" clip-path="url(#clip0_27_2)">
<g id="trees">
<path id="right" d="M707.334 503.236C688.017 503.236 669.335 496.337 654.653 483.783C649.756 479.59 644.538 472.302 639.144 462.122C635.702 455.565 633.774 448.319 633.502 440.918C633.23 433.517 634.621 426.149 637.573 419.357C634.728 422.251 631.581 424.832 628.186 427.056L626.47 428.198L626.371 426.14C626.306 424.802 626.273 423.468 626.273 422.176C626.273 414.56 632.033 406.832 629.376 399.793C618.18 370.124 582.668 340.638 634.136 294.721C638.897 290.474 632.537 281.981 632.537 275.555C632.537 212.573 721.552 103.612 746.78 161.333C777.893 232.518 831.497 224.904 855.244 239.608L855.588 240.648L854.573 241.058C849.376 243.243 843.902 244.699 838.307 245.385C844.272 246.601 850.36 247.111 856.445 246.904L857.388 246.871L857.618 247.788C859.882 256.87 861.025 266.195 861.024 275.554L861.02 276.566C860.999 283.675 862.476 290.709 865.356 297.209C868.235 303.709 872.453 309.529 877.732 314.289C886.072 321.893 892.736 331.151 897.3 341.473C901.863 351.795 904.226 362.954 904.238 374.24C904.238 387.592 895.163 405.119 887.551 417.471C885.621 420.617 883.004 423.286 879.896 425.277C876.788 427.267 873.27 428.528 869.605 428.965C866.134 429.403 862.609 429.073 859.279 427.997C855.95 426.921 852.898 425.127 850.338 422.741C853.942 429.986 858.637 436.635 864.261 442.453L865.3 443.523L864.01 444.274C851.616 451.501 837.525 455.307 823.178 455.301L822.338 455.299C800.556 455.299 779.881 463.737 765.614 478.451C758.039 486.255 748.982 492.466 738.974 496.723C728.966 500.979 718.209 503.193 707.334 503.236Z" fill="#929A30"/>
<path id="left" d="M105.334 503.236C86.0167 503.236 67.3346 496.337 52.6535 483.783C47.756 479.59 42.5378 472.302 37.144 462.122C33.702 455.565 31.7741 448.319 31.5022 440.918C31.2303 433.517 32.6214 426.149 35.5729 419.357C32.7279 422.251 29.581 424.832 26.1862 427.056L24.47 428.198L24.3709 426.14C24.3058 424.802 24.2729 423.468 24.2729 422.176C24.2729 414.56 30.033 406.832 27.3765 399.793C16.18 370.124 -19.3324 340.638 32.1359 294.721C36.897 290.474 30.5369 281.981 30.5369 275.555C30.5369 212.573 98.9693 118.095 144.78 161.333C171.521 186.572 227.232 204.502 253.244 239.607L253.588 240.648L252.573 241.058C247.376 243.243 241.902 244.698 236.307 245.385C242.272 246.601 248.36 247.111 254.445 246.904L255.388 246.871L255.618 247.788C257.882 256.87 259.025 266.195 259.024 275.554L259.02 276.566C258.999 283.675 260.476 290.709 263.356 297.209C266.235 303.709 270.453 309.529 275.732 314.289C284.072 321.893 290.736 331.151 295.3 341.473C299.863 351.795 302.226 362.954 302.238 374.24C302.238 387.592 293.163 405.119 285.551 417.471C283.621 420.617 281.004 423.286 277.896 425.277C274.788 427.267 271.27 428.528 267.605 428.965C264.134 429.403 260.609 429.073 257.279 427.997C253.95 426.922 250.898 425.127 248.338 422.741C251.942 429.986 256.637 436.635 262.261 442.453L263.3 443.523L262.01 444.275C249.616 451.502 235.525 455.307 221.178 455.301L220.338 455.299C198.556 455.299 177.881 463.738 163.614 478.451C156.039 486.255 146.982 492.467 136.974 496.723C126.966 500.979 116.209 503.193 105.334 503.236Z" fill="#D14418"/>
</g>
<path id="Vector" d="M673.749 634.838C673.398 634.838 673.06 634.711 672.795 634.481C672.53 634.251 672.357 633.933 672.308 633.586C672.246 633.15 666.179 589.399 671.628 531.25C676.659 477.549 692.818 400.2 741.222 336.675C741.338 336.523 741.483 336.395 741.648 336.298C741.814 336.201 741.997 336.138 742.187 336.113C742.377 336.087 742.57 336.099 742.755 336.148C742.94 336.197 743.114 336.282 743.267 336.398C743.419 336.514 743.547 336.659 743.643 336.825C743.74 336.99 743.802 337.173 743.828 337.363C743.853 337.553 743.841 337.746 743.792 337.931C743.743 338.117 743.658 338.29 743.541 338.442C695.555 401.419 679.527 478.2 674.531 531.522C669.114 589.332 675.133 632.743 675.194 633.175C675.224 633.382 675.208 633.592 675.149 633.793C675.09 633.993 674.988 634.178 674.851 634.336C674.714 634.494 674.545 634.62 674.355 634.707C674.165 634.793 673.958 634.838 673.749 634.838H673.749Z" fill="#3F3D56"/>
<path id="Vector_2" d="M713.946 427.673C713.638 427.673 713.338 427.576 713.089 427.395C712.84 427.215 712.654 426.959 712.559 426.667C712.464 426.374 712.464 426.058 712.559 425.765C712.654 425.473 712.839 425.217 713.088 425.036C726.88 415.7 741.78 408.116 757.444 402.457C781.916 393.497 819.13 385.375 857.44 397.568C857.623 397.626 857.792 397.719 857.938 397.843C858.085 397.966 858.205 398.117 858.293 398.287C858.381 398.457 858.435 398.643 858.451 398.834C858.467 399.024 858.445 399.216 858.387 399.399C858.329 399.581 858.236 399.75 858.112 399.897C857.989 400.043 857.838 400.164 857.668 400.252C857.498 400.339 857.312 400.393 857.122 400.409C856.931 400.425 856.739 400.404 856.556 400.346C819.031 388.403 782.492 396.391 758.447 405.195C743.034 410.757 728.374 418.214 714.802 427.395C714.554 427.576 714.254 427.673 713.946 427.673Z" fill="#3F3D56"/>
<path id="Vector_3" d="M647.226 261.498C647.203 261.19 647.279 260.884 647.441 260.623C647.604 260.361 647.845 260.157 648.13 260.041C648.415 259.925 648.73 259.902 649.029 259.976C649.328 260.05 649.596 260.216 649.794 260.452C660.099 273.536 668.737 287.851 675.51 303.067C686.208 326.83 696.989 363.362 687.587 402.451C687.542 402.637 687.461 402.813 687.349 402.968C687.236 403.123 687.094 403.254 686.931 403.354C686.768 403.454 686.586 403.521 686.397 403.551C686.208 403.581 686.015 403.573 685.829 403.529C685.642 403.484 685.467 403.403 685.312 403.29C685.157 403.177 685.026 403.035 684.926 402.872C684.826 402.709 684.759 402.527 684.73 402.338C684.7 402.149 684.708 401.955 684.753 401.769C693.961 363.481 683.363 327.612 672.851 304.264C666.193 289.292 657.7 275.206 647.565 262.331C647.367 262.096 647.248 261.804 647.226 261.498Z" fill="#3F3D56"/>
<path id="Vector_4" d="M73.6548 639C73.3629 639 73.0808 638.873 72.8604 638.642C72.64 638.412 72.4961 638.094 72.4549 637.747C72.4034 637.311 67.3536 593.521 71.8889 535.322C76.0773 481.574 89.5278 404.157 129.82 340.576C129.917 340.424 130.037 340.295 130.175 340.199C130.313 340.102 130.465 340.039 130.623 340.013C130.781 339.987 130.942 339.999 131.096 340.048C131.25 340.097 131.395 340.182 131.522 340.299C131.649 340.415 131.755 340.56 131.836 340.726C131.916 340.892 131.968 341.075 131.989 341.265C132.01 341.455 132 341.648 131.959 341.833C131.918 342.019 131.848 342.193 131.751 342.345C91.8062 405.377 78.4641 482.225 74.3053 535.594C69.7964 593.454 74.8066 636.903 74.8577 637.335C74.8821 637.542 74.8692 637.753 74.8199 637.954C74.7706 638.154 74.6861 638.34 74.572 638.497C74.458 638.655 74.3171 638.782 74.1588 638.869C74.0006 638.955 73.8287 639 73.6548 639Z" fill="#3F3D56"/>
<path id="Vector_5" d="M110.459 417.284C110.151 417.285 109.851 417.187 109.602 417.007C109.352 416.826 109.167 416.571 109.072 416.278C108.976 415.985 108.976 415.67 109.071 415.377C109.166 415.084 109.352 414.829 109.601 414.648C123.393 405.312 138.293 397.727 153.957 392.068C178.429 383.108 215.642 374.986 253.953 387.179C254.135 387.237 254.305 387.33 254.451 387.454C254.597 387.577 254.718 387.728 254.806 387.898C254.894 388.068 254.947 388.254 254.963 388.445C254.98 388.636 254.958 388.828 254.9 389.01C254.842 389.192 254.748 389.362 254.625 389.508C254.502 389.654 254.351 389.775 254.181 389.863C254.011 389.951 253.825 390.004 253.634 390.02C253.443 390.037 253.251 390.015 253.069 389.957C215.543 378.015 179.004 386.003 154.959 394.806C139.547 400.368 124.886 407.825 111.315 417.006C111.066 417.187 110.767 417.285 110.459 417.284Z" fill="#3F3D56"/>
<path id="Vector_6" d="M48.2259 252.498C48.2035 252.19 48.2789 251.884 48.4413 251.623C48.6037 251.361 48.8448 251.157 49.13 251.041C49.4152 250.925 49.7299 250.902 50.0289 250.976C50.3278 251.05 50.5958 251.216 50.7943 251.452C61.0992 264.536 69.7373 278.851 76.5097 294.067C87.2082 317.83 97.9893 354.362 88.587 393.451C88.5423 393.637 88.4614 393.813 88.3489 393.968C88.2363 394.123 88.0944 394.254 87.9311 394.354C87.7678 394.454 87.5864 394.521 87.3972 394.551C87.208 394.581 87.0148 394.573 86.8286 394.529C86.6424 394.484 86.4669 394.403 86.312 394.29C86.1571 394.177 86.026 394.035 85.926 393.872C85.8261 393.709 85.7593 393.527 85.7296 393.338C85.6998 393.149 85.7076 392.955 85.7525 392.769C94.9615 354.481 84.3629 318.612 73.8509 295.264C67.1933 280.292 58.6997 266.206 48.5654 253.331C48.3668 253.096 48.2479 252.804 48.2259 252.498Z" fill="#3F3D56"/>
<g id="rightHand">
<path id="arm" d="M450.6 105.127C448.86 103.344 446.721 102.001 444.358 101.21C441.996 100.419 439.479 100.203 437.017 100.58C434.554 100.956 432.217 101.915 430.199 103.376C428.181 104.836 426.54 106.757 425.413 108.979C401.694 125.487 386.657 147.606 380.984 175.777L338.905 137.599C339.398 134.406 338.868 131.138 337.389 128.264C335.911 125.391 333.56 123.059 330.674 121.605C327.789 120.15 324.517 119.646 321.327 120.166C318.138 120.685 315.195 122.202 312.92 124.498C310.646 126.793 309.157 129.75 308.667 132.945C308.177 136.139 308.712 139.406 310.194 142.278C311.676 145.15 314.029 147.478 316.916 148.93C319.803 150.382 323.076 150.882 326.265 150.358C333.989 163.471 369.819 221.455 391.934 208.18C410.522 197.021 443.532 141.734 453.23 123.398C454.782 120.467 455.364 117.118 454.891 113.834C454.419 110.551 452.916 107.502 450.6 105.127Z" fill="#FFB6B6"/>
<path id="sleeve" d="M451.945 130.446C454.058 124.719 455.752 118.406 453.919 112.583C451.904 106.179 445.713 101.594 439.093 100.478C432.472 99.3628 425.592 101.359 419.9 104.919C414.208 108.479 409.579 113.506 405.466 118.813L406.568 117.06C401.214 124.074 395.859 131.088 390.505 138.103C404.095 147.544 417.684 156.985 431.274 166.427C440.131 155.676 447.119 143.513 451.945 130.446Z" fill="#6C63FF"/>
</g>
<g id="topLeaves">
<path id="Vector_7" d="M248.035 37.7051C252.032 36.5053 254.596 33.2785 253.761 30.4978C252.926 27.7171 249.009 26.4355 245.012 27.6354C241.015 28.8352 238.451 32.062 239.286 34.8427C240.12 37.6234 244.037 38.905 248.035 37.7051Z" fill="#E6E6E6"/>
<path id="Vector_8" d="M297.378 35.2432C301.375 34.0433 303.939 30.8165 303.105 28.0358C302.27 25.2551 298.353 23.9736 294.356 25.1734C290.358 26.3732 287.795 29.6001 288.629 32.3808C289.464 35.1615 293.381 36.443 297.378 35.2432Z" fill="#3F3D56"/>
<path id="Vector_9" d="M240.549 79.0566C244.547 77.8567 247.11 74.6299 246.276 71.8492C245.441 69.0686 241.524 67.787 237.527 68.9868C233.53 70.1867 230.966 73.4135 231.801 76.1942C232.635 78.9748 236.552 80.2564 240.549 79.0566Z" fill="#FF6584"/>
<path id="Vector_10" d="M224.985 96.3423C226.798 96.0596 227.939 93.7178 227.532 91.1117C227.126 88.5056 225.327 86.6221 223.514 86.9048C221.701 87.1875 220.561 89.5293 220.967 92.1354C221.373 94.7415 223.172 96.625 224.985 96.3423Z" fill="#E6E6E6"/>
<path id="Vector_11" d="M222.27 127.448C224.083 127.165 225.223 124.823 224.817 122.217C224.411 119.611 222.612 117.728 220.799 118.01C218.986 118.293 217.845 120.635 218.252 123.241C218.658 125.847 220.457 127.731 222.27 127.448Z" fill="#3F3D56"/>
<path id="Vector_12" d="M270.171 66.313C271.984 66.0303 273.124 63.6885 272.718 61.0824C272.312 58.4762 270.513 56.5927 268.7 56.8754C266.887 57.1581 265.746 59.5 266.153 62.1061C266.559 64.7122 268.358 66.5957 270.171 66.313Z" fill="#E6E6E6"/>
<path id="Vector_13" d="M244.927 58.0612C246.74 57.7785 247.88 55.4367 247.473 52.8306C247.067 50.2245 245.268 48.3409 243.455 48.6236C241.642 48.9063 240.502 51.2482 240.908 53.8543C241.315 56.4604 243.114 58.3439 244.927 58.0612Z" fill="#FF6584"/>
<path id="Vector_14" d="M274.432 31.5215C276.245 31.2388 277.385 28.8969 276.979 26.2908C276.573 23.6847 274.773 21.8012 272.961 22.0839C271.148 22.3666 270.007 24.7084 270.414 27.3145C270.82 29.9207 272.619 31.8042 274.432 31.5215Z" fill="#3F3D56"/>
</g>
<g id="downLeaves">
<path id="Vector_15" d="M501.341 523.07C505.471 522.469 508.48 519.653 508.062 516.78C507.644 513.907 503.957 512.065 499.828 512.666C495.698 513.267 492.688 516.083 493.106 518.956C493.525 521.829 497.211 523.671 501.341 523.07Z" fill="#3F3D56"/>
<path id="Vector_16" d="M563.977 488.06C568.107 487.459 571.116 484.643 570.698 481.77C570.28 478.897 566.594 477.055 562.464 477.656C558.334 478.257 555.325 481.073 555.743 483.946C556.161 486.819 559.847 488.661 563.977 488.06Z" fill="#FF6584"/>
<path id="Vector_17" d="M550.513 527.868C554.643 527.267 557.652 524.451 557.234 521.578C556.816 518.705 553.129 516.863 548.999 517.464C544.869 518.065 541.86 520.881 542.278 523.754C542.696 526.627 546.383 528.469 550.513 527.868Z" fill="#929A30"/>
<path id="Vector_18" d="M580.467 472.39C582.302 472.377 583.773 470.227 583.753 467.59C583.733 464.952 582.23 462.825 580.395 462.839C578.56 462.853 577.089 465.002 577.109 467.64C577.129 470.277 578.632 472.404 580.467 472.39Z" fill="#929A30"/>
<path id="Vector_19" d="M531.368 495.471C533.203 495.457 534.674 493.307 534.654 490.67C534.634 488.032 533.13 485.905 531.295 485.919C529.461 485.933 527.989 488.083 528.009 490.72C528.029 493.358 529.533 495.485 531.368 495.471Z" fill="#6D0C0C"/>
<path id="Vector_20" d="M587.713 442.019C589.548 442.005 591.019 439.856 590.999 437.218C590.979 434.58 589.476 432.454 587.641 432.467C585.806 432.481 584.335 434.631 584.355 437.268C584.375 439.906 585.878 442.033 587.713 442.019Z" fill="#3F3D56"/>
<path id="Vector_21" d="M555.128 507.335C556.962 507.321 558.434 505.172 558.414 502.534C558.394 499.897 556.89 497.77 555.055 497.784C553.221 497.797 551.749 499.947 551.769 502.584C551.789 505.222 553.293 507.349 555.128 507.335Z" fill="#FF6584"/>
<path id="Vector_22" d="M522.052 529.262C523.887 529.249 525.358 527.099 525.338 524.462C525.318 521.824 523.815 519.697 521.98 519.711C520.145 519.725 518.674 521.874 518.694 524.512C518.714 527.149 520.217 529.276 522.052 529.262Z" fill="#3F3D56"/>
</g>
<g id="legs">
<g id="leftLeg">
<path id="Vector_23" d="M678.864 337.19L687.034 354.856L622.78 394.782L610.72 368.707L678.864 337.19Z" fill="#FFB6B6"/>
<path id="shose" d="M697.005 328.042L722.133 382.369L721.446 382.687C715.838 385.281 709.429 385.54 703.63 383.409C697.83 381.278 693.114 376.931 690.52 371.323L690.519 371.322L678.401 364.881L677.365 342.883L675.172 338.141L697.005 328.042Z" fill="#2F2E41"/>
<path id="leg" fill-rule="evenodd" clip-rule="evenodd" d="M496.094 253.226L449.007 355.94L519.057 450.107L658.418 376.609L645.418 351.609L547.65 383.955L545.086 353.368C541.746 351.423 542.307 349.098 544.52 346.613L543.88 338.98C547.195 336.946 545.552 333.722 543.154 330.317C538.147 326.619 538.638 322.408 542.115 317.917C542.115 317.917 546.507 260.466 525.216 252.538C521.559 251.176 502.299 252.775 496.094 253.226ZM399.774 391.541L403.332 388.968C402.662 390.845 401.596 391.94 399.774 391.541ZM384.418 567.5H356L370.22 567.379L384.418 567.5ZM383.736 312.314L379.354 317.68C379.354 317.68 380.418 309.5 383.736 312.314ZM393.919 299.843L390.522 304.003C390.522 304.003 389.418 297.5 393.919 299.843Z" fill="#2F2E41"/>
</g>
<g id="rightLeg">
<path id="Vector_24" d="M393.337 613.616L373.873 613.615L364.613 538.535L393.341 538.536L393.337 613.616Z" fill="#FFB6B6"/>
<path id="shose_2" d="M394.023 633.922L334.166 633.919V633.162C334.167 626.984 336.621 621.058 340.99 616.689C345.36 612.32 351.285 609.865 357.464 609.865H357.465L368.399 601.57L388.799 609.866L394.024 609.866L394.023 633.922Z" fill="#2F2E41"/>
<path id="leg_2" fill-rule="evenodd" clip-rule="evenodd" d="M410.42 296.091C410.689 300.015 409.452 302.257 405.778 301.776C405.778 301.776 406.327 308.959 401.825 306.617L398.428 310.777L395.064 314.896C395.064 314.896 394.959 321.902 391.641 319.088L387.26 324.454L383.038 329.623L340 382.329L363.906 574.274H392.324L399.197 404.449C400.95 399.766 403.611 397.313 407.679 398.315L411.238 395.742L414.48 393.398L456.913 362.714L504 260C474.092 262.173 422.25 281.604 422.25 281.604L416.335 288.848L410.42 296.091Z" fill="#2F2E41"/>
</g>
</g>
<path id="Vector_25" d="M465.743 85.6741L439.024 86.9253L425.024 106.925C415.277 128.368 412.601 152.356 417.383 175.42L427.024 221.925L424.469 256.411C417.625 261.933 417.056 268.424 423.024 275.925C415.677 301.275 478.196 289.866 536.024 280.925C536.224 268.847 533.094 256.549 525.024 243.925L532.805 143.168L504.024 108.925L481.996 94.4183L465.743 85.6741Z" fill="#6C63FF"/>
<path id="Vector_26" d="M439.787 207.005C436.672 206.999 433.673 205.821 431.388 203.704C429.103 201.588 427.698 198.688 427.455 195.583L425.795 174.428C425.539 171.152 426.594 167.908 428.728 165.41C430.863 162.912 433.903 161.364 437.179 161.107L478.273 157.884C481.549 157.628 484.793 158.683 487.291 160.817C489.789 162.952 491.336 165.992 491.593 169.268L493.252 190.423C493.509 193.699 492.454 196.943 490.32 199.441C488.185 201.939 485.145 203.487 481.869 203.744L440.775 206.966C440.444 206.992 440.115 207.005 439.787 207.005Z" fill="#F2F2F2"/>
<path id="Vector_27" d="M445.701 80.6025C465.022 80.6025 480.685 64.9395 480.685 45.6182C480.685 26.297 465.022 10.634 445.701 10.634C426.38 10.634 410.717 26.297 410.717 45.6182C410.717 64.9395 426.38 80.6025 445.701 80.6025Z" fill="#FFB6B6"/>
<path id="Vector_28" d="M482.05 23.3537C480.392 21.2017 478.495 19.2252 477.051 16.9238C475.661 14.7081 474.712 12.2209 473.146 10.1266C468.512 3.93243 459.896 2.66577 452.199 1.89434C447.116 1.38501 442.034 0.875662 436.951 0.366282C434.095 -0.038054 431.2 -0.0903397 428.332 0.210627C425.602 0.634537 423.008 1.68461 420.752 3.27857C418.496 4.87254 416.64 6.96712 415.329 9.39825C413.84 12.2159 412.845 15.7277 409.942 17.0419C408.574 17.4733 407.18 17.8198 405.769 18.0793C404.397 18.5047 403.019 19.6008 403.07 21.0361C403.164 23.694 407.854 25.2154 406.71 27.6163C405.699 29.7365 401.653 28.2321 401.079 31.4329C401.002 31.8948 401.021 32.3678 401.137 32.8217C401.253 33.2755 401.462 33.7002 401.752 34.0685C403.056 35.74 405.198 36.1744 407.205 36.5432L403.64 41.6411C415.182 46.3836 428.031 46.8824 439.905 43.0489C441.678 42.4615 443.57 42.3285 445.407 42.6623C447.245 42.996 448.969 43.7857 450.422 44.9589C451.875 46.1322 453.01 47.6514 453.723 49.3773C454.436 51.1033 454.705 52.9807 454.504 54.8374L454.488 54.9822C454.41 55.542 454.486 56.1123 454.707 56.6324C454.928 57.1525 455.286 57.603 455.743 57.936C457.552 59.1653 459.389 57.4406 460.209 55.734C461.044 53.9981 461.597 51.8921 463.616 51.2837C464.44 51.0759 465.309 51.141 466.092 51.4692C466.876 51.7975 467.532 52.3712 467.961 53.1042C469.531 55.568 468.887 58.5086 467.983 61.1163C465.893 67.1335 462.5 72.6148 458.046 77.1688C465.647 76.6661 463.423 77.4279 471.024 76.9253L473.143 77.2551C478.23 74.0821 480.75 68.045 482.091 62.2021C485.133 48.9481 490.349 34.1262 482.05 23.3537Z" fill="#2F2E41"/>
<g id="leftHand">
<path id="arm_2" d="M490.748 113.309C488.611 114.59 486.811 116.362 485.496 118.478C484.181 120.594 483.39 122.993 483.188 125.476C482.986 127.959 483.379 130.454 484.334 132.755C485.29 135.056 486.78 137.096 488.681 138.705C491.906 159.621 511.93 179.77 543.418 197.355L496.558 229.484C493.564 228.266 490.262 228.028 487.125 228.803C483.988 229.579 481.177 231.328 479.095 233.799C477.013 236.271 475.768 239.339 475.537 242.562C475.306 245.785 476.102 248.999 477.811 251.742C479.52 254.485 482.053 256.616 485.048 257.83C488.043 259.044 491.345 259.278 494.482 258.499C497.618 257.721 500.427 255.968 502.506 253.494C504.585 251.02 505.827 247.951 506.054 244.728C520.595 240.239 585.285 218.763 577.473 194.181C570.907 173.52 524.735 128.637 509.133 114.968C506.639 112.781 503.515 111.442 500.211 111.144C496.907 110.846 493.594 111.604 490.748 113.309Z" fill="#FFB6B6"/>
<path id="sleeve_2" d="M511.712 110.446C506.66 107.018 500.939 103.858 494.846 104.238C488.146 104.655 482.207 109.563 479.534 115.722C476.86 121.88 477.145 129.039 479.233 135.419C481.321 141.8 485.089 147.501 489.252 152.768L487.815 151.278C493.338 158.161 498.86 165.043 504.383 171.925C516.813 161.002 529.242 150.079 541.672 139.156C533.364 127.976 523.236 118.27 511.712 110.446Z" fill="#6C63FF"/>
</g>
<g id="downLeaf">
<g id="Group 1">
<path id="Vector_29" d="M444.731 632.082L444.746 631.385C445.062 619.697 447.919 608.218 453.119 597.745C458.319 587.273 465.738 578.058 474.858 570.742C480.007 566.679 485.647 563.28 491.645 560.627L492.217 560.372L492.314 560.99C493.476 568.37 495.315 575.903 496.172 579.246L501.916 556.832L502.554 556.648C505.481 555.789 508.598 555.825 511.504 556.754C514.41 557.682 516.971 559.459 518.858 561.856C520.826 564.254 522.032 567.186 522.319 570.275C522.606 573.364 521.962 576.469 520.469 579.188C519.13 581.683 517.814 584.286 516.541 586.802C512.167 595.452 507.645 604.396 501.054 611.344C496.014 616.555 489.873 620.574 483.081 623.107C476.289 625.641 469.016 626.626 461.795 625.989L444.731 632.082Z" fill="#AA4242"/>
</g>
</g>
<path id="Vector_30" d="M525.899 634.105L254.149 634.412C253.993 634.412 253.838 634.381 253.693 634.321C253.549 634.261 253.418 634.174 253.307 634.063C253.196 633.953 253.109 633.821 253.049 633.677C252.989 633.532 252.958 633.378 252.958 633.221C252.958 633.065 252.989 632.91 253.049 632.766C253.109 632.621 253.196 632.49 253.307 632.379C253.418 632.269 253.549 632.181 253.693 632.121C253.838 632.061 253.993 632.031 254.149 632.031L525.899 631.723C526.215 631.723 526.518 631.849 526.741 632.072C526.964 632.295 527.09 632.598 527.09 632.914C527.09 633.23 526.964 633.533 526.741 633.756C526.518 633.979 526.215 634.105 525.899 634.105Z" fill="#CACACA"/>
<path id="Vector_31" d="M779.899 634.105L623.149 634.412C622.993 634.412 622.838 634.381 622.693 634.321C622.549 634.261 622.418 634.174 622.307 634.063C622.196 633.953 622.109 633.821 622.049 633.677C621.989 633.532 621.958 633.378 621.958 633.221C621.958 633.065 621.989 632.91 622.049 632.766C622.109 632.621 622.196 632.49 622.307 632.379C622.418 632.269 622.549 632.181 622.693 632.121C622.838 632.061 622.993 632.031 623.149 632.031L779.899 631.723C780.215 631.723 780.518 631.849 780.741 632.072C780.964 632.295 781.09 632.598 781.09 632.914C781.09 633.23 780.964 633.533 780.741 633.756C780.518 633.979 780.215 634.105 779.899 634.105Z" fill="#CACACA"/>
<path id="Vector_32" d="M156.899 634.105L10.1489 634.412C9.99258 634.412 9.83774 634.381 9.69328 634.321C9.54882 634.261 9.41756 634.174 9.30699 634.063C9.19643 633.953 9.10873 633.821 9.04889 633.677C8.98905 633.532 8.95825 633.378 8.95825 633.221C8.95825 633.065 8.98905 632.91 9.04889 632.766C9.10873 632.621 9.19643 632.49 9.30699 632.379C9.41756 632.269 9.54882 632.181 9.69328 632.121C9.83774 632.061 9.99258 632.031 10.1489 632.031L156.899 631.723C157.056 631.723 157.211 631.753 157.356 631.813C157.501 631.872 157.632 631.96 157.743 632.071C157.854 632.181 157.942 632.313 158.002 632.457C158.062 632.602 158.093 632.757 158.093 632.914C158.093 633.071 158.062 633.226 158.002 633.37C157.942 633.515 157.854 633.646 157.743 633.757C157.632 633.868 157.501 633.955 157.356 634.015C157.211 634.075 157.056 634.105 156.899 634.105Z" fill="#CACACA"/>
<g id="drink">
<path id="cup" d="M315.848 100.268C315.271 100.268 314.701 100.388 314.172 100.619C313.644 100.851 313.17 101.19 312.779 101.614C312.388 102.038 312.089 102.539 311.902 103.084C311.714 103.629 311.642 104.208 311.689 104.782C315.951 124.866 317.825 144.017 316.382 161.873C316.473 162.915 316.95 163.886 317.719 164.594C318.488 165.303 319.494 165.699 320.54 165.704H347.46C348.505 165.699 349.512 165.303 350.281 164.594C351.05 163.886 351.527 162.915 351.618 161.873C349.443 143.862 351.743 124.632 356.31 104.782C356.358 104.208 356.285 103.629 356.098 103.084C355.91 102.538 355.612 102.038 355.221 101.614C354.83 101.19 354.356 100.851 353.827 100.619C353.299 100.388 352.729 100.268 352.152 100.268H315.848Z" fill="#6C63FF"/>
<path id=" lid" d="M358.466 107.878L356.458 98.3378C356.275 97.4702 355.8 96.6919 355.111 96.1333C354.423 95.5747 353.563 95.2699 352.677 95.2699H340.139C340.09 95.1034 340.01 94.9477 339.903 94.8107L338.51 93.0693C338.379 92.9052 338.213 92.7727 338.023 92.6817C337.834 92.5907 337.626 92.5434 337.416 92.5434H329.675C329.465 92.5434 329.257 92.5907 329.068 92.6817C328.878 92.7727 328.712 92.9052 328.581 93.0693L327.187 94.8107C327.081 94.9477 327.001 95.1034 326.952 95.2699H315.323C314.437 95.2699 313.577 95.5747 312.889 96.1333C312.2 96.6919 311.725 97.4702 311.542 98.3378L309.534 107.878C309.415 108.44 309.424 109.022 309.559 109.581C309.694 110.14 309.952 110.662 310.314 111.108C310.677 111.555 311.134 111.915 311.653 112.162C312.172 112.409 312.74 112.538 313.315 112.538C326.448 116.699 340.238 116.699 354.685 112.538C355.26 112.538 355.828 112.409 356.347 112.162C356.866 111.915 357.323 111.555 357.685 111.108C358.048 110.662 358.306 110.14 358.441 109.581C358.576 109.022 358.584 108.44 358.466 107.878Z" fill="#3F3D56"/>
</g>
</g>
<defs>
<clipPath id="clip0_27_2">
<rect width="899.238" height="634.838" fill="white"/>
</clipPath>
</defs>
</svg>
