<svg width="835" height="541" viewBox="0 0 835 541" fill="none" xmlns="http://www.w3.org/2000/svg">
<g id="undraw_tree_swing_re_pqee 1" clip-path="url(#clip0_37_2)">
<path id="Vector" d="M69.8906 529.09C69.8606 530.06 69.8106 531.03 69.7306 532.01C68.5806 533.49 67.444 534.967 66.3206 536.44C65.4006 537.64 64.4906 538.82 63.5906 540C63.5706 540.02 63.5606 540.04 63.5406 540.06C63.4906 540.13 63.4406 540.2 63.3806 540.28L63.0006 540L62.0506 539.3L56.6706 535.33C51.1291 534.237 45.9083 531.9 41.4025 528.494C36.8967 525.088 33.2236 520.703 30.6606 515.67C27.2506 508.88 25.8906 501.1 24.5206 493.41C22.6306 482.79 20.6806 472.37 13.1406 465.04C18.3068 465.487 23.3947 466.593 28.2806 468.33C27.6331 470.37 27.3885 472.517 27.5606 474.65C27.6106 475.25 27.7906 475.98 28.3806 476.15C28.6407 476.17 28.9017 476.128 29.143 476.029C29.3843 475.93 29.5992 475.777 29.7706 475.58C30.7106 474.75 31.6606 473.92 32.6106 473.09C33.3706 472.43 34.1306 471.77 34.8906 471.11C38.6235 472.927 42.1703 475.104 45.4806 477.61C50.6427 481.493 55.1584 486.167 58.8606 491.46C64.5234 499.676 68.1343 509.131 69.3906 519.03C69.8221 522.365 69.9893 525.729 69.8906 529.09V529.09Z" fill="#3F3D56"/>
<path id="Vector_2" d="M80.2707 515.91C79.9298 517.367 79.5023 518.803 78.9906 520.21C75.8206 524.19 72.734 528.123 69.7307 532.01C68.5807 533.49 67.444 534.967 66.3207 536.44C65.4007 537.64 64.4907 538.82 63.5907 540C63.5707 540.02 63.5607 540.04 63.5407 540.06C63.5207 540.04 63.4907 540.02 63.4707 540C63.0807 539.65 62.7107 539.3 62.3407 538.93C60.1956 536.853 58.2038 534.624 56.3807 532.26C49.27 523.098 44.8206 512.154 43.5207 500.63C43.4507 499.94 43.3907 499.26 43.3307 498.57C42.8424 491.512 43.5697 484.422 45.4807 477.61C48.4525 466.842 54.2493 457.064 62.2707 449.29C61.3907 456.54 63.5607 463.26 66.7207 469.86C65.4939 472.47 64.9667 475.355 65.1907 478.23C65.2407 478.83 65.4207 479.56 66.0107 479.72C66.5107 479.86 67.0007 479.5 67.4007 479.16C68.3407 478.33 69.3007 477.5 70.2407 476.67C73.5607 482.73 77.1007 488.8 79.2507 495.23C79.7366 496.687 80.1438 498.169 80.4707 499.67C81.6097 505.031 81.5413 510.579 80.2707 515.91V515.91Z" fill="#6C63FF"/>
<path id="Vector_3" d="M66.3207 536.44C65.4007 537.64 64.4907 538.82 63.5907 540C63.5707 540.02 63.5607 540.04 63.5407 540.06C63.4907 540.13 63.4407 540.2 63.3807 540.28L63.0007 540H42.0907L41.8407 540.81C41.1007 540.56 40.3607 540.29 39.6307 540C32.3678 537.221 25.697 533.091 19.9707 527.83C13.3197 521.6 8.09762 514.002 4.664 505.561C1.23038 497.119 -0.333271 488.034 0.0806715 478.93C4.24067 484.61 10.1407 487.99 16.6707 490.61C16.5707 490.88 16.4707 491.14 16.3907 491.41C15.7388 493.446 15.4942 495.59 15.6707 497.72C15.7207 498.33 15.9007 499.06 16.4807 499.22C16.7403 499.245 17.002 499.207 17.2439 499.109C17.4858 499.012 17.7008 498.858 17.8707 498.66C18.8207 497.83 19.7707 496.99 20.7207 496.17C21.4806 495.51 22.2306 494.85 22.9907 494.19C23.3507 493.88 23.7107 493.57 24.0607 493.26C24.2207 493.31 24.3707 493.36 24.5207 493.41C30.9907 495.53 37.6307 497.51 43.5207 500.63C44.9975 501.413 46.4297 502.278 47.8107 503.22C55.7811 508.816 61.2752 517.281 63.1407 526.84C63.4506 528.438 63.6511 530.055 63.7407 531.68L65.4507 534.84L66.3207 536.44Z" fill="#6C63FF"/>
<g id=" grassRight">
<path id="Vector_4" d="M592.341 525.04C592.444 529.932 591.769 534.81 590.341 539.49C590.291 539.66 590.231 539.83 590.171 540H560.731C561.151 537.928 561.82 535.913 562.721 534C565.171 528.8 569.171 524.35 573.121 519.93C578.561 513.84 583.871 507.8 584.711 499.88C586.867 503.167 588.588 506.72 589.831 510.45C588.309 511.014 586.913 511.87 585.721 512.97C585.391 513.28 585.041 513.73 585.211 514.16C585.371 514.52 585.811 514.64 586.201 514.72C587.141 514.9 588.081 515.08 589.021 515.25C589.761 515.4 590.511 515.54 591.261 515.68C591.92 518.758 592.282 521.893 592.341 525.04Z" fill="#E6E6E6"/>
<path id="Vector_5" d="M617.071 521.8C612.351 524.67 609.351 529.11 606.901 534.08C604.769 534.566 602.8 535.6 601.191 537.08C600.851 537.39 600.501 537.84 600.681 538.27C600.831 538.63 601.281 538.75 601.671 538.83C602.601 539.01 603.551 539.19 604.481 539.36C604.391 539.57 604.301 539.79 604.211 540H573.011C574.427 538.09 575.995 536.297 577.701 534.64C578.071 534.27 578.451 533.92 578.841 533.56C582.818 529.966 587.385 527.083 592.341 525.04C600.148 521.776 608.686 520.657 617.071 521.8V521.8Z" fill="#E6E6E6"/>
<path id="Vector_6" d="M578.211 540H550.431C550.279 537.775 550.292 535.543 550.471 533.32C551.072 526.44 553.158 519.773 556.585 513.777C560.012 507.781 564.698 502.6 570.321 498.59C568.881 503.72 569.621 508.82 571.121 513.94C570.911 514.01 570.701 514.07 570.511 514.15C568.989 514.714 567.593 515.57 566.401 516.67C566.071 516.98 565.721 517.43 565.891 517.86C566.041 518.22 566.491 518.34 566.881 518.42C567.821 518.6 568.761 518.78 569.691 518.95C570.441 519.1 571.191 519.24 571.941 519.39C572.291 519.45 572.641 519.52 572.991 519.59C573.041 519.71 573.071 519.82 573.121 519.93C574.881 524.78 576.801 529.67 577.701 534.64C577.923 535.887 578.077 537.146 578.161 538.41C578.191 538.94 578.211 539.47 578.211 540Z" fill="#E6E6E6"/>
</g>
<g id=" grassLeft">
<path id="Vector_7" d="M378.341 525.04C378.444 529.932 377.769 534.81 376.341 539.49C376.291 539.66 376.231 539.83 376.171 540H346.731C347.151 537.928 347.82 535.913 348.721 534C351.171 528.8 355.171 524.35 359.121 519.93C364.561 513.84 369.871 507.8 370.711 499.88C372.867 503.167 374.588 506.72 375.831 510.45C374.309 511.014 372.913 511.87 371.721 512.97C371.391 513.28 371.041 513.73 371.211 514.16C371.371 514.52 371.811 514.64 372.201 514.72C373.141 514.9 374.081 515.08 375.021 515.25C375.761 515.4 376.511 515.54 377.261 515.68C377.92 518.758 378.282 521.893 378.341 525.04V525.04Z" fill="#E6E6E6"/>
<path id="Vector_8" d="M403.071 521.8C398.351 524.67 395.351 529.11 392.901 534.08C390.769 534.566 388.8 535.6 387.191 537.08C386.851 537.39 386.501 537.84 386.681 538.27C386.831 538.63 387.281 538.75 387.671 538.83C388.601 539.01 389.551 539.19 390.481 539.36C390.391 539.57 390.301 539.79 390.211 540H359.011C360.427 538.09 361.995 536.297 363.701 534.64C364.071 534.27 364.451 533.92 364.841 533.56C368.818 529.966 373.385 527.083 378.341 525.04C386.148 521.776 394.686 520.657 403.071 521.8Z" fill="#E6E6E6"/>
<path id="Vector_9" d="M364.211 540H336.431C336.279 537.775 336.292 535.543 336.471 533.32C337.072 526.44 339.158 519.773 342.585 513.777C346.012 507.781 350.698 502.6 356.321 498.59C354.881 503.72 355.621 508.82 357.121 513.94C356.911 514.01 356.701 514.07 356.511 514.15C354.989 514.714 353.593 515.57 352.401 516.67C352.071 516.98 351.721 517.43 351.891 517.86C352.041 518.22 352.491 518.34 352.881 518.42C353.821 518.6 354.761 518.78 355.691 518.95C356.441 519.1 357.191 519.24 357.941 519.39C358.291 519.45 358.641 519.52 358.991 519.59C359.041 519.71 359.071 519.82 359.121 519.93C360.881 524.78 362.801 529.67 363.701 534.64C363.923 535.887 364.077 537.146 364.161 538.41C364.191 538.94 364.211 539.47 364.211 540Z" fill="#E6E6E6"/>
</g>
<path id="Vector_10" d="M433.09 172.455C425.42 159.771 416.333 146.228 402.1 142.086C385.618 137.289 368.687 146.818 354.325 156.22C311.376 184.34 270.015 214.815 230.432 247.503L230.475 247.996C261.292 245.871 292.109 243.745 322.926 241.62C345.192 240.085 368.222 238.338 387.898 227.805C395.365 223.808 402.643 218.469 411.104 218.097C421.616 217.635 430.781 224.976 437.984 232.646C480.591 278.017 492.921 347.4 540.722 387.262C510.58 312.927 474.59 241.099 433.09 172.455V172.455Z" fill="#F2F2F2"/>
<path id="Vector_11" d="M684.901 540H680.681C643.951 492.28 609.391 442.993 577.001 392.14C554.381 356.66 532.884 320.493 512.511 283.64C511.311 281.47 510.114 279.297 508.921 277.12C500.491 261.74 492.257 246.257 484.221 230.67C477.101 216.87 470.144 202.99 463.351 189.03C461.411 185.04 459.521 181.04 457.641 177.02C453.211 167.58 448.871 158.09 444.201 148.78C439.491 139.37 433.871 129.57 425.871 122.5C424.843 121.579 423.768 120.711 422.651 119.9C421.384 118.972 420.054 118.133 418.671 117.39C418.531 117.31 418.391 117.24 418.251 117.16C414.871 115.357 411.151 114.284 407.331 114.01C399.381 113.49 392.051 116.78 385.151 120.36C373.511 126.43 362.047 132.85 350.761 139.62C313.259 162.155 277.872 188.034 245.031 216.94C244.951 217.01 244.861 217.09 244.781 217.16C201.96 254.765 163.687 297.25 130.741 343.75C129.731 345.19 127.351 343.81 128.371 342.37C132.371 336.7 136.454 331.093 140.621 325.55C171.696 284.198 207.064 246.253 246.131 212.35C250.501 208.55 254.921 204.803 259.391 201.11C281.334 182.943 304.317 166.068 328.221 150.57C335.541 145.82 342.944 141.213 350.431 136.75C355.391 133.78 360.384 130.87 365.411 128.02C371.771 124.42 378.161 120.86 384.661 117.53C391.031 114.25 397.791 111.31 405.071 111.2C410.316 111.104 415.496 112.365 420.111 114.86C420.251 114.94 420.401 115.01 420.541 115.1C423.361 116.679 425.98 118.592 428.341 120.8C438.911 130.59 445.981 145.95 451.481 157.74C454.251 163.69 457.054 169.613 459.891 175.51C470.601 197.92 481.727 220.13 493.271 242.14C499.441 253.89 505.727 265.59 512.131 277.24C513.111 279.05 514.111 280.86 515.111 282.66C538.251 324.47 562.844 365.437 588.891 405.56C619.821 453.2 650.541 495.86 684.901 540Z" fill="#E4E4E4"/>
<path id="Vector_12" d="M242.336 203.306C240.897 201.702 239.467 200.098 238.018 198.493C226.596 185.861 214.34 173.375 198.654 166.133C191.175 162.571 183.011 160.678 174.727 160.587C166.165 160.614 157.795 162.86 149.884 166.004C146.144 167.499 142.486 169.195 138.883 171.001C134.767 173.072 130.724 175.282 126.7 177.509C119.146 181.69 111.69 186.053 104.332 190.6C89.6914 199.648 75.5095 209.387 61.7861 219.817C54.6721 225.225 47.7048 230.811 40.8844 236.574C34.5407 241.928 28.3253 247.425 22.2382 253.066C20.9365 254.267 18.993 252.324 20.2946 251.123C21.8989 249.629 23.5215 248.144 25.1442 246.677C29.7278 242.533 34.3849 238.469 39.1154 234.484C47.7415 227.205 56.591 220.208 65.6639 213.491C79.7725 203.04 94.3668 193.299 109.447 184.266C116.983 179.755 124.622 175.435 132.365 171.303C134.703 170.056 137.068 168.837 139.461 167.682C144.89 164.944 150.531 162.647 156.329 160.816C164.542 158.159 173.231 157.305 181.805 158.313C190.082 159.517 198.057 162.276 205.31 166.444C220.711 175.053 232.655 188.363 244.28 201.354C245.453 202.674 243.519 204.626 242.336 203.306Z" fill="#E4E4E4"/>
<path id="Vector_13" d="M557.897 334.213L594.801 320.715L613.125 314.013C619.092 311.831 625.045 309.346 631.214 307.783C636.575 306.252 642.268 306.324 647.588 307.992C652.333 309.748 656.676 312.44 660.359 315.908C664.122 319.373 667.623 323.113 670.834 327.095C674.823 331.889 678.754 336.733 682.702 341.562C698.996 361.489 715.183 381.503 731.265 401.603C747.345 421.703 763.319 441.888 779.184 462.159C795.089 482.479 810.884 502.885 826.57 523.375C828.492 525.885 830.411 528.396 832.33 530.909C833.389 532.297 835.779 530.929 834.704 529.521C818.903 508.825 802.991 488.213 786.969 467.686C770.908 447.11 754.736 426.622 738.453 406.22C722.17 385.819 705.777 365.507 689.274 345.283C685.163 340.245 681.045 335.212 676.92 330.184C673.44 325.944 670 321.657 666.184 317.71C659.178 310.465 650.426 304.062 639.949 303.888C633.79 303.786 627.828 305.741 622.105 307.811C615.936 310.043 609.781 312.317 603.619 314.571L566.456 328.163L557.166 331.561C555.517 332.164 556.229 334.823 557.897 334.213V334.213Z" fill="#E4E4E4"/>
<path id="Vector_14" d="M193.797 182.028C175.043 172.39 151.026 174.277 133.792 186.32C166.664 191.991 199.177 199.579 231.163 209.045C217.88 201.261 207.49 189.066 193.797 182.028Z" fill="#F2F2F2"/>
<path id="Vector_15" d="M133.608 186.286L129.997 189.221C131.219 188.194 132.488 187.231 133.792 186.32C133.731 186.309 133.669 186.297 133.608 186.286Z" fill="#F2F2F2"/>
<path id="Vector_16" d="M658.969 334.348C655.337 329.926 651.409 325.296 645.975 323.5L640.902 323.7C679.52 391.939 731.676 451.566 794.169 498.92C749.103 444.063 704.036 389.205 658.969 334.348Z" fill="#F2F2F2"/>
<path id="Vector_17" d="M357.801 322.24C352.961 406.04 334.111 489.16 286.081 540H63.5906C63.5706 540.02 63.5606 540.04 63.5406 540.06C63.4906 540.13 63.4406 540.2 63.3806 540.28L63.0006 540H42.0906L42.3606 539.12C45.9952 537.825 49.5199 536.24 52.9006 534.38C54.1306 533.69 55.2906 532.99 56.3806 532.26C58.8025 530.674 61.0663 528.859 63.1406 526.84C65.5276 524.495 67.6259 521.873 69.3906 519.03C72.7306 513.71 74.8006 507.98 76.8206 502.14C77.6106 499.85 78.4006 497.54 79.2506 495.23C83.7706 482.97 90.1706 470.72 109.511 461.05C167.891 431.86 211.191 339.19 237.031 247.55C237.691 245.2 238.341 242.85 238.981 240.5C241.131 232.61 243.147 224.757 245.031 216.94C245.411 215.41 245.771 213.88 246.131 212.35C253.075 183.26 258.318 153.79 261.831 124.09C264.281 102.5 265.231 83.47 264.621 68.5C264.45 61.2249 263.569 53.9839 261.991 46.88L335.671 43.77C335.671 43.77 336.791 48.99 338.551 58.42C340.331 68 342.771 81.93 345.341 99.13C347.031 110.37 348.771 123.02 350.431 136.75C350.541 137.7 350.651 138.66 350.761 139.62C351.441 145.32 352.101 151.22 352.731 157.27C355.311 181.88 357.451 209.16 358.481 237.69C358.611 241.16 358.721 244.647 358.811 248.15C359.451 272.36 359.241 297.33 357.801 322.24Z" fill="#2F2E41"/>
<path id="Vector_18" d="M580.211 145.29C580.121 145.1 580.021 144.91 579.911 144.72C575.857 137.104 569.734 130.789 562.246 126.503C554.758 122.218 546.211 120.137 537.591 120.5C533.55 120.693 529.514 120.032 525.745 118.561C521.977 117.089 518.561 114.84 515.721 111.96L515.321 111.55C511.602 107.799 507.438 104.518 502.921 101.78L502.581 101.57L502.301 101.87C499.689 104.645 496.728 107.069 493.491 109.08C493.861 108.66 494.201 108.23 494.541 107.78C494.542 107.78 494.543 107.78 494.545 107.779C494.546 107.779 494.547 107.778 494.548 107.777C494.549 107.776 494.549 107.775 494.55 107.774C494.55 107.773 494.551 107.771 494.551 107.77C496.338 105.406 497.82 102.826 498.961 100.09L499.141 99.66L498.781 99.4801L498.721 99.4501C486.641 93.3069 472.931 91.1345 459.544 93.2426C446.157 95.3507 433.777 101.632 424.171 111.19C422.901 112.45 421.681 113.76 420.541 115.1C419.901 115.85 419.271 116.61 418.671 117.39C412.647 125.12 408.483 134.133 406.501 143.73V143.74C406.381 144.3 406.271 144.85 406.171 145.41C404.302 155.616 404.927 166.122 407.994 176.035C411.06 185.947 416.476 194.972 423.781 202.34C425.261 203.83 426.821 205.26 428.431 206.6C429.601 207.58 430.811 208.51 432.041 209.39C443.569 217.554 453.792 227.42 462.361 238.65C465.934 243.377 469.165 248.353 472.031 253.54C474.096 257.272 476.667 260.701 479.671 263.73C480.191 264.24 480.731 264.76 481.291 265.27L481.931 265.87L482.111 265.01C482.381 263.716 482.574 262.407 482.691 261.09V261.08C482.81 259.797 482.84 258.507 482.781 257.22C483.723 259.813 484.41 262.493 484.831 265.22V265.23C484.991 266.24 485.111 267.24 485.201 268.27L485.221 268.49L485.411 268.63C485.991 269.05 486.581 269.45 487.181 269.83C493.687 274.075 501.171 276.584 508.921 277.12C509.981 277.2 511.061 277.24 512.131 277.24C513.251 277.24 514.371 277.2 515.491 277.12C527.097 276.262 537.938 271.004 545.798 262.421C553.658 253.838 557.944 242.577 557.781 230.94C557.803 224.967 559.018 219.058 561.355 213.561C563.692 208.064 567.104 203.09 571.391 198.93C571.441 198.87 571.501 198.81 571.561 198.75L571.721 198.59C577.467 192.898 581.597 185.782 583.691 177.97L583.851 177.36L583.491 177.35H583.221C581.689 177.322 580.16 177.208 578.641 177.01C575.283 176.603 571.985 175.808 568.811 174.64C573.481 174.9 578.571 173.94 584.631 171.7L584.921 171.59L584.951 171.29C585.979 162.345 584.33 153.296 580.211 145.29V145.29Z" fill="#3F3D56"/>
<path id="Vector_19" opacity="0.15" d="M551.716 248.833C551.732 250.481 551.659 252.128 551.497 253.768C555.533 246.676 557.618 238.641 557.54 230.481C557.526 229.232 557.582 227.984 557.683 226.739C553.751 233.436 551.69 241.067 551.716 248.833V248.833Z" fill="black"/>
<path id="Vector_20" opacity="0.15" d="M562.746 192.535C566.463 193.887 570.343 194.737 574.284 195.062C575.694 193.383 576.981 191.605 578.136 189.741C572.27 191.874 567.304 192.786 562.746 192.535Z" fill="black"/>
<path id="Vector_21" opacity="0.15" d="M578.567 176.554C579.207 180.473 579.336 184.457 578.952 188.409C580.918 184.988 582.431 181.326 583.451 177.514L583.616 176.9L582.98 176.888C581.505 176.851 580.032 176.739 578.567 176.554V176.554Z" fill="black"/>
<path id="Vector_22" opacity="0.15" d="M497.391 0C494.959 18.0139 488.109 35.1467 477.452 49.8724C466.795 64.5981 452.662 76.4595 436.311 84.4L435.811 84.64L435.311 84.42C426.934 80.7897 418.12 78.2652 409.091 76.91C414.757 79.6822 420.052 83.1561 424.851 87.25L426.481 88.61L424.481 89.3C422.751 89.9 421.021 90.46 419.341 90.95C409.478 93.8701 399.256 95.4015 388.971 95.5C374.358 95.6457 359.776 96.859 345.341 99.13C316.529 103.746 288.45 112.138 261.831 124.09C257.711 125.91 253.597 127.82 249.491 129.82C241.632 133.641 233.471 136.805 225.091 139.28C210.86 143.485 196.099 145.623 181.261 145.63C180.341 145.63 179.411 145.62 178.481 145.6C178.141 145.6 177.801 145.59 177.451 145.58C176.561 145.56 175.661 145.53 174.761 145.49C173.791 145.45 172.821 145.4 171.851 145.34C170.841 145.28 169.821 145.21 168.811 145.13C168.121 145.07 167.441 145.01 166.751 144.94C166.191 144.89 165.641 144.84 165.091 144.78C164.391 144.71 163.691 144.63 162.991 144.54C162.681 144.5 162.371 144.46 162.061 144.43C161.271 144.33 160.481 144.22 159.691 144.11L159.271 144.05C158.351 143.92 157.431 143.78 156.521 143.63C156.351 143.6 156.181 143.57 156.001 143.54C155.251 143.42 154.511 143.29 153.761 143.15C151.831 142.8 149.921 142.42 148.011 142C147.541 141.9 147.071 141.79 146.611 141.68C145.831 141.5 145.051 141.32 144.271 141.13C143.311 140.89 142.351 140.65 141.401 140.39C139.301 139.83 137.201 139.22 135.121 138.57C134.321 138.33 133.521 138.07 132.731 137.81C132.431 137.71 132.131 137.6 131.821 137.5C131.231 137.31 130.641 137.11 130.051 136.89C129.001 136.53 127.951 136.15 126.911 135.76C126.281 135.52 125.641 135.28 125.011 135.03C124.381 134.79 123.741 134.53 123.111 134.28C121.861 133.77 120.601 133.25 119.361 132.7C118.741 132.43 118.121 132.16 117.501 131.88C116.881 131.6 116.261 131.32 115.651 131.03L114.121 130.31C113.921 130.21 113.731 130.12 113.531 130.02C113.011 129.77 112.501 129.52 111.981 129.26C110.781 128.67 109.591 128.05 108.401 127.42C107.191 126.78 105.991 126.12 104.791 125.45C103.611 124.78 102.441 124.1 101.281 123.4C100.691 123.05 100.111 122.7 99.5407 122.34C99.0407 122.03 98.5407 121.73 98.0507 121.41C97.9007 121.32 97.7507 121.22 97.6007 121.12C97.1007 120.81 96.6007 120.48 96.1007 120.16C94.8707 119.36 93.6607 118.54 92.4507 117.7C91.9807 117.37 91.5207 117.05 91.0507 116.72C89.9507 115.93 88.8507 115.13 87.7607 114.31C87.2207 113.9 86.6807 113.49 86.1407 113.08C85.6007 112.66 85.0707 112.24 84.5307 111.82C84.0007 111.4 83.4707 110.97 82.9407 110.54C81.3607 109.25 79.804 107.93 78.2707 106.58C77.7607 106.13 77.2507 105.68 76.7407 105.22C74.7207 103.39 72.7407 101.51 70.8207 99.57C70.3307 99.08 69.8607 98.59 69.3807 98.1C68.9007 97.61 68.4307 97.12 67.9607 96.62C67.4907 96.12 67.0207 95.62 66.5607 95.11C66.1007 94.61 65.6407 94.1 65.1807 93.59C99.5961 109.912 138.821 112.97 175.351 102.18C183.731 99.7062 191.893 96.5421 199.751 92.72C220.521 82.5243 242.251 74.4113 264.621 68.5C288.76 62.1331 313.588 58.7479 338.551 58.42C338.771 58.41 339.001 58.41 339.221 58.41C349.51 58.3032 359.734 56.7686 369.601 53.85C371.281 53.36 373.001 52.8 374.731 52.2L376.731 51.51L375.111 50.15C370.308 46.0559 365.01 42.582 359.341 39.81C368.373 41.1651 377.19 43.6896 385.571 47.32L386.071 47.54L386.571 47.3C407.529 37.1205 424.722 20.5612 435.681 0H497.391Z" fill="black"/>
<path id="Vector_23" opacity="0.15" d="M571.752 133.518C567.267 129.006 561.892 125.478 555.968 123.158C550.045 120.838 543.703 119.778 537.347 120.046C533.307 120.238 529.272 119.576 525.505 118.105C521.738 116.633 518.324 114.383 515.484 111.503L515.083 111.096C511.365 107.346 507.202 104.064 502.686 101.325L502.342 101.117L502.066 101.41C499.454 104.186 496.491 106.609 493.253 108.618C495.535 105.928 497.379 102.895 498.717 99.6311L498.901 99.2024L498.485 98.9911C489.428 94.3948 479.414 92.0048 469.258 92.0159C459.102 92.027 449.092 94.439 440.046 99.0551C431 103.671 423.173 110.361 417.204 118.577C411.235 126.794 407.294 136.306 405.701 146.336C409.468 138.687 414.716 131.862 421.14 126.256C427.564 120.65 435.037 116.375 443.125 113.678C451.214 110.982 459.757 109.917 468.26 110.546C476.763 111.175 485.057 113.485 492.661 117.343L493.077 117.554L492.893 117.983C491.555 121.247 489.711 124.279 487.429 126.969C490.667 124.961 493.63 122.537 496.242 119.762L496.518 119.469L496.862 119.677C501.378 122.416 505.541 125.697 509.259 129.448L509.66 129.855C512.5 132.735 515.914 134.984 519.681 136.456C523.448 137.928 527.483 138.59 531.523 138.397C542.089 137.943 552.486 141.168 560.94 147.522C569.394 153.876 575.383 162.965 577.885 173.241C580.092 172.708 582.264 172.039 584.389 171.239L584.677 171.133L584.711 170.828C585.493 164.035 584.733 157.153 582.49 150.694C580.246 144.235 576.576 138.364 571.752 133.518V133.518Z" fill="black"/>
<path id="Vector_24" d="M354.014 251.007L455.686 190.329L469.504 232.938L301.666 367.121L354.014 251.007Z" fill="#2F2E41"/>
<path id="Vector_25" d="M26.0507 0C26.7978 11.5557 28.827 22.9926 32.1007 34.1C38.5667 56.143 49.8677 76.4664 65.1806 93.59C65.6406 94.1 66.1007 94.61 66.5607 95.11C67.0207 95.62 67.4906 96.12 67.9606 96.62C68.4306 97.12 68.9007 97.61 69.3807 98.1C69.8607 98.59 70.3307 99.08 70.8207 99.57C72.7407 101.51 74.7206 103.39 76.7406 105.22C77.2506 105.68 77.7607 106.13 78.2707 106.58C79.8007 107.94 81.3507 109.26 82.9407 110.54C83.4707 110.97 84.0007 111.4 84.5307 111.82C85.0707 112.24 85.6007 112.66 86.1407 113.08C86.6807 113.49 87.2207 113.9 87.7607 114.31C88.8507 115.13 89.9507 115.93 91.0507 116.72C91.5207 117.05 91.9807 117.37 92.4507 117.7C93.6607 118.54 94.8707 119.36 96.1007 120.16C96.6007 120.48 97.1007 120.81 97.6007 121.12C97.7507 121.22 97.9007 121.32 98.0507 121.41C98.5407 121.73 99.0407 122.03 99.5407 122.34C100.111 122.7 100.691 123.05 101.281 123.4C102.441 124.1 103.611 124.78 104.791 125.45C105.991 126.12 107.191 126.78 108.401 127.42C109.591 128.05 110.781 128.67 111.981 129.26C112.501 129.52 113.011 129.77 113.531 130.02C113.731 130.12 113.921 130.21 114.121 130.31L115.651 131.03C116.261 131.32 116.881 131.6 117.501 131.88C118.121 132.16 118.741 132.43 119.361 132.7C120.601 133.25 121.861 133.77 123.111 134.28C123.741 134.53 124.381 134.79 125.011 135.03C125.641 135.28 126.281 135.52 126.911 135.76C127.951 136.15 129.001 136.53 130.051 136.89C130.641 137.11 131.231 137.31 131.821 137.5C132.131 137.6 132.431 137.71 132.731 137.81C133.521 138.07 134.321 138.33 135.121 138.57C137.201 139.22 139.301 139.83 141.401 140.39C142.351 140.65 143.311 140.89 144.271 141.13C145.051 141.32 145.831 141.5 146.611 141.68C147.071 141.79 147.541 141.9 148.011 142C149.921 142.42 151.831 142.8 153.761 143.15C154.511 143.29 155.251 143.42 156.001 143.54C156.181 143.57 156.351 143.6 156.521 143.63C157.431 143.78 158.351 143.92 159.271 144.05L159.691 144.11C160.481 144.22 161.271 144.33 162.061 144.43C162.371 144.46 162.681 144.5 162.991 144.54C163.691 144.63 164.391 144.71 165.091 144.78C165.641 144.84 166.191 144.89 166.751 144.94C167.441 145.01 168.121 145.07 168.811 145.13C169.821 145.21 170.841 145.28 171.851 145.34C172.821 145.4 173.791 145.45 174.761 145.49C175.661 145.53 176.561 145.56 177.451 145.58C177.801 145.59 178.141 145.6 178.481 145.6C179.411 145.62 180.341 145.63 181.261 145.63C196.099 145.623 210.86 143.485 225.091 139.28C233.471 136.805 241.632 133.641 249.491 129.82C253.601 127.82 257.714 125.91 261.831 124.09C288.45 112.138 316.529 103.746 345.341 99.13C359.776 96.859 374.358 95.6457 388.971 95.5C399.256 95.4015 409.478 93.8701 419.341 90.95C421.021 90.46 422.751 89.9 424.481 89.3L426.481 88.61L424.851 87.25C420.052 83.1561 414.757 79.6822 409.091 76.91C418.12 78.2652 426.934 80.7897 435.311 84.42L435.811 84.64L436.311 84.4C452.662 76.4595 466.795 64.5981 477.452 49.8724C488.109 35.1467 494.959 18.0139 497.391 0H26.0507Z" fill="#3F3D56"/>
<g id="woman">
<path id="face" d="M439.952 324.54C446.621 324.54 452.027 319.134 452.027 312.465C452.027 305.797 446.621 300.391 439.952 300.391C433.283 300.391 427.877 305.797 427.877 312.465C427.877 319.134 433.283 324.54 439.952 324.54Z" fill="#FFB8B8"/>
<path id="hair" d="M379.375 359.812C381.635 356.166 384.478 352.916 387.789 350.188C384.811 353.661 382.781 357.844 381.894 362.332C382.683 363.006 383.523 363.619 384.406 364.165C387.063 365.777 389.984 366.908 393.034 367.505C395.514 362.238 399.13 357.586 403.623 353.884C400.184 357.897 398.017 362.843 397.397 368.091C400.867 368.307 404.35 368.089 407.765 367.44C412.889 366.492 417.994 364.696 421.947 361.305C426.224 357.636 428.854 352.342 430.263 346.884C431.672 341.431 431.962 335.756 432.241 330.129C432.377 327.448 435.032 324.736 435.167 322.055L434.994 322.029C433.975 320.321 433.251 318.453 432.852 316.505C432.665 315.528 432.723 314.52 433.022 313.571C433.321 312.622 433.851 311.763 434.564 311.07C435.405 310.406 436.406 309.976 437.466 309.821C437.579 309.714 437.701 309.612 437.826 309.511C440.099 307.721 442.666 306.34 445.412 305.428C443.605 306.324 442.1 307.729 441.083 309.471C442.73 309.359 444.376 309.248 446.022 309.138C446.64 308.653 447.281 308.199 447.944 307.778C448.706 307.329 449.5 306.937 450.32 306.605C449.391 307.205 448.617 308.019 448.066 308.979C450.192 308.769 452.357 308.3 453.686 306.697C455.889 304.045 454.376 299.798 451.704 297.618C449.751 296.094 447.368 295.222 444.893 295.126C442.417 295.03 439.974 295.715 437.909 297.083C434.135 293.326 428.088 292.475 423.022 294.104C419.667 295.249 416.635 297.182 414.181 299.74C415.379 299.765 416.574 299.859 417.761 300.023C416.057 300.018 414.374 300.409 412.847 301.166C412.093 302.025 411.385 302.923 410.726 303.856C410.294 304.469 409.879 305.093 409.481 305.729C407.15 309.666 405.095 313.76 403.331 317.981C401.144 322.836 398.847 327.709 395.492 331.845C390.356 338.127 383.108 342.325 375.103 343.654C373.609 349.291 375.569 355.315 379.375 359.812Z" fill="#2F2E41"/>
<g id="handLeft">
<path id="hand" d="M475.311 368.469C474.995 369.077 474.55 369.608 474.007 370.025C473.464 370.442 472.835 370.735 472.167 370.883C471.498 371.031 470.805 371.031 470.136 370.882C469.468 370.734 468.84 370.44 468.297 370.023L454.381 379.161L454.397 370.51L467.61 363.158C468.372 362.292 469.425 361.736 470.57 361.595C471.714 361.454 472.871 361.738 473.82 362.393C474.769 363.048 475.445 364.028 475.72 365.148C475.995 366.268 475.85 367.45 475.311 368.469V368.469Z" fill="#FFB8B8"/>
<path id="arm" d="M425.255 335.191C425.255 335.191 419.545 343.103 419.715 352.371C419.885 361.639 427.767 392.236 431.669 392.165C435.572 392.093 466.478 374.446 466.478 374.446L461.935 366.234L439.675 376.403C439.675 376.403 441.769 330.984 425.255 335.191Z" fill="#6C63FF"/>
</g>
<path id="body" d="M415.236 367.793L414 384.396L410.696 396.906L439.403 399.542L447.955 372.113L444.818 364.69L415.236 367.793Z" fill="#FFB8B8"/>
<path id="Vector_26" d="M448.331 339.751L445.96 337.542L444.781 330.365L431.759 326.201L426.169 331.071L416.47 333.663L412.692 351.982L409.196 374.686L444.475 384.323L450.844 368.773C450.844 368.773 461.966 358.998 454.069 350.362L448.331 339.751Z" fill="#6C63FF"/>
<path id="Vector_27" d="M437.936 297.419C436.184 299.323 434.895 301.605 434.168 304.088C433.442 306.571 433.299 309.188 433.75 311.736L437.936 297.419Z" fill="#FD6584"/>
<path id="Vector_28" d="M436.287 474.599L435.595 475.423L435.97 475.548L436.287 474.599Z" fill="#2F2E41"/>
<g id="legRight">
<path id="Vector_29" d="M470.093 490L476.869 489.578L477 476L467 476.623L470.093 490Z" fill="#FFB8B8"/>
<path id="Vector_30" d="M468.919 483.988L475.734 483.135L476.803 483L477.068 487.105L486.587 492.798C487.057 493.079 487.426 493.503 487.638 494.009C487.851 494.514 487.896 495.074 487.768 495.607C487.639 496.141 487.344 496.619 486.924 496.972C486.505 497.325 485.983 497.534 485.436 497.57L474.029 498.313L471.8 494.381L471.297 498.491L467 498.771L467.262 484.198L468.919 483.988Z" fill="#2F2E41"/>
<path id="Vector_31" d="M404.677 402.641C404.822 402.414 404.984 402.188 405.147 401.97C406.415 400.336 407.775 398.77 409.221 397.28C410.854 395.579 412.984 387.021 413.012 387L438.057 395.807L441.988 395.698L439.263 402.742L439.261 402.746L442.598 408.749L442.632 408.755L453.379 410.792L464.454 412.892L470.403 414.022C471.782 414.282 473.094 414.805 474.262 415.561C475.43 416.316 476.431 417.289 477.207 418.422C478.019 419.598 478.581 420.918 478.86 422.306C479.139 423.693 479.129 425.121 478.832 426.505C478.775 426.786 478.703 427.072 478.62 427.349L479.742 441.418C480.415 449.833 479.77 458.297 477.831 466.526L477.564 480L476.984 479.869L468.364 477.919L466.087 477.406L463.596 468.97C463.312 468.009 463.065 467.033 462.859 466.05C462.518 464.442 462.282 462.815 462.154 461.178L459.997 433.574C459.137 433.446 458.288 433.314 457.449 433.179C453.563 432.566 449.861 431.894 446.344 431.163C436.287 429.231 426.498 426.17 417.175 422.044C414.885 420.991 412.705 419.875 410.636 418.697C409.876 418.267 409.132 417.828 408.402 417.38C408.229 417.277 408.061 417.175 407.893 417.07C406.388 416.127 405.152 414.834 404.297 413.309C403.442 411.784 402.996 410.077 403 408.342C402.986 406.326 403.568 404.348 404.677 402.641Z" fill="#2F2E41"/>
</g>
<g id="legLeft">
<path id="Vector_32" d="M433.273 482.802C433.585 483.181 433.898 483.556 434.216 483.932C434.847 484.684 435.489 485.43 436.133 486.169C436.458 486.539 436.786 486.91 437.111 487.276L437.107 487.288L437.13 487.3L437.137 487.306L437.7 487.663L439.36 485.628L440.125 484.691L441.207 483.364L443.188 480.935L453.621 468.15L445.712 463.145L444.948 464.357L444.944 464.356L444.566 464.957L437.476 476.163L436.028 478.455L435.983 478.524L435.113 479.892L434.363 481.077L433.525 482.403L433.273 482.802Z" fill="#FFB8B8"/>
<path id="Vector_33" d="M399.027 414.225C399.281 415.285 399.547 416.345 399.821 417.398C400.327 419.359 400.87 421.305 401.449 423.236C401.447 423.24 401.451 423.241 401.454 423.246C401.897 424.056 402.434 424.811 403.052 425.496C403.076 425.53 403.107 425.558 403.132 425.589C403.59 426.087 404.107 426.526 404.672 426.897C404.877 427.028 405.086 427.159 405.29 427.29C406.032 427.75 406.775 428.18 407.521 428.589C408.849 429.312 410.187 429.96 411.535 430.533C411.643 430.582 411.752 430.627 411.861 430.673C417.483 432.886 423.373 434.345 429.378 435.012C432.422 435.426 435.563 435.752 438.815 436.089C439.879 436.196 440.945 436.309 442.024 436.425C442.105 436.434 442.191 436.441 442.276 436.452C443.817 436.616 445.381 436.793 446.979 436.985C448.991 437.227 451.058 437.501 453.195 437.82L452.102 440.616C451.252 442.763 450.077 444.768 448.618 446.559C447.562 447.721 446.751 449.085 446.236 450.568C445.721 452.052 445.511 453.624 445.62 455.191L445.642 457.433C444.949 458.311 444.469 459.338 444.239 460.432C444.01 461.527 444.037 462.66 444.319 463.743L444.388 464.001L433.711 476.709L433.019 477.533L435.982 478.523L439.626 479.745L445.804 481.808L460.692 466.902L461.403 466.191L461.418 466.147L471.976 431.472C472.065 431.164 472.144 430.849 472.205 430.533C472.503 429.101 472.513 427.623 472.234 426.188C471.954 424.752 471.392 423.386 470.579 422.169C469.802 420.997 468.801 419.991 467.632 419.209C466.463 418.427 465.15 417.886 463.77 417.616L460.587 416.992L454.084 415.715L449.502 414.819L449.41 414.802L435.901 412.151L436.237 408.052L436.087 407.931L431.302 404.111L414.754 390.901L414.711 390.869L413.623 390L413.395 390.19C413.327 390.247 413.26 390.304 413.196 390.363C411.236 392.151 409.463 394.135 407.906 396.283C405.327 399.781 402.948 403.423 400.783 407.191C400.688 407.354 400.603 407.503 400.527 407.637L400.501 407.677C400.466 407.741 400.444 407.782 400.436 407.793C399.363 409.759 398.875 411.991 399.027 414.225V414.225Z" fill="#2F2E41"/>
<path id="Vector_34" d="M435.372 478.545L440.815 482.734L441.67 483.39L438.97 486.493L441.728 497.236C441.864 497.767 441.828 498.328 441.623 498.837C441.419 499.345 441.057 499.775 440.59 500.064C440.124 500.352 439.577 500.484 439.031 500.439C438.484 500.395 437.966 500.177 437.553 499.817L428.924 492.319L430.107 487.957L426.857 490.523L423.607 487.699L434.047 477.527L435.372 478.545Z" fill="#2F2E41"/>
</g>
<g id="handRight">
<path id="hand_2" d="M390.225 323.348C390.621 323.907 390.89 324.546 391.012 325.22C391.135 325.894 391.108 326.586 390.933 327.248C390.759 327.911 390.442 328.527 390.004 329.053C389.565 329.58 389.017 330.004 388.398 330.296L390.157 346.851L382.471 342.878L381.979 327.766C381.558 326.692 381.546 325.502 381.944 324.419C382.342 323.337 383.123 322.439 384.14 321.894C385.156 321.35 386.337 321.197 387.459 321.465C388.58 321.733 389.565 322.403 390.225 323.348V323.348Z" fill="#FFB8B8"/>
<path id="arm_2" d="M427.791 345.04C426.75 347.028 425.452 348.871 423.931 350.52C419.551 355.2 405.631 364.98 396.511 369.7C392.421 371.81 389.512 372.581 388.411 372.08C383.155 369.687 378.409 330.33 381.381 330L389.381 337V339L393.011 355.02C393.011 355.02 393.821 354.04 395.201 352.47C399.701 347.38 407.351 337.98 416.381 334C419.211 339.19 427.241 344.42 427.241 344.42C427.241 344.42 427.451 344.64 427.791 345.04Z" fill="#6C63FF"/>
</g>
<g id="swing">
<path id="Vector_35" d="M432.393 441.695L403.902 225.11C403.705 223.582 403.204 222.109 402.428 220.778C401.653 219.447 400.62 218.284 399.389 217.357L401.2 214.967C402.749 216.132 404.049 217.595 405.023 219.269C405.998 220.944 406.628 222.797 406.876 224.719L435.368 441.305L432.393 441.695Z" fill="#3F3D56"/>
<path id="chair" d="M452.721 429.88C451.884 429.308 450.894 429.002 449.881 429H388.881C387.555 429 386.283 429.527 385.345 430.464C384.407 431.402 383.881 432.674 383.881 434C383.881 435.326 384.407 436.598 385.345 437.536C386.283 438.473 387.555 439 388.881 439H449.881C450.936 438.998 451.964 438.664 452.819 438.045C453.673 437.425 454.311 436.552 454.641 435.55C454.797 435.048 454.878 434.526 454.881 434C454.88 433.19 454.683 432.392 454.307 431.675C453.93 430.957 453.386 430.342 452.721 429.88Z" fill="#6C63FF"/>
<path id="Vector_36" d="M433.881 442H406.066L405.894 440.696L377.857 228.553C377.479 225.69 377.956 222.78 379.228 220.188C380.499 217.596 382.509 215.439 385.005 213.986C387.5 212.534 390.369 211.852 393.251 212.027C396.133 212.201 398.899 213.224 401.2 214.967L399.389 217.357C397.559 215.972 395.36 215.159 393.069 215.021C390.778 214.882 388.497 215.425 386.513 216.579C384.529 217.734 382.931 219.45 381.92 221.51C380.91 223.571 380.531 225.885 380.831 228.16L408.696 439H433.881V442Z" fill="#3F3D56"/>
</g>
</g>
<g id="sun">
<path id="Vector_37" d="M723.122 145.584C737.869 145.584 749.823 133.63 749.823 118.883C749.823 104.137 737.869 92.1825 723.122 92.1825C708.376 92.1825 696.422 104.137 696.422 118.883C696.422 133.63 708.376 145.584 723.122 145.584Z" fill="#FD6584"/>
</g>
<g id="cloud">
<path id="Vector_38" d="M782.881 106.24C782.128 103.771 780.669 101.576 778.684 99.9253C776.7 98.2747 774.276 97.2405 771.711 96.95C771.651 96.945 771.591 96.945 771.531 96.95C771.459 96.9275 771.385 96.9108 771.311 96.9C762.371 95.74 752.431 98.56 745.741 104.7C743.257 106.943 741.271 109.682 739.911 112.74C738.671 111.046 737.036 109.68 735.149 108.76C733.262 107.84 731.179 107.394 729.081 107.46C726.374 107.639 723.789 108.648 721.678 110.35C719.566 112.052 718.031 114.364 717.281 116.97C717.198 117.288 717.221 117.625 717.345 117.93C717.47 118.234 717.689 118.49 717.971 118.66C718.775 119.348 719.731 119.835 720.761 120.08C722.971 120.55 725.201 120.98 727.431 121.37C731.791 122.13 736.174 122.747 740.581 123.22C743.491 123.53 746.407 123.777 749.331 123.96C755.371 124.34 761.441 124.43 767.491 124.24C770.491 124.14 773.371 124.04 776.111 122.72C778.107 121.738 779.813 120.253 781.061 118.41C782.235 116.638 783.006 114.63 783.321 112.527C783.635 110.424 783.485 108.278 782.881 106.24V106.24Z" fill="#E6E6E6"/>
<path id="Vector_39" d="M727.951 145.14C727.9 144.021 727.712 142.913 727.391 141.84C726.634 139.371 725.173 137.177 723.187 135.527C721.201 133.876 718.776 132.842 716.211 132.55C716.154 132.545 716.097 132.545 716.041 132.55C715.965 132.529 715.888 132.512 715.811 132.5C710.863 131.894 705.842 132.41 701.121 134.01C693.861 136.44 687.491 141.34 684.421 148.34C683.179 146.645 681.543 145.278 679.654 144.358C677.765 143.438 675.681 142.993 673.581 143.06C670.874 143.239 668.289 144.248 666.178 145.95C664.066 147.652 662.53 149.964 661.781 152.57C661.703 152.888 661.728 153.223 661.852 153.527C661.976 153.83 662.192 154.087 662.471 154.26C663.276 154.946 664.232 155.432 665.261 155.68C667.481 156.15 669.701 156.58 671.941 156.97C676.301 157.73 680.681 158.347 685.081 158.82C694.02 159.78 703.015 160.12 712.001 159.84C714.991 159.74 717.881 159.64 720.621 158.32C722.614 157.338 724.317 155.852 725.561 154.01C727.314 151.398 728.154 148.279 727.951 145.14V145.14Z" fill="#E6E6E6"/>
</g>
<g id="Bird">
<path id="Vector_40" d="M737.863 210.386C737.544 211.777 737.768 213.238 738.488 214.47C738.91 215.096 739.528 215.565 740.245 215.802C740.962 216.039 741.738 216.032 742.45 215.78C745.247 214.912 748.006 213.895 750.779 212.953C751.158 212.839 751.478 212.584 751.673 212.24C751.868 211.896 751.923 211.491 751.827 211.107C751.718 210.726 751.464 210.402 751.119 210.206C750.774 210.011 750.365 209.958 749.982 210.06L743.052 212.415C742.529 212.592 742.009 212.794 741.476 212.94C741.42 212.955 741.217 213 741.228 212.999C741.253 212.997 741.411 213.014 741.236 213.001C741.136 212.971 741.137 212.978 741.238 213.021L741.105 212.946C741.226 213.046 741.091 212.932 741.049 212.89C741.012 212.853 740.904 212.704 740.988 212.826C740.928 212.739 740.875 212.647 740.831 212.551C740.904 212.713 740.766 212.312 740.757 212.256C740.701 211.631 740.736 211.001 740.863 210.386C740.861 209.988 740.702 209.608 740.422 209.327C740.141 209.046 739.76 208.888 739.363 208.886C738.968 208.895 738.592 209.057 738.313 209.336C738.034 209.615 737.873 209.991 737.863 210.386V210.386Z" fill="#3F3D56"/>
<path id="Vector_41" d="M626.182 215.653L633.575 224.975C634.515 226.161 636.532 224.877 636.082 223.516C635.16 220.731 638.341 219.18 640.537 218.721C643.45 218.113 646.373 218.212 649.138 216.96C650.894 216.164 649.37 213.578 647.624 214.369C644.39 215.834 640.619 215.163 637.345 216.587C634.418 217.861 632.104 221.036 633.189 224.313L635.696 222.854L628.303 213.531C628.02 213.253 627.639 213.096 627.242 213.096C626.845 213.096 626.464 213.253 626.181 213.531C625.908 213.817 625.756 214.197 625.756 214.592C625.756 214.987 625.908 215.367 626.181 215.653L626.182 215.653Z" fill="#3F3D56"/>
<path id="Vector_42" d="M611.182 106.653L618.575 115.975C619.515 117.161 621.532 115.877 621.082 114.516C620.16 111.731 623.341 110.18 625.537 109.721C628.45 109.113 631.373 109.212 634.138 107.96C635.894 107.164 634.37 104.578 632.624 105.369C629.39 106.834 625.619 106.163 622.345 107.587C619.418 108.861 617.104 112.036 618.189 115.313L620.696 113.854L613.303 104.531C613.02 104.253 612.639 104.096 612.242 104.096C611.845 104.096 611.464 104.253 611.181 104.531C610.908 104.817 610.756 105.197 610.756 105.592C610.756 105.987 610.908 106.367 611.181 106.653L611.182 106.653Z" fill="#3F3D56"/>
</g>
</g>
<defs>
<clipPath id="clip0_37_2">
<rect width="834.976" height="540.81" fill="white"/>
</clipPath>
</defs>
</svg>
