<svg width="821" height="648" viewBox="0 0 821 648" fill="none" xmlns="http://www.w3.org/2000/svg">
<g id="undraw_window_shopping_re_0kbm 1" clip-path="url(#clip0_38_2)">
<path id="Vector" d="M799.298 299.869C806.477 299.869 812.298 294.049 812.298 286.869C812.298 279.69 806.477 273.869 799.298 273.869C792.118 273.869 786.298 279.69 786.298 286.869C786.298 294.049 792.118 299.869 799.298 299.869Z" fill="#F2F2F2"/>
<g id="Group 1">
<path id="hand" d="M197.752 303.071C196.693 303.813 195.485 304.314 194.212 304.538C192.939 304.763 191.632 304.706 190.384 304.371C189.135 304.035 187.975 303.431 186.986 302.599C185.996 301.767 185.201 300.728 184.657 299.556L153.394 302.721L160.964 288.253L189.491 287.466C191.522 286.681 193.769 286.669 195.808 287.431C197.846 288.192 199.535 289.676 200.553 291.599C201.571 293.523 201.848 295.753 201.332 297.867C200.816 299.982 199.542 301.833 197.752 303.071V303.071Z" fill="#FFB6B6"/>
<path id="arm" d="M107.541 317.31L38.6545 288.764C33.1966 286.495 28.8616 282.154 26.6004 276.693C24.3393 271.232 24.3369 265.098 26.5936 259.635V259.635C27.8464 256.612 29.7494 253.902 32.1674 251.697C34.5855 249.492 37.4592 247.846 40.5847 246.877C43.7102 245.908 47.0108 245.638 50.2521 246.088C53.4934 246.538 56.596 247.695 59.3396 249.479L114.843 285.564L172.606 282.638L176.931 300.627L107.541 317.31Z" fill="#6C63FF"/>
</g>
<path id="Vector_2" d="M94.851 624.183H105.88L111.127 581.641L94.849 581.642L94.851 624.183Z" fill="#FFB6B6"/>
<path id="Vector_3" d="M91.1156 618.742L108.551 617.702V625.172L125.127 636.62C125.945 637.185 126.562 637.997 126.887 638.938C127.211 639.878 127.226 640.898 126.93 641.848C126.634 642.798 126.042 643.628 125.241 644.218C124.439 644.808 123.47 645.126 122.475 645.125H101.718L98.1404 637.737L96.7434 645.125H88.9172L91.1156 618.742Z" fill="#2F2E41"/>
<path id="Vector_4" d="M23.89 624.183H34.919L40.166 581.641L23.888 581.642L23.89 624.183Z" fill="#FFB6B6"/>
<path id="Vector_5" d="M20.1548 618.742L37.5899 617.702V625.172L54.1659 636.62C54.9847 637.185 55.6014 637.997 55.9258 638.938C56.2503 639.878 56.2656 640.898 55.9695 641.848C55.6734 642.798 55.0814 643.628 54.2799 644.218C53.4785 644.808 52.5095 645.126 51.5145 645.125H30.7574L27.1796 637.737L25.7826 645.125H17.9563L20.1548 618.742Z" fill="#2F2E41"/>
<path id="Vector_6" d="M79.6455 388.915L122.645 474.225C125.002 478.886 125.731 484.201 124.715 489.325C123.842 493.702 122.501 497.973 120.715 502.065L114.946 570.525L109.775 591.998L91.1755 593.585C91.1755 593.585 92.6155 575.585 87.5755 550.345C82.5355 525.105 91.1755 488.345 91.1755 488.345C91.1755 488.345 75.3255 462.405 57.3055 449.425C39.2855 436.445 79.6455 388.915 79.6455 388.915Z" fill="#2F2E41"/>
<path id="Vector_7" d="M33.5255 350.355C33.5255 350.355 24.6055 366.165 18.0155 374.675C11.9272 382.381 8.97989 392.105 9.76551 401.895C10.4055 408.895 12.8655 416.445 19.1155 422.425C19.1155 422.425 23.4355 433.235 21.2755 439.005V490.195C21.2755 490.195 9.70912 550.637 19.7991 568.657L24.1555 609.105C24.1555 609.105 39.4461 613.396 40.1661 606.196C40.1661 606.196 42.1655 590.375 42.9355 585.325L43.5155 533.595C43.6346 526.873 45.7205 520.334 49.5155 514.785C52.5155 510.375 55.5155 503.525 55.9155 493.785L79.6455 388.915L84.9284 352.281L33.5255 350.355Z" fill="#2F2E41"/>
<path id="Vector_8" d="M20.244 294.012L29.4675 340.13L9.26019 387.242L84.7505 358.142L85.7755 355.361L88.2728 345.889L85.3138 316.4C86.3532 314.235 101.148 300.566 85.6747 276.533L68.9598 237.3L37.6518 236.824L37.5218 236.954C30.1604 244.303 24.7307 253.358 21.7162 263.313C18.7017 273.268 18.1959 283.814 20.244 294.012V294.012Z" fill="#6C63FF"/>
<path id="Vector_9" d="M66.1547 429.563C65.1234 428.784 64.2755 427.788 63.6708 426.646C63.066 425.503 62.7192 424.242 62.6546 422.951C62.59 421.66 62.8093 420.37 63.297 419.173C63.7846 417.976 64.5289 416.9 65.4773 416.022L52.8621 387.242L68.956 390.003L78.4682 416.909C79.8383 418.6 80.5406 420.735 80.4418 422.909C80.3431 425.083 79.4501 427.146 77.9323 428.706C76.4145 430.265 74.3772 431.214 72.2065 431.372C70.0358 431.53 67.8826 430.887 66.1547 429.563Z" fill="#FFB6B6"/>
<path id="Vector_10" d="M24.8942 348.088L30.9003 273.763C31.3827 267.872 34.1823 262.413 38.6847 258.584C43.1871 254.755 49.0247 252.868 54.9165 253.338V253.338C58.1783 253.601 61.342 254.58 64.183 256.204C67.024 257.827 69.4728 260.057 71.3553 262.734C73.2378 265.41 74.5081 268.468 75.0757 271.691C75.6434 274.914 75.4947 278.222 74.6401 281.381L57.3487 345.286L77.8754 399.357L62.0854 408.999L24.8942 348.088Z" fill="#6C63FF"/>
<path id="Vector_11" d="M1.26868 239.194L77.6878 223.57C79.7922 216.55 83.8235 210.105 72.6938 199.143C70.9693 190.709 66.0393 183.273 58.9418 178.401C51.8442 173.528 43.1331 171.601 34.6425 173.023C17.1019 171.462 7.24793 183.928 7.29881 200.662L1.26868 239.194Z" fill="#2F2E41"/>
<path id="Vector_12" d="M45.8303 228.637C60.1767 228.637 71.8067 217.007 71.8067 202.661C71.8067 188.315 60.1767 176.685 45.8303 176.685C31.484 176.685 19.8539 188.315 19.8539 202.661C19.8539 217.007 31.484 228.637 45.8303 228.637Z" fill="#FFB8B8"/>
<path id="Vector_13" d="M26.2477 180.93C29.753 175.681 35.1908 172.03 41.3762 170.773L46.2749 169.772C52.5111 168.497 58.9983 169.751 64.3095 173.259C69.6207 176.767 73.3209 182.241 74.5959 188.478V188.478C71.0762 193.061 50.2067 196.535 37.7667 198.049C41.2504 210.619 54.6433 220.933 53.1945 228.577L4.20785 238.593L3.20629 233.694C-5.38817 213.027 6.60038 191.871 26.2477 180.93Z" fill="#2F2E41"/>
<path id="Vector_14" d="M1.05664 240.592L77.4758 224.968C79.5802 217.948 83.6114 211.503 72.4817 200.541C70.7573 192.107 65.8272 184.671 58.7297 179.799C51.6322 174.926 42.921 172.999 34.4305 174.421C16.8898 172.86 7.0359 185.326 7.08678 202.06L1.05664 240.592Z" fill="#2F2E41"/>
<path id="Vector_15" d="M45.6183 230.035C59.9647 230.035 71.5947 218.405 71.5947 204.059C71.5947 189.713 59.9647 178.083 45.6183 178.083C31.272 178.083 19.642 189.713 19.642 204.059C19.642 218.405 31.272 230.035 45.6183 230.035Z" fill="#FFB8B8"/>
<path id="Vector_16" d="M26.0357 182.328C29.541 177.079 34.9788 173.428 41.1642 172.171L46.0628 171.169C52.299 169.894 58.7863 171.149 64.0975 174.657C69.4087 178.165 73.1088 183.639 74.3838 189.876V189.876C70.8641 194.459 49.9947 197.933 37.5546 199.447C41.0384 212.017 54.4313 222.331 52.9824 229.975L3.99582 239.991L2.99425 235.092C-5.60021 214.425 6.38835 193.269 26.0357 182.328Z" fill="#2F2E41"/>
<path id="Vector_17" d="M403.612 427.8H205.479C199.989 427.793 194.726 425.61 190.844 421.728C186.963 417.846 184.779 412.583 184.773 407.094V148.505C184.779 143.016 186.963 137.753 190.845 133.871C194.726 129.989 199.989 127.806 205.479 127.8H403.612C409.102 127.806 414.365 129.989 418.247 133.871C422.128 137.753 424.312 143.016 424.318 148.505V407.094C424.312 412.583 422.128 417.846 418.247 421.728C414.365 425.61 409.102 427.793 403.612 427.8V427.8Z" fill="#F0F0F0"/>
<path id="borderCheck" d="M403.612 428.799H205.479C199.724 428.793 194.207 426.504 190.138 422.434C186.069 418.365 183.78 412.848 183.773 407.093V148.505C183.78 142.751 186.069 137.234 190.138 133.164C194.207 129.095 199.724 126.806 205.479 126.8H403.612C409.367 126.806 414.884 129.095 418.953 133.164C423.023 137.233 425.312 142.751 425.318 148.505V407.093C425.312 412.848 423.023 418.365 418.953 422.434C414.884 426.504 409.367 428.793 403.612 428.799V428.799ZM205.479 128.8C200.254 128.806 195.246 130.884 191.551 134.578C187.857 138.272 185.779 143.281 185.773 148.505V407.093C185.779 412.318 187.857 417.326 191.551 421.021C195.245 424.715 200.254 426.793 205.479 426.799H403.612C408.837 426.793 413.846 424.715 417.54 421.021C421.234 417.327 423.312 412.318 423.318 407.093V148.505C423.312 143.281 421.234 138.272 417.54 134.578C413.846 130.883 408.837 128.805 403.612 128.8H205.479Z" fill="#6C63FF"/>
<path id="pantsBorder" d="M725.494 427.8H527.361C521.871 427.793 516.608 425.61 512.726 421.728C508.844 417.846 506.661 412.583 506.655 407.094V148.505C506.661 143.016 508.844 137.753 512.726 133.871C516.608 129.989 521.871 127.806 527.361 127.8H725.494C730.984 127.806 736.247 129.989 740.128 133.871C744.01 137.753 746.193 143.016 746.2 148.505V407.094C746.194 412.583 744.01 417.846 740.128 421.728C736.247 425.61 730.984 427.793 725.494 427.8Z" fill="#F0F0F0"/>
<path id="heart" d="M736.795 123.096L736.775 123.114C734.858 121.165 732.265 120.027 729.533 119.937C726.801 119.847 724.139 120.812 722.098 122.631C720.058 124.45 718.795 126.985 718.573 129.709C718.35 132.434 719.184 135.14 720.901 137.267L720.881 137.285L735.07 153.199L750.984 139.01C753.094 137.128 754.37 134.486 754.532 131.663C754.694 128.84 753.728 126.069 751.846 123.959C749.965 121.848 747.322 120.572 744.499 120.41C741.677 120.248 738.905 121.215 736.795 123.096V123.096Z" fill="#D1D3D4"/>
<path id="Vector_18" d="M819.924 36.5525H135.601C135.336 36.5466 135.083 36.437 134.898 36.2473C134.712 36.0575 134.608 35.8026 134.608 35.5371C134.608 35.2717 134.712 35.0168 134.898 34.827C135.083 34.6372 135.336 34.5277 135.601 34.5218H819.924C820.19 34.5277 820.443 34.6372 820.628 34.827C820.814 35.0168 820.918 35.2717 820.918 35.5371C820.918 35.8026 820.814 36.0575 820.628 36.2473C820.443 36.437 820.19 36.5466 819.924 36.5525Z" fill="#CACACA"/>
<path id="Vector_19" d="M157.956 22.3376C163.99 22.3376 168.882 17.3372 168.882 11.1688C168.882 5.00045 163.99 0 157.956 0C151.922 0 147.031 5.00045 147.031 11.1688C147.031 17.3372 151.922 22.3376 157.956 22.3376Z" fill="#3F3D56"/>
<path id="Vector_20" d="M195.698 22.3376C201.732 22.3376 206.624 17.3372 206.624 11.1688C206.624 5.00045 201.732 0 195.698 0C189.664 0 184.773 5.00045 184.773 11.1688C184.773 17.3372 189.664 22.3376 195.698 22.3376Z" fill="#3F3D56"/>
<path id="Vector_21" d="M233.44 22.3376C239.474 22.3376 244.366 17.3372 244.366 11.1688C244.366 5.00045 239.474 0 233.44 0C227.407 0 222.515 5.00045 222.515 11.1688C222.515 17.3372 227.407 22.3376 233.44 22.3376Z" fill="#3F3D56"/>
<path id="Vector_22" d="M797.311 6.8316H770.495C769.964 6.81988 769.459 6.60078 769.087 6.22123C768.716 5.84168 768.508 5.33184 768.508 4.8009C768.508 4.26996 768.716 3.76013 769.087 3.38058C769.459 3.00102 769.964 2.78192 770.495 2.7702H797.311C797.842 2.78192 798.347 3.00102 798.719 3.38058C799.09 3.76013 799.298 4.26996 799.298 4.8009C799.298 5.33184 799.09 5.84168 798.719 6.22123C798.347 6.60078 797.842 6.81988 797.311 6.8316V6.8316Z" fill="#3F3D56"/>
<path id="Vector_23" d="M797.311 14.4467H770.495C769.964 14.435 769.459 14.2159 769.087 13.8363C768.716 13.4568 768.508 12.947 768.508 12.416C768.508 11.8851 768.716 11.3752 769.087 10.9957C769.459 10.6161 769.964 10.397 770.495 10.3853H797.311C797.842 10.397 798.347 10.6161 798.719 10.9957C799.09 11.3752 799.298 11.8851 799.298 12.416C799.298 12.947 799.09 13.4568 798.719 13.8363C798.347 14.2159 797.842 14.435 797.311 14.4467V14.4467Z" fill="#3F3D56"/>
<path id="Vector_24" d="M797.311 22.0618H770.495C769.964 22.0501 769.459 21.831 769.087 21.4514C768.716 21.0719 768.508 20.5621 768.508 20.0311C768.508 19.5002 768.716 18.9903 769.087 18.6108C769.459 18.2312 769.964 18.0121 770.495 18.0004H797.311C797.842 18.0121 798.347 18.2312 798.719 18.6108C799.09 18.9903 799.298 19.5002 799.298 20.0311C799.298 20.5621 799.09 21.0719 798.719 21.4514C798.347 21.831 797.842 22.0501 797.311 22.0618V22.0618Z" fill="#3F3D56"/>
<path id="Vector_25" d="M238.183 289.612C237.851 288.877 237.681 288.08 237.686 287.273C237.69 286.467 237.869 285.671 238.209 284.94L250.086 259.405C251.258 255.45 253.95 252.121 257.572 250.148C261.195 248.174 265.452 247.717 269.41 248.878C273.369 250.038 276.706 252.72 278.69 256.337C280.673 259.954 281.142 264.209 279.994 268.171L276.024 296.144C275.911 296.943 275.627 297.707 275.191 298.386C274.756 299.064 274.179 299.641 273.501 300.077C272.822 300.513 272.058 300.797 271.26 300.911C270.461 301.024 269.648 300.964 268.875 300.735L241.703 292.685C240.93 292.456 240.215 292.063 239.607 291.533C239 291.003 238.514 290.348 238.183 289.612V289.612Z" fill="#3F3D56"/>
<path id="Vector_26" d="M367.388 276.873L340.216 284.924C339.443 285.153 338.63 285.213 337.831 285.099C337.033 284.985 336.269 284.701 335.59 284.265C334.912 283.829 334.335 283.253 333.9 282.574C333.464 281.895 333.18 281.131 333.067 280.332L329.097 252.359C327.949 248.398 328.418 244.142 330.402 240.525C332.386 236.909 335.722 234.226 339.681 233.066C343.639 231.906 347.897 232.362 351.519 234.336C355.141 236.309 357.833 239.638 359.005 243.593L370.882 269.128C371.222 269.86 371.4 270.655 371.405 271.462C371.409 272.268 371.24 273.066 370.908 273.801C370.577 274.536 370.091 275.191 369.483 275.721C368.876 276.251 368.161 276.644 367.388 276.873V276.873Z" fill="#3F3D56"/>
<path id="Vector_27" d="M260.495 254.07L281.803 238.572L316.672 228.887L345.729 234.698L347.437 250.755C349.515 270.285 348.613 290.019 344.761 309.278L344.053 324.121L269.212 326.712L261.463 313.152C261.463 313.152 244.029 295.718 257.589 276.347L260.495 254.07Z" fill="#3F3D56"/>
<path id="Vector_28" d="M672.573 223.539V240.761L670.89 261.8C670.89 261.8 670.358 280.172 669.716 294.664C669.327 303.473 668.89 310.846 668.509 311.798C668.041 312.965 668.152 316.147 668.422 319.489C668.739 323.354 669.263 327.433 669.35 328.798C669.517 331.345 668.168 342.289 668.168 342.289C668.168 342.289 666.66 369.733 664.47 371.923C662.279 374.114 664.47 380.344 664.47 380.344C654.2 387.915 641.232 378.661 641.232 378.661C644.097 374.098 639.55 342.948 639.55 342.948C639.55 342.948 638.883 332.314 637.534 329.457C636.185 326.599 635.843 308.751 635.843 308.751V282.315C635.843 282.315 632.304 276.903 631.804 274.379C631.304 271.855 631.804 262.935 631.804 262.935L628.106 250.475L625.574 260.236C625.574 260.236 619.019 287.513 617.836 290.878C617.194 293.127 617.432 295.537 618.503 297.616C618.503 297.616 620.193 302.807 618.503 305.187C617.453 306.679 616.649 308.33 616.122 310.076C616.122 310.076 615.257 320.012 613.741 323.568C612.225 327.123 610.884 331.504 610.884 331.504C610.884 331.504 611.241 338.218 609.725 339.734C608.21 341.25 607.71 348.829 607.71 348.829C607.71 348.829 608.043 357.408 606.019 360.44C603.995 363.471 603.995 380.645 603.995 380.645C600.486 382.898 596.441 384.178 592.275 384.355C588.109 384.532 583.97 383.599 580.282 381.653C580.282 381.653 582.282 379.78 580.766 371.05C579.25 362.321 581.853 338.551 581.853 338.551C581.853 338.551 581.52 332.52 583.202 329.822C584.885 327.123 582.353 321.909 583.028 319.552C583.702 317.195 585.726 304.394 585.726 304.394C585.726 304.394 584.885 272.911 584.885 271.228C584.686 268.233 583.875 265.311 582.504 262.641C580.988 259.951 582.504 240.42 582.504 240.42C582.504 240.42 586.075 230.325 584.885 228.134C583.694 225.944 585.678 222.071 585.678 222.071C585.678 222.071 583.829 217.524 585.678 216.682C587.528 215.841 587.869 212.476 587.869 212.476L589.154 196.143C589.154 196.143 589.639 188.731 591.178 188.398C592.718 188.064 592.043 185.207 593.559 183.183C594.298 181.815 594.807 180.335 595.067 178.803C595.281 177.866 595.48 176.89 595.646 175.954C596.123 173.414 596.416 171.224 596.416 171.224C606.353 179.477 658.597 173.692 658.652 173.692C661.97 174.414 665.914 185.929 668.763 195.969C671.296 204.94 672.578 214.218 672.573 223.539V223.539Z" fill="#3F3D56"/>
<path id="Vector_29" d="M136.44 647.102H165.46C165.89 646.322 166.29 645.522 166.66 644.712C170 637.562 171.41 629.582 172.76 621.762L174.95 609.062C167.95 614.152 160.953 619.239 153.96 624.322C151.68 625.982 149.35 627.712 147.16 629.582C142.55 633.492 138.57 638.012 137.01 643.752C136.93 644.072 136.85 644.392 136.79 644.712C136.624 645.501 136.507 646.299 136.44 647.102V647.102Z" fill="#F0F0F0"/>
<path id="Vector_30" d="M132.37 644.712C132.369 644.762 132.372 644.812 132.38 644.862C132.477 645.626 132.658 646.377 132.92 647.102H145.95C146.36 646.334 146.708 645.535 146.99 644.712C147.386 643.613 147.67 642.477 147.84 641.322C148.273 637.398 148.043 633.429 147.16 629.582C146.91 628.332 146.64 627.072 146.37 625.832L144.83 618.752L137.12 631.142C134.54 635.292 131.86 639.862 132.37 644.712Z" fill="#F0F0F0"/>
<path id="Vector_31" d="M1.10579e-05 645.902C-0.000664033 646.059 0.0295781 646.214 0.0890156 646.36C0.148453 646.505 0.235932 646.637 0.346431 646.748C0.45693 646.86 0.588294 646.948 0.733028 647.009C0.877762 647.07 1.03302 647.101 1.18995 647.102H184.49C184.807 647.102 185.111 646.976 185.335 646.752C185.559 646.528 185.685 646.224 185.685 645.907C185.685 645.59 185.559 645.286 185.335 645.062C185.111 644.838 184.807 644.712 184.49 644.712H1.18995C0.874573 644.713 0.572317 644.838 0.349315 645.061C0.126313 645.284 0.0007189 645.586 1.10579e-05 645.902Z" fill="#CACACA"/>
<g id="checkMark">
<path id="circle" d="M301.04 459.803C320.818 459.803 336.851 443.77 336.851 423.992C336.851 404.214 320.818 388.181 301.04 388.181C281.262 388.181 265.229 404.214 265.229 423.992C265.229 443.77 281.262 459.803 301.04 459.803Z" fill="#6C63FF"/>
<path id="Vector_32" d="M296.155 442.63C295.536 442.63 294.926 442.486 294.373 442.209C293.82 441.932 293.339 441.531 292.968 441.036L283.198 428.009C282.884 427.591 282.654 427.115 282.524 426.607C282.394 426.1 282.364 425.573 282.438 425.054C282.512 424.536 282.687 424.037 282.953 423.586C283.22 423.136 283.573 422.742 283.992 422.428C284.411 422.114 284.887 421.885 285.395 421.756C285.902 421.626 286.43 421.597 286.948 421.672C287.466 421.746 287.965 421.922 288.415 422.189C288.865 422.457 289.258 422.81 289.572 423.229L295.964 431.751L312.38 407.127C312.669 406.69 313.042 406.314 313.477 406.022C313.912 405.729 314.4 405.525 314.914 405.421C315.428 405.318 315.957 405.317 316.471 405.418C316.986 405.519 317.475 405.721 317.911 406.012C318.347 406.303 318.722 406.676 319.013 407.112C319.304 407.548 319.507 408.037 319.609 408.551C319.711 409.065 319.71 409.595 319.607 410.109C319.504 410.622 319.301 411.111 319.009 411.546L299.469 440.856C299.116 441.386 298.64 441.823 298.083 442.132C297.526 442.44 296.902 442.61 296.265 442.628C296.229 442.629 296.192 442.63 296.155 442.63Z" fill="white"/>
</g>
<g id="circleList">
<path id="Vector_33" d="M426.318 532.221C433.498 532.221 439.318 526.401 439.318 519.221C439.318 512.041 433.498 506.221 426.318 506.221C419.138 506.221 413.318 512.041 413.318 519.221C413.318 526.401 419.138 532.221 426.318 532.221Z" fill="#F2F2F2"/>
<path id="Vector_34" d="M529.208 532.221C536.387 532.221 542.208 526.401 542.208 519.221C542.208 512.041 536.387 506.221 529.208 506.221C522.028 506.221 516.208 512.041 516.208 519.221C516.208 526.401 522.028 532.221 529.208 532.221Z" fill="#F2F2F2"/>
<path id="Vector_35" d="M474.316 532.221C481.495 532.221 487.316 526.401 487.316 519.221C487.316 512.041 481.495 506.221 474.316 506.221C467.136 506.221 461.316 512.041 461.316 519.221C461.316 526.401 467.136 532.221 474.316 532.221Z" fill="#F2F2F2"/>
</g>
<path id="Star 1" d="M31.5 178L34.5309 183.873L44.3393 183.873L36.4042 187.503L39.4351 193.377L31.5 189.747L23.5649 193.377L26.5958 187.503L18.6607 183.873L28.4691 183.873L31.5 178Z" fill="#B1C823"/>
</g>
<defs>
<clipPath id="clip0_38_2">
<rect width="820.918" height="647.102" fill="white"/>
</clipPath>
</defs>
</svg>
