<svg width="641" height="578" viewBox="0 0 641 578" fill="none" xmlns="http://www.w3.org/2000/svg">
<g id="undraw_well_done_i2wr 1" clip-path="url(#clip0_41_2)">
<path id="Vector" d="M118.853 122.184C128.001 126.905 134.988 134.959 138.37 144.682C141.753 154.405 141.273 165.056 137.03 174.436C136.083 176.593 139.567 177.727 140.508 175.584C144.963 165.435 145.416 153.977 141.776 143.508C138.137 133.039 130.674 124.333 120.885 119.136C118.818 118.041 116.771 121.081 118.853 122.184Z" fill="white"/>
<path id="Vector_2" d="M564.853 74.1838C574.001 78.9052 580.988 86.9588 584.37 96.6821C587.753 106.405 587.273 117.056 583.03 126.436C582.083 128.593 585.567 129.727 586.508 127.584C590.963 117.435 591.416 105.977 587.776 95.5082C584.137 85.039 576.674 76.3328 566.885 71.1355C564.818 70.0406 562.771 73.0808 564.853 74.1838Z" fill="white"/>
<g id="ballon">
<path id="Vector_3" d="M158.733 146.411C147.717 113.481 113.698 95.1793 91.3183 102.666C68.9389 110.153 52.7807 145.24 63.7967 178.17C73.9934 208.65 104.891 226.247 126.146 223.107C125.993 223.373 125.892 223.667 125.849 223.971L125.199 229.392C125.149 229.805 125.206 230.224 125.364 230.609C125.522 230.994 125.776 231.333 126.101 231.592C126.427 231.851 126.813 232.023 127.224 232.091C127.634 232.159 128.056 232.121 128.447 231.981L139.396 228.055C139.788 227.915 140.137 227.676 140.411 227.363C140.685 227.049 140.874 226.671 140.961 226.264C141.047 225.857 141.028 225.434 140.905 225.037C140.783 224.639 140.56 224.279 140.26 223.992L136.313 220.219C136.173 220.091 136.018 219.979 135.851 219.887C154.809 209.671 168.952 176.958 158.733 146.411Z" fill="#F2F2F2"/>
<path id="Vector_4" d="M604.733 98.4107C593.717 65.4811 559.698 47.1793 537.318 54.6659C514.939 62.1526 498.781 97.2402 509.797 130.17C519.993 160.65 550.891 178.247 572.146 175.107C571.993 175.373 571.892 175.667 571.849 175.971L571.199 181.392C571.149 181.805 571.206 182.224 571.364 182.609C571.522 182.994 571.776 183.333 572.101 183.592C572.427 183.851 572.813 184.023 573.224 184.091C573.634 184.159 574.056 184.121 574.447 183.981L585.396 180.055C585.788 179.915 586.137 179.676 586.411 179.363C586.685 179.049 586.874 178.671 586.961 178.264C587.047 177.857 587.028 177.434 586.905 177.037C586.783 176.639 586.56 176.279 586.26 175.992L582.313 172.219C582.173 172.091 582.017 171.979 581.851 171.887C600.809 161.671 614.952 128.957 604.733 98.4107Z" fill="#F2F2F2"/>
<path id="Vector_5" d="M345.733 45.4107C334.717 12.4811 300.698 -5.82073 278.318 1.66595C255.939 9.15263 239.781 44.2403 250.797 77.1699C260.993 107.65 291.891 125.247 313.146 122.107C312.993 122.373 312.892 122.667 312.849 122.971L312.199 128.392C312.149 128.805 312.206 129.224 312.364 129.609C312.522 129.994 312.776 130.333 313.101 130.592C313.427 130.851 313.813 131.023 314.224 131.091C314.634 131.159 315.056 131.121 315.447 130.981L326.396 127.055C326.788 126.915 327.137 126.676 327.411 126.363C327.685 126.049 327.874 125.671 327.961 125.264C328.047 124.857 328.028 124.434 327.905 124.037C327.783 123.639 327.56 123.279 327.26 122.992L323.313 119.219C323.173 119.091 323.017 118.979 322.851 118.887C341.809 108.671 355.952 75.9575 345.733 45.4107Z" fill="#F2F2F2"/>
</g>
<path id="Vector_6" d="M305.853 21.1838C315.001 25.9052 321.988 33.9588 325.37 43.6821C328.753 53.4054 328.273 64.0563 324.03 73.4362C323.083 75.5929 326.567 76.7271 327.508 74.5845C331.963 64.4354 332.416 52.9774 328.776 42.5082C325.137 32.039 317.674 23.3328 307.885 18.1355C305.818 17.0406 303.771 20.0808 305.853 21.1838Z" fill="white"/>
<g id="bubble">
<path id="Vector_7" d="M290.482 203.862C291.932 203.862 293.107 202.687 293.107 201.238C293.107 199.788 291.932 198.613 290.482 198.613C289.033 198.613 287.858 199.788 287.858 201.238C287.858 202.687 289.033 203.862 290.482 203.862Z" fill="#CCCCCC"/>
<path id="Vector_8" d="M284.889 309.141C287.752 309.141 290.073 306.82 290.073 303.957C290.073 301.093 287.752 298.772 284.889 298.772C282.025 298.772 279.704 301.093 279.704 303.957C279.704 306.82 282.025 309.141 284.889 309.141Z" fill="#CCCCCC"/>
<path id="Vector_9" d="M198.093 289.178C199.748 289.178 201.089 287.837 201.089 286.182C201.089 284.528 199.748 283.186 198.093 283.186C196.439 283.186 195.097 284.528 195.097 286.182C195.097 287.837 196.439 289.178 198.093 289.178Z" fill="#CCCCCC"/>
<path id="Vector_10" d="M243.606 240.124C245.397 240.124 246.85 238.672 246.85 236.88C246.85 235.088 245.397 233.636 243.606 233.636C241.814 233.636 240.361 235.088 240.361 236.88C240.361 238.672 241.814 240.124 243.606 240.124Z" fill="#CCCCCC"/>
<path id="Vector_11" d="M403.25 430.071C404.7 430.071 405.875 428.896 405.875 427.447C405.875 425.997 404.7 424.822 403.25 424.822C401.801 424.822 400.626 425.997 400.626 427.447C400.626 428.896 401.801 430.071 403.25 430.071Z" fill="#CCCCCC"/>
<path id="Vector_12" d="M317.301 376.106C320.164 376.106 322.485 373.785 322.485 370.922C322.485 368.058 320.164 365.737 317.301 365.737C314.437 365.737 312.116 368.058 312.116 370.922C312.116 373.785 314.437 376.106 317.301 376.106Z" fill="#CCCCCC"/>
<path id="Vector_13" d="M376.339 307.858C377.994 307.858 379.335 306.516 379.335 304.862C379.335 303.207 377.994 301.866 376.339 301.866C374.684 301.866 373.343 303.207 373.343 304.862C373.343 306.516 374.684 307.858 376.339 307.858Z" fill="#CCCCCC"/>
<path id="Vector_14" d="M396.04 372.246C397.832 372.246 399.284 370.794 399.284 369.002C399.284 367.21 397.832 365.758 396.04 365.758C394.248 365.758 392.796 367.21 392.796 369.002C392.796 370.794 394.248 372.246 396.04 372.246Z" fill="#CCCCCC"/>
</g>
<path id="Vector_15" d="M511.156 558.42C534.942 558.42 554.224 539.139 554.224 515.353C554.224 491.568 534.942 472.286 511.156 472.286C487.371 472.286 468.089 491.568 468.089 515.353C468.089 539.139 487.371 558.42 511.156 558.42Z" fill="#2F2E41"/>
<path id="Vector_16" d="M529.385 549.153H516.301V572.594H529.385V549.153Z" fill="#2F2E41"/>
<path id="Vector_17" d="M503.218 549.153H490.134V572.594H503.218V549.153Z" fill="#2F2E41"/>
<path id="Vector_18" d="M518.482 576.956C524.504 576.956 529.385 575.125 529.385 572.867C529.385 570.609 524.504 568.778 518.482 568.778C512.46 568.778 507.579 570.609 507.579 572.867C507.579 575.125 512.46 576.956 518.482 576.956Z" fill="#2F2E41"/>
<path id="Vector_19" d="M492.315 576.41C498.336 576.41 503.218 574.58 503.218 572.322C503.218 570.064 498.336 568.233 492.315 568.233C486.293 568.233 481.411 570.064 481.411 572.322C481.411 574.58 486.293 576.41 492.315 576.41Z" fill="#2F2E41"/>
<path id="Vector_20" d="M497.634 461.216C501.479 445.729 518.454 436.615 535.548 440.86C552.642 445.105 563.383 461.1 559.537 476.587C555.691 492.074 542.933 492.124 525.839 487.88C508.745 483.635 493.788 476.703 497.634 461.216Z" fill="#E6E6E6"/>
<g id="rightMan">
<path id="Vector_21" d="M570.787 539.342C573.65 536.945 569.781 527.61 562.147 518.491C554.512 509.373 546.002 503.924 543.14 506.32C540.277 508.717 544.146 518.052 551.78 527.171C559.415 536.289 567.925 541.738 570.787 539.342Z" fill="#2F2E41"/>
<path id="Vector_22" d="M482.104 504.597C483.704 501.224 476.29 494.358 465.545 489.262C454.8 484.165 444.792 482.768 443.192 486.142C441.592 489.515 449.006 496.381 459.751 501.477C470.497 506.574 480.505 507.971 482.104 504.597Z" fill="#2F2E41"/>
</g>
<path id="Vector_23" d="M504.718 520.624C512.648 520.624 519.076 514.196 519.076 506.266C519.076 498.335 512.648 491.907 504.718 491.907C496.788 491.907 490.359 498.335 490.359 506.266C490.359 514.196 496.788 520.624 504.718 520.624Z" fill="white"/>
<path id="Vector_24" d="M498.816 505.905C501.46 505.905 503.603 503.762 503.603 501.119C503.603 498.475 501.46 496.333 498.816 496.333C496.173 496.333 494.03 498.475 494.03 501.119C494.03 503.762 496.173 505.905 498.816 505.905Z" fill="#3F3D56"/>
<path id="Vector_25" d="M513.725 536.181C513.95 537.418 513.93 538.687 513.664 539.915C513.399 541.144 512.894 542.309 512.179 543.342C511.464 544.376 510.552 545.259 509.495 545.94C508.439 546.621 507.259 547.088 506.022 547.313C504.785 547.538 503.516 547.517 502.287 547.252C501.059 546.987 499.894 546.482 498.86 545.767C497.827 545.052 496.944 544.14 496.263 543.083C495.581 542.027 495.115 540.846 494.89 539.61V539.61L494.886 539.591C493.945 534.389 497.967 532.548 503.169 531.606C508.371 530.665 512.783 530.979 513.725 536.181Z" fill="white"/>
<path id="Vector_26" d="M110.959 558.42C134.745 558.42 154.026 539.138 154.026 515.353C154.026 491.568 134.745 472.286 110.959 472.286C87.1737 472.286 67.8918 491.568 67.8918 515.353C67.8918 539.138 87.1737 558.42 110.959 558.42Z" fill="#2F2E41"/>
<path id="Vector_27" d="M104.417 549.153H91.3335V572.594H104.417V549.153Z" fill="#2F2E41"/>
<path id="Vector_28" d="M130.585 549.153H117.501V572.594H130.585V549.153Z" fill="#2F2E41"/>
<path id="Vector_29" d="M102.237 576.956C108.258 576.956 113.14 575.125 113.14 572.867C113.14 570.609 108.258 568.778 102.237 568.778C96.215 568.778 91.3335 570.609 91.3335 572.867C91.3335 575.125 96.215 576.956 102.237 576.956Z" fill="#2F2E41"/>
<path id="Vector_30" d="M128.404 576.41C134.426 576.41 139.307 574.58 139.307 572.322C139.307 570.064 134.426 568.233 128.404 568.233C122.382 568.233 117.501 570.064 117.501 572.322C117.501 574.58 122.382 576.41 128.404 576.41Z" fill="#2F2E41"/>
<path id="Vector_31" d="M112.049 519.169C120.179 519.169 126.769 512.579 126.769 504.45C126.769 496.321 120.179 489.731 112.049 489.731C103.92 489.731 97.3303 496.321 97.3303 504.45C97.3303 512.579 103.92 519.169 112.049 519.169Z" fill="white"/>
<path id="Vector_32" d="M112.049 509.356C114.759 509.356 116.956 507.16 116.956 504.45C116.956 501.74 114.759 499.543 112.049 499.543C109.34 499.543 107.143 501.74 107.143 504.45C107.143 507.16 109.34 509.356 112.049 509.356Z" fill="#3F3D56"/>
<path id="Vector_33" d="M69.1824 475.301C65.7049 459.728 76.8211 443.991 94.011 440.153C111.201 436.314 127.955 445.828 131.433 461.402C134.91 476.975 123.518 482.719 106.328 486.558C89.1379 490.396 72.6599 490.875 69.1824 475.301Z" fill="#E6E6E6"/>
<g id="leftMan">
<path id="Vector_34" d="M157.081 485.244C161.327 474.135 161.942 464.049 158.454 462.716C154.967 461.383 148.698 469.308 144.452 480.417C140.206 491.526 139.591 501.612 143.078 502.945C146.566 504.278 152.835 496.353 157.081 485.244Z" fill="#2F2E41"/>
<path id="Vector_35" d="M81.9072 504.597C83.5072 501.224 76.0933 494.358 65.3478 489.262C54.6024 484.165 44.5946 482.768 42.9947 486.142C41.3948 489.515 48.8087 496.381 59.5541 501.477C70.2995 506.574 80.3073 507.971 81.9072 504.597Z" fill="#2F2E41"/>
</g>
<path id="Vector_36" d="M89.8046 530.89C89.8046 535.105 100.658 543.428 112.701 543.428C124.745 543.428 136.036 531.561 136.036 527.346C136.036 523.131 124.744 528.164 112.701 528.164C100.658 528.164 89.8046 526.675 89.8046 530.89Z" fill="white"/>
<path id="Vector_37" d="M316.678 517.42C340.464 517.42 359.746 498.138 359.746 474.353C359.746 450.568 340.464 431.286 316.678 431.286C292.893 431.286 273.611 450.568 273.611 474.353C273.611 498.138 292.893 517.42 316.678 517.42Z" fill="#2F2E41"/>
<path id="Vector_38" d="M310.136 508.153H297.053V531.594H310.136V508.153Z" fill="#2F2E41"/>
<path id="Vector_39" d="M336.304 508.153H323.22V531.594H336.304V508.153Z" fill="#2F2E41"/>
<path id="Vector_40" d="M307.956 535.956C313.977 535.956 318.859 534.125 318.859 531.867C318.859 529.609 313.977 527.778 307.956 527.778C301.934 527.778 297.053 529.609 297.053 531.867C297.053 534.125 301.934 535.956 307.956 535.956Z" fill="#2F2E41"/>
<path id="Vector_41" d="M334.123 535.41C340.145 535.41 345.027 533.58 345.027 531.322C345.027 529.064 340.145 527.233 334.123 527.233C328.102 527.233 323.22 529.064 323.22 531.322C323.22 533.58 328.102 535.41 334.123 535.41Z" fill="#2F2E41"/>
<path id="Vector_42" d="M274.902 434.302C271.424 418.728 282.54 402.991 299.73 399.153C316.92 395.314 333.674 404.828 337.152 420.402C340.629 435.976 329.237 441.719 312.047 445.558C294.857 449.396 278.379 449.875 274.902 434.302Z" fill="#6C63FF"/>
<g id="centerMan">
<path id="Vector_43" d="M363.088 455.533C372.415 446.199 377.6 436.259 374.67 433.331C371.74 430.403 361.803 435.596 352.476 444.93C343.149 454.264 337.964 464.205 340.894 467.133C343.824 470.061 353.761 464.868 363.088 455.533Z" fill="#2F2E41"/>
<path id="Vector_44" d="M281.965 470.133C284.895 467.205 279.709 457.264 270.382 447.93C261.055 438.596 251.119 433.403 248.189 436.331C245.258 439.259 250.444 449.199 259.771 458.533C269.098 467.868 279.034 473.061 281.965 470.133Z" fill="#2F2E41"/>
</g>
<g id="rightredBallon">
<path id="ball" d="M578.507 201.021C577.077 156.861 546.832 122.005 510.952 123.166C431.099 125.532 429.149 271.967 506.245 282.486L504.612 295.462L528.423 294.691L525.955 281.848C556.969 274.993 579.803 241.057 578.507 201.021Z" fill="#FF6584"/>
<path id="Vector_45" d="M471.243 225.505L462.247 225.796C458.721 209.032 458.163 191.78 460.597 174.823L469.593 174.531C466.27 192.282 466.82 209.273 471.243 225.505Z" fill="white"/>
<path id="bind" d="M529.59 281.646L502.604 282.52L502.798 288.517L529.784 287.643L529.59 281.646Z" fill="#3F3D56"/>
<path id="line" d="M451.208 511.273L448.491 510.001L515.303 283.429L518.02 284.702L451.208 511.273Z" fill="#3F3D56"/>
</g>
<g id="rightBallon">
<path id="ball_2" d="M633.805 238.363C650.121 197.304 636.303 153.271 602.942 140.014C528.783 110.309 468.542 243.794 535.031 284.212L528.355 295.457L550.494 304.255L553.357 291.495C584.529 297.589 619.012 275.589 633.805 238.363Z" fill="#6C63FF"/>
<path id="Vector_46" d="M525.683 217.995L517.32 214.672C520.778 197.894 527.153 181.852 536.154 167.277L544.517 170.6C534.386 185.549 528.108 201.347 525.683 217.995Z" fill="white"/>
<path id="bind_2" d="M531.679 282.79L529.464 288.366L554.555 298.336L556.771 292.761L531.679 282.79Z" fill="#3F3D56"/>
<path id="line_2" d="M450.68 505.309L448.073 503.825L541.351 290.957L543.958 292.44L450.68 505.309Z" fill="#3F3D56"/>
</g>
<g id="leftBallon">
<path id="ball_3" d="M127.792 205.851C110.139 165.348 69.1509 144.141 36.2423 158.484C-37.0795 190.202 15.2414 326.984 90.7643 308.258L94.0443 320.918L115.883 311.399L108.843 300.379C135.125 282.545 143.797 242.571 127.792 205.851Z" fill="#6C63FF"/>
<path id="Vector_47" d="M36.1775 266.276L27.9271 269.872C18.4535 255.599 11.5568 239.775 7.55035 223.12L15.8008 219.524C19.2755 237.245 26.0677 252.829 36.1775 266.276Z" fill="white"/>
<path id="line_3" d="M168.411 511.853C168.025 511.948 167.617 511.887 167.276 511.682C166.936 511.476 166.69 511.144 166.595 510.758L101.387 304.142L104.299 303.42L169.506 510.036C169.554 510.227 169.563 510.425 169.534 510.62C169.504 510.815 169.437 511.002 169.335 511.171C169.234 511.34 169.1 511.487 168.941 511.604C168.783 511.721 168.603 511.805 168.411 511.853Z" fill="#3F3D56"/>
<path id="bind_3" d="M111.145 296.871L86.3941 307.659L88.7914 313.159L113.543 302.372L111.145 296.871Z" fill="#3F3D56"/>
</g>
<path id="Vector_48" d="M185.839 577.179H28.8388C28.5736 577.179 28.3193 577.073 28.1317 576.886C27.9442 576.698 27.8388 576.444 27.8388 576.179C27.8388 575.914 27.9442 575.659 28.1317 575.472C28.3193 575.284 28.5736 575.179 28.8388 575.179H185.839C186.104 575.179 186.358 575.284 186.546 575.472C186.733 575.659 186.839 575.914 186.839 576.179C186.839 576.444 186.733 576.698 186.546 576.886C186.358 577.073 186.104 577.179 185.839 577.179Z" fill="#CCCCCC"/>
<path id="Vector_49" d="M584.839 577.179H427.839C427.574 577.179 427.319 577.073 427.132 576.886C426.944 576.698 426.839 576.444 426.839 576.179C426.839 575.914 426.944 575.659 427.132 575.472C427.319 575.284 427.574 575.179 427.839 575.179H584.839C585.104 575.179 585.358 575.284 585.546 575.472C585.733 575.659 585.839 575.914 585.839 576.179C585.839 576.444 585.733 576.698 585.546 576.886C585.358 577.073 585.104 577.179 584.839 577.179Z" fill="#CCCCCC"/>
<path id="Vector_50" d="M397.839 536.179H240.839C240.574 536.179 240.319 536.073 240.132 535.886C239.944 535.698 239.839 535.444 239.839 535.179C239.839 534.914 239.944 534.659 240.132 534.472C240.319 534.284 240.574 534.179 240.839 534.179H397.839C398.104 534.179 398.358 534.284 398.546 534.472C398.733 534.659 398.839 534.914 398.839 535.179C398.839 535.444 398.733 535.698 398.546 535.886C398.358 536.073 398.104 536.179 397.839 536.179Z" fill="#CCCCCC"/>
<path id="Vector_51" d="M314.866 482.969C322.996 482.969 329.586 476.379 329.586 468.25C329.586 460.121 322.996 453.531 314.866 453.531C306.737 453.531 300.147 460.121 300.147 468.25C300.147 476.379 306.737 482.969 314.866 482.969Z" fill="white"/>
<path id="Vector_52" d="M314.866 473.156C317.576 473.156 319.773 470.959 319.773 468.25C319.773 465.54 317.576 463.343 314.866 463.343C312.157 463.343 309.96 465.54 309.96 468.25C309.96 470.959 312.157 473.156 314.866 473.156Z" fill="#3F3D56"/>
<path id="Vector_53" d="M326.551 495.472C327.006 497.97 326.449 500.546 325.005 502.634C323.56 504.721 321.345 506.15 318.848 506.604C316.35 507.059 313.774 506.503 311.686 505.058C309.599 503.614 308.17 501.399 307.715 498.901L307.712 498.883C306.77 493.68 310.793 491.84 315.995 490.898C321.197 489.956 325.609 490.27 326.551 495.472Z" fill="white"/>
</g>
<defs>
<clipPath id="clip0_41_2">
<rect width="640.657" height="577.179" fill="white"/>
</clipPath>
</defs>
</svg>
