<svg width="1066" height="825" viewBox="0 0 1066 825" fill="none" xmlns="http://www.w3.org/2000/svg">
<g id="undraw_autumn_re_rwy0 1" clip-path="url(#clip0_35_2)">
<path id="Vector" d="M970.725 258.344C980.367 254.14 960.814 251.693 938.629 250.888C916.445 250.084 889.609 250.128 875.432 247.84C861.721 245.626 862.731 241.69 861.578 238.125C860.424 234.559 855.153 230.903 833.758 230.11C807.098 229.122 763.133 232.924 743.007 230.642C724.225 228.512 735.389 221.83 708.003 221.574C692.365 221.428 672.218 223.631 654.817 224.163C638.481 224.662 626.395 223.628 617.914 222.239C609.432 220.849 603.525 219.087 593.98 217.86C568.919 214.638 519.888 215.721 476.127 219.851C432.365 223.981 394.853 230.749 373.698 237.452C352.542 244.156 346.698 250.756 351.625 256.353C354.772 259.927 362.825 263.269 382.358 264.705C418.893 267.391 483.942 262.768 521.695 265.212C542.736 266.574 552.071 269.951 570.533 271.799C590.367 273.784 619.402 273.889 647.93 273.842C707.327 273.744 768.243 273.134 830.36 272.015C856.304 271.547 883.489 270.939 911.097 268.712C938.705 266.484 966.863 262.186 972.688 258.156" fill="#F2F2F2"/>
<path id="Vector_2" d="M1055.06 605.044C1044.5 626.374 1027.83 645.014 1008.67 659.394C979.297 681.444 944.337 694.694 909.347 705.874C711.727 769.044 495.867 773.924 295.597 719.754C240.197 704.774 184.517 684.534 141.427 646.624C127.635 634.486 115.605 620.48 105.687 605.014C163.037 573.494 232.547 561.614 298.877 563.064C393.967 565.144 486.837 590.524 581.037 603.654C691.971 619.095 804.61 617.544 915.077 599.054C953.397 592.624 993.057 584.214 1030.57 594.394C1039.19 596.775 1047.44 600.361 1055.06 605.044V605.044Z" fill="#F2F2F2"/>
<path id="Vector_3" d="M1003.68 746.84C1002.08 751.323 999.466 755.374 996.039 758.675C990.878 763.753 984.395 767.258 977.851 770.359C940.616 787.925 899.125 794.448 858.297 789.156C847.08 787.681 835.67 785.186 826.257 778.908C823.244 776.898 820.527 774.477 818.184 771.715C828.563 764.053 841.833 759.911 854.831 758.456C873.465 756.37 892.275 758.895 911.025 758.991C933.104 759.101 955.072 755.846 976.171 749.338C983.49 747.078 991.018 744.395 998.614 745.401C1000.36 745.64 1002.07 746.125 1003.68 746.84Z" fill="#F2F2F2"/>
<path id="Vector_4" d="M374.22 762.199C371.236 765.906 367.432 768.87 363.109 770.859C356.564 773.954 349.288 775.129 342.088 775.902C301.145 780.227 259.821 772.724 223.012 754.282C212.906 749.196 202.955 743.083 196.134 734.056C193.951 731.165 192.182 727.984 190.879 724.605C203.203 720.788 217.097 721.246 229.849 724.153C248.13 728.319 265.06 736.898 282.732 743.163C303.544 750.537 325.359 754.697 347.424 755.5C355.079 755.776 363.071 755.722 369.912 759.173C371.483 759.974 372.933 760.993 374.22 762.199Z" fill="#F2F2F2"/>
<path id="Vector_5" d="M656.95 794.184C654.771 798.415 651.64 802.082 647.804 804.898C642.015 809.245 635.123 811.857 628.225 814.061C588.985 826.521 546.996 827.47 507.233 816.798C496.311 813.845 485.335 809.855 476.84 802.381C474.121 799.988 471.75 797.227 469.795 794.178C481.1 787.965 494.803 785.623 507.879 785.908C526.625 786.318 544.933 791.322 563.503 793.91C585.372 796.954 607.577 796.648 629.354 793.003C636.909 791.736 644.727 790.078 652.122 792.085C653.822 792.554 655.447 793.261 656.95 794.184V794.184Z" fill="#F2F2F2"/>
<path id="Vector_6" d="M701.078 543.5L672.861 531.051V520.349L682.917 520.292C684.477 520.283 685.996 519.786 687.259 518.87C688.523 517.954 689.467 516.665 689.961 515.185L697.025 493.992C697.399 492.869 697.502 491.674 697.323 490.504C697.145 489.334 696.691 488.223 695.999 487.263C695.307 486.303 694.396 485.521 693.343 484.981C692.289 484.442 691.123 484.161 689.939 484.161H672.861V474.202H694.301C695.991 474.202 697.631 473.629 698.953 472.576C700.276 471.523 701.202 470.053 701.58 468.406L706.445 447.243C706.697 446.149 706.698 445.011 706.45 443.916C706.201 442.821 705.709 441.796 705.009 440.917C704.31 440.039 703.421 439.329 702.409 438.841C701.398 438.354 700.289 438.1 699.166 438.1H672.861V435.611C672.861 434.29 672.336 433.023 671.402 432.09C670.468 431.156 669.202 430.631 667.881 430.631C666.561 430.631 665.294 431.156 664.36 432.09C663.426 433.023 662.902 434.29 662.902 435.611V438.1H486.545V435.611C486.545 434.29 486.02 433.023 485.086 432.09C484.152 431.156 482.886 430.631 481.565 430.631C480.244 430.631 478.978 431.156 478.044 432.09C477.11 433.023 476.586 434.29 476.586 435.611V438.1H455.675C454.552 438.1 453.443 438.354 452.431 438.841C451.42 439.329 450.531 440.039 449.831 440.917C449.132 441.796 448.639 442.821 448.391 443.916C448.142 445.011 448.144 446.149 448.395 447.243L453.26 468.406C453.639 470.053 454.565 471.523 455.887 472.576C457.209 473.629 458.85 474.202 460.54 474.202H476.586V484.161H464.901C463.724 484.161 462.564 484.439 461.514 484.973C460.465 485.507 459.557 486.281 458.864 487.232C458.171 488.184 457.712 489.286 457.526 490.448C457.34 491.61 457.431 492.8 457.792 493.921L465.002 516.298C465.489 517.809 466.445 519.126 467.731 520.057C469.017 520.988 470.566 521.485 472.154 521.476L476.586 521.451V531.051L453.763 543.5C452.782 543.5 451.811 543.693 450.905 544.068C449.998 544.444 449.175 544.994 448.481 545.688C447.788 546.381 447.238 547.204 446.862 548.111C446.487 549.017 446.294 549.988 446.294 550.969C446.294 552.95 447.081 554.85 448.481 556.251C449.882 557.651 451.782 558.438 453.763 558.438H476.586V613.213C476.586 614.533 477.11 615.8 478.044 616.734C478.978 617.668 480.244 618.192 481.565 618.192C482.886 618.192 484.152 617.668 485.086 616.734C486.02 615.8 486.545 614.533 486.545 613.213V558.438H662.902V613.213C662.902 614.533 663.426 615.8 664.36 616.734C665.294 617.668 666.561 618.192 667.881 618.192C669.202 618.192 670.468 617.668 671.402 616.734C672.336 615.8 672.861 614.533 672.861 613.213V558.438H701.078C703.059 558.438 704.959 557.651 706.359 556.251C707.76 554.85 708.547 552.95 708.547 550.969C708.547 549.988 708.354 549.017 707.979 548.111C707.603 547.204 707.053 546.381 706.359 545.687C705.666 544.994 704.842 544.444 703.936 544.068C703.03 543.693 702.059 543.5 701.078 543.5V543.5ZM486.545 474.202H662.902V484.161H486.545L486.545 474.202ZM486.545 531.051V521.395L662.902 520.405V531.051H486.545Z" fill="#2F2E41"/>
<path id="Vector_7" d="M840.717 644.905C833.088 642.51 826.28 636.27 825.098 628.362C832.596 632.764 841.41 634.371 849.98 632.899C853.282 632.319 856.896 631.331 859.818 632.976C861.605 634.098 862.893 635.863 863.416 637.908C863.925 639.934 864.171 642.017 864.15 644.106L864.405 644.56C856.632 646.433 848.346 647.299 840.717 644.905Z" fill="#6D7007"/>
<path id="Vector_8" d="M854.717 663.905C847.088 661.51 840.28 655.27 839.098 647.362C846.596 651.764 855.41 653.371 863.98 651.899C867.282 651.319 870.896 650.331 873.818 651.976C875.605 653.098 876.893 654.863 877.416 656.908C877.925 658.934 878.171 661.017 878.15 663.106L878.405 663.56C870.632 665.433 862.346 666.299 854.717 663.905Z" fill="#781010"/>
<path id="Vector_9" d="M810.717 653.905C803.088 651.51 796.28 645.27 795.098 637.362C802.596 641.764 811.41 643.371 819.98 641.899C823.282 641.319 826.896 640.331 829.818 641.976C831.605 643.098 832.893 644.863 833.416 646.908C833.925 648.934 834.171 651.017 834.15 653.106L834.405 653.56C826.632 655.433 818.346 656.299 810.717 653.905Z" fill="#7B7648"/>
<path id="Vector_10" d="M844.717 631.905C837.088 629.51 830.28 623.27 829.098 615.362C836.596 619.764 845.41 621.371 853.98 619.899C857.282 619.319 860.896 618.331 863.818 619.976C865.605 621.098 866.893 622.863 867.416 624.908C867.925 626.934 868.171 629.017 868.15 631.106L868.405 631.56C860.632 633.433 852.346 634.299 844.717 631.905Z" fill="#7E130D"/>
<path id="Vector_11" d="M297.034 644.497C289.679 641.362 283.519 634.481 283.122 626.495C290.15 631.614 298.763 634.082 307.435 633.463C310.779 633.212 314.472 632.584 317.218 634.509C318.886 635.802 319.994 637.686 320.313 639.772C320.619 641.838 320.659 643.935 320.432 646.012L320.64 646.489C312.721 647.587 304.39 647.632 297.034 644.497Z" fill="#726810"/>
<g id="leaf">
<path id="Vector_12" d="M401.83 372.252C398.031 365.217 397.5 355.997 402.166 349.503C404.473 357.887 409.671 365.183 416.841 370.103C419.613 371.99 422.892 373.8 423.84 377.017C424.339 379.067 424.032 381.231 422.982 383.061C421.933 384.868 420.658 386.533 419.187 388.016L419.052 388.519C412.174 384.443 405.63 379.287 401.83 372.252Z" fill="#AA1107"/>
<path id="Vector_13" d="M563.83 386.252C560.031 379.217 559.5 369.997 564.166 363.503C566.473 371.887 571.671 379.183 578.841 384.103C581.613 385.99 584.892 387.8 585.84 391.017C586.339 393.067 586.032 395.231 584.982 397.061C583.933 398.868 582.658 400.533 581.187 402.016L581.052 402.519C574.174 398.443 567.63 393.287 563.83 386.252Z" fill="#726810"/>
<path id="Vector_14" d="M348.83 545.252C345.031 538.217 344.5 528.997 349.166 522.503C351.473 530.887 356.671 538.183 363.841 543.103C366.613 544.99 369.892 546.8 370.84 550.017C371.339 552.067 371.032 554.231 369.982 556.061C368.933 557.868 367.658 559.533 366.187 561.016L366.052 561.519C359.174 557.443 352.63 552.287 348.83 545.252Z" fill="#6D7007"/>
</g>
<path id="Vector_15" d="M354.498 609.784C346.948 607.154 340.336 600.706 339.399 592.765C346.758 597.397 355.518 599.276 364.129 598.071C367.448 597.594 371.09 596.718 373.96 598.453C375.711 599.63 376.944 601.435 377.404 603.494C377.849 605.535 378.031 607.625 377.945 609.712L378.185 610.174C370.358 611.805 362.049 612.414 354.498 609.784Z" fill="#596529"/>
<path id="Vector_16" d="M368.498 584.784C360.948 582.154 354.336 575.706 353.399 567.765C360.758 572.397 369.518 574.276 378.129 573.071C381.448 572.594 385.09 571.718 387.96 573.453C389.711 574.63 390.944 576.435 391.404 578.494C391.849 580.535 392.031 582.625 391.945 584.712L392.185 585.174C384.358 586.805 376.049 587.414 368.498 584.784Z" fill="#838D0C"/>
<path id="Vector_17" d="M340.498 593.784C332.948 591.154 326.336 584.706 325.399 576.765C332.758 581.397 341.518 583.276 350.129 582.071C353.448 581.594 357.09 580.718 359.96 582.453C361.711 583.63 362.944 585.435 363.404 587.494C363.849 589.535 364.031 591.625 363.945 593.712L364.185 594.174C356.358 595.805 348.049 596.414 340.498 593.784Z" fill="#781010"/>
<path id="Vector_18" d="M203.781 617.155C200.739 617.165 197.741 616.43 195.049 615.014C192.356 613.598 190.052 611.544 188.336 609.032C186.447 606.314 185.306 603.148 185.025 599.85C184.745 596.552 185.336 593.238 186.739 590.24C197.289 567.325 201.116 541.809 198.115 514.402C190.738 447.036 123.466 341.89 122.788 340.835L91.9033 301.537C84.8705 292.587 88.3247 282.982 94.5106 277.844C100.597 272.789 110.519 271.189 117.917 279.624C120.058 281.884 121.71 284.56 122.771 287.487C124.859 273.769 133 211.778 118.611 160.743C114.11 144.776 124.112 133.735 135.31 130.233C146.305 126.796 160.553 130.124 165.859 145.55C168.933 154.483 169.913 164.596 168.774 175.606C165.851 203.864 163.643 230.202 162.21 253.888C162.047 256.595 162.749 259.283 164.216 261.564C165.683 263.845 167.837 265.6 170.368 266.574C172.899 267.549 175.674 267.692 178.291 266.984C180.909 266.276 183.233 264.753 184.927 262.635L209.089 232.453C223.625 214.296 245.489 213.582 260.707 220.93C274.5 227.589 288.688 243.769 283.28 267.453C281.985 273.125 279.653 277.644 276.349 280.886C275.658 281.563 274.958 282.242 274.247 282.922C258.16 298.281 247.229 318.248 242.958 340.075C238.687 361.902 241.287 384.517 250.399 404.806C271.99 452.481 286.279 493.376 292.867 526.352C301.919 571.653 295.948 600.563 275.12 612.278L274.928 612.336L205.112 617.109L205.081 616.655L205.112 617.109C204.667 617.139 204.222 617.155 203.781 617.155Z" fill="#341717"/>
<g id="redTree">
<path id="Vector_19" d="M59.7538 344.603C59.5189 344.603 59.2845 344.601 59.0487 344.598C46.681 344.416 34.7685 339.904 25.3835 331.847C15.9984 323.791 9.73484 312.699 7.68235 300.501C5.62985 288.303 7.91834 275.772 14.1497 265.088C20.3811 254.403 30.1609 246.241 41.7879 242.021C43.3339 241.475 44.6703 240.459 45.6102 239.116C46.5501 237.772 47.0464 236.168 47.0296 234.529L47.0291 234.341C47.0285 230.117 47.5333 225.909 48.5326 221.805C48.8719 220.485 48.8551 219.098 48.4841 217.787C48.113 216.475 47.4009 215.285 46.4203 214.338C37.5511 205.997 30.5152 195.902 25.7601 184.694C21.005 173.485 18.635 161.41 18.8006 149.236C19.4911 101.71 58.7381 63.0454 106.289 63.0454L106.715 63.0464C118.54 63.0604 130.237 65.4925 141.088 70.1932C151.939 74.8939 161.713 81.7638 169.811 90.3809C173.881 94.6762 178.78 98.1012 184.211 100.449C189.643 102.796 195.494 104.017 201.411 104.038L201.58 104.537L201.578 104.037L201.926 104.036C218.486 104.085 234.696 108.809 248.689 117.664C262.683 126.52 273.892 139.146 281.027 154.091C281.413 154.915 282.024 155.614 282.789 156.107C283.554 156.6 284.443 156.868 285.353 156.88L285.955 156.892C301.587 157.262 316.834 161.815 330.11 170.076C343.386 178.337 354.205 190.005 361.442 203.866C368.679 217.726 372.069 233.273 371.259 248.889C370.45 264.504 365.47 279.617 356.839 292.655C348.208 305.693 336.24 316.18 322.181 323.024C308.122 329.868 292.486 332.82 276.9 331.571C261.314 330.323 246.347 324.92 233.556 315.926C220.766 306.931 210.62 294.673 204.174 280.428C203.978 280.004 203.664 279.646 203.269 279.396C202.875 279.146 202.417 279.015 201.95 279.018C195.937 279.02 189.939 278.408 184.05 277.189C162.637 272.695 140.365 274.784 120.161 283.182C119.482 283.464 118.795 283.732 118.101 283.986C116.529 284.556 115.17 285.593 114.205 286.958C113.24 288.324 112.716 289.952 112.703 291.623V291.726C112.703 305.749 107.133 319.197 97.2186 329.113C87.3038 339.029 73.8563 344.601 59.8338 344.603H59.7538V344.603Z" fill="#AA1107"/>
<path id="up" d="M52.8021 281.558C52.5677 281.558 52.3343 281.556 52.099 281.553C39.7312 281.371 27.8186 276.859 18.4335 268.802C9.04832 260.745 2.78466 249.653 0.732151 237.456C-1.32036 225.258 0.968185 212.727 7.19964 202.042C13.4311 191.358 23.2111 183.196 34.8382 178.976C36.3842 178.43 37.7206 177.414 38.6605 176.07C39.6004 174.727 40.0967 173.123 40.0799 171.483L40.0795 171.295C40.0785 167.072 40.5833 162.864 41.5829 158.76C41.9221 157.44 41.9052 156.053 41.5341 154.742C41.163 153.43 40.4508 152.24 39.4701 151.293C30.6011 142.952 23.5653 132.856 18.8103 121.648C14.0553 110.44 11.6853 98.3648 11.8509 86.1909C12.5414 38.665 51.7884 0 99.3392 0L99.765 0.000999451C111.59 0.0150431 123.287 2.44714 134.138 7.14782C144.989 11.8485 154.764 18.7184 162.862 27.3355C166.931 31.6308 171.83 35.0558 177.261 37.4032C182.693 39.7506 188.544 40.9716 194.461 40.9922L194.63 41.4917L194.628 40.9917L194.976 40.9907C211.536 41.0399 227.746 45.764 241.74 54.6192C255.733 63.4744 266.943 76.1008 274.077 91.0454C274.463 91.8696 275.074 92.5684 275.839 93.0617C276.604 93.5549 277.493 93.8228 278.403 93.8345L279.005 93.8467C294.637 94.2167 309.884 98.7692 323.16 107.03C336.436 115.292 347.255 126.96 354.492 140.82C361.728 154.681 365.118 170.228 364.309 185.843C363.499 201.458 358.52 216.571 349.889 229.61C341.257 242.648 329.29 253.134 315.231 259.979C301.172 266.823 285.536 269.774 269.95 268.526C254.364 267.278 239.397 261.875 226.606 252.88C213.816 243.886 203.67 231.628 197.224 217.382C197.028 216.959 196.713 216.601 196.319 216.351C195.925 216.101 195.467 215.97 195 215.973C188.987 215.975 182.989 215.362 177.1 214.144C155.687 209.649 133.415 211.738 113.212 220.137C112.532 220.418 111.845 220.687 111.151 220.941C109.579 221.511 108.22 222.548 107.255 223.913C106.29 225.278 105.766 226.906 105.753 228.578V228.681C105.753 242.704 100.183 256.152 90.2684 266.068C80.3536 275.984 66.9061 281.556 52.8836 281.558H52.8021V281.558Z" fill="#AA1107"/>
<path id="Vector_20" d="M274.88 137.36C275.042 137.335 275.204 137.312 275.368 137.289C283.96 136.092 292.699 137.946 300.066 142.527C307.433 147.108 312.961 154.126 315.687 162.361C318.414 170.597 318.168 179.527 314.991 187.6C311.814 195.672 305.908 202.375 298.3 206.543C297.287 207.087 296.469 207.934 295.962 208.966C295.454 209.998 295.281 211.162 295.468 212.297L295.489 212.427C295.941 215.355 296.041 218.326 295.787 221.277C295.693 222.228 295.853 223.187 296.25 224.057C296.648 224.927 297.269 225.675 298.05 226.227C308.201 233.178 316.028 243.02 320.514 254.476C325.001 265.932 325.941 278.471 323.211 290.468C320.481 302.464 314.208 313.363 305.206 321.749C296.204 330.135 284.889 335.621 272.729 337.496L272.434 337.54C264.236 338.795 255.868 338.36 247.845 336.262C239.821 334.164 232.311 330.448 225.777 325.341C222.497 322.798 218.735 320.948 214.719 319.902C210.703 318.856 206.517 318.635 202.414 319.253L202.243 318.925L202.298 319.272L202.057 319.31C190.573 321.046 178.832 319.505 168.186 314.863C157.539 310.222 148.419 302.668 141.876 293.073C141.52 292.543 141.022 292.124 140.439 291.863C139.856 291.603 139.212 291.513 138.58 291.602L138.161 291.658C127.286 293.073 116.231 291.548 106.146 287.241C96.0604 282.935 87.3136 276.004 80.8153 267.17C74.3171 258.337 70.3049 247.923 69.1963 237.013C68.0877 226.103 69.9231 215.095 74.5117 205.135C79.1003 195.174 86.2743 186.626 95.2871 180.379C104.3 174.131 114.822 170.414 125.759 169.612C136.696 168.811 147.648 170.955 157.475 175.822C167.303 180.689 175.646 188.101 181.637 197.286C181.819 197.558 182.075 197.773 182.375 197.904C182.675 198.035 183.006 198.077 183.33 198.025C187.498 197.38 191.72 197.164 195.932 197.378C211.255 198.205 226.469 194.375 239.575 186.393C240.016 186.125 240.464 185.866 240.917 185.615C241.946 185.053 242.778 184.188 243.3 183.139C243.823 182.089 244.012 180.905 243.842 179.745L243.831 179.673C242.332 169.954 244.755 160.037 250.567 152.103C256.379 144.17 265.104 138.87 274.823 137.369V137.369L274.88 137.36Z" fill="#AA1107"/>
</g>
<g id="coat">
<path id="body" d="M922.769 296C908.634 296 886.51 334.038 886.283 334.432C865.897 360.45 844.932 426.333 834.246 463.293C833.03 467.489 832.7 471.89 833.274 476.22C833.849 480.55 835.316 484.713 837.583 488.446C839.85 492.179 842.868 495.4 846.445 497.906C850.022 500.413 854.08 502.149 858.363 503.004C880.7 507.464 899.691 513.803 914.807 521.846C950.592 540.886 993.027 522.885 997.325 520.966L983.241 448.192C967.6 396.248 935.06 297.643 923.796 296.07C923.456 296.023 923.112 296 922.769 296V296Z" fill="#2F2E41"/>
</g>
<path id="coatshadow" opacity="0.1" d="M993.728 461.57C993.728 461.57 948.425 311.106 933.867 309.073C919.308 307.04 901.808 348.093 901.808 348.093C892.626 386.044 869.708 438.24 853.068 473.489C851.018 477.829 849.97 482.574 850.001 487.374C850.031 492.174 851.14 496.905 853.245 501.219C855.351 505.532 858.398 509.317 862.163 512.294C865.928 515.271 870.314 517.364 874.997 518.418C890.833 521.969 908.888 527.44 924.573 535.785C962.79 556.118 1007.89 534.756 1007.89 534.756L993.728 461.57Z" fill="#2F2E41"/>
<path id="Vector_21" d="M941.95 470.799L868.95 461.799L883.95 395.799L941.95 397.799V470.799Z" fill="#9E616A"/>
<path id="Path 3128" d="M901.311 752.396L886.681 750.023L888.875 692.465L910.467 695.965L901.311 752.396Z" fill="#9E616A"/>
<path id="Path 3130" d="M974.225 721.882L960.993 728.558L925.945 677.698L945.474 667.845L974.225 721.882Z" fill="#9E616A"/>
<path id="Path 3132" d="M932.462 703.389L871.533 548.025C849.727 488.46 869.21 447.407 869.41 447L869.51 446.8L869.718 446.724C872.22 456.462 928.95 455.799 941.95 440.799C949.538 447.173 959.637 462.181 961.801 480.115C964.061 499.354 962.347 518.854 956.763 537.404L932.763 618.764L962.456 685.655L932.462 703.389Z" fill="#2F2E41"/>
<path id="Path 3133" d="M903.08 607.019L881.08 718.575L910.38 724.1L928.815 627.538L903.08 607.019Z" fill="#2F2E41"/>
<path id="Vector_22" d="M906.15 733.719L904.36 733.609L887.35 732.589L884.95 732.449V741.539L864.79 755.459C863.794 756.146 863.044 757.134 862.649 758.278C862.255 759.423 862.237 760.663 862.598 761.818C862.958 762.973 863.679 763.983 864.655 764.699C865.63 765.415 866.809 765.801 868.02 765.799H893.26L897.61 756.819L899.31 765.799H908.82L906.15 733.719Z" fill="#2F2E41"/>
<path id="Vector_23" d="M993.15 743.529L973.5 718.029L972.49 718.599L959.27 726.059L955.01 728.459L959.93 736.089L950.55 758.719C950.088 759.836 949.995 761.072 950.285 762.246C950.575 763.42 951.232 764.471 952.16 765.245C953.089 766.02 954.24 766.478 955.447 766.552C956.654 766.626 957.853 766.313 958.87 765.659L980.08 751.969L978.86 742.059L985.16 748.689L993.15 743.529Z" fill="#2F2E41"/>
<path id="Vector_24" d="M937.206 294.772C957.294 294.772 973.578 278.488 973.578 258.401C973.578 238.313 957.294 222.029 937.206 222.029C917.119 222.029 900.835 238.313 900.835 258.401C900.835 278.488 917.119 294.772 937.206 294.772Z" fill="#2F2E41"/>
<g id="rightHand">
<path id="hand" d="M753.109 411.219C749.753 409.85 747.017 407.298 745.417 404.046C743.818 400.794 743.467 397.068 744.431 393.575C745.395 390.081 747.607 387.063 750.648 385.091C753.689 383.12 757.347 382.333 760.93 382.878L807.594 373.905L825.103 394.707L773.136 400.797C772.672 402.899 771.753 404.874 770.443 406.582C769.133 408.29 767.465 409.69 765.556 410.684C763.646 411.678 761.542 412.24 759.392 412.333C757.241 412.425 755.096 412.045 753.109 411.219H753.109Z" fill="#9E616A"/>
<path id="arm" d="M898.116 364.726L840.2 400.252L787.95 401.799L772.274 379.002L829.229 368.529L907.665 308.659L898.116 364.726Z" fill="#2F2E41"/>
</g>
<path id="Vector_25" d="M890.596 355.725C875.282 370.455 889.503 386.237 889.503 386.237L872 424.114L940.916 442L965 338.492L948.591 321.658C945.1 321.546 946.311 311.025 943.523 310.922C933.353 310.548 927.597 310.238 924.338 310.007C920.092 309.705 915.756 319.952 915.756 319.952C910.007 325.364 890.596 355.725 890.596 355.725Z" fill="#6C63FF"/>
<path id="Vector_26" d="M939.077 291.199C952.052 284.106 956.82 267.839 949.727 254.864C942.635 241.889 926.367 237.121 913.393 244.214C900.418 251.306 895.65 267.574 902.742 280.548C909.835 293.523 926.103 298.291 939.077 291.199Z" fill="#9E616A"/>
<path id="Vector_27" d="M891.582 263.682H930.242L930.639 258.131L932.621 263.682H938.574L939.36 252.681L943.288 263.682H954.807V263.137C954.798 255.478 951.752 248.136 946.336 242.72C940.921 237.305 933.578 234.258 925.92 234.25H920.469C912.81 234.258 905.468 237.305 900.052 242.72C894.637 248.136 891.591 255.478 891.582 263.137V263.682Z" fill="#2F2E41"/>
<g id="leftHand">
<path id="Vector_28" d="M1034.92 510.087C1033.73 513.511 1031.32 516.379 1028.16 518.148C1025 519.918 1021.3 520.466 1017.76 519.689C1014.22 518.911 1011.09 516.862 1008.96 513.93C1006.83 510.998 1005.84 507.387 1006.2 503.781L994.764 457.658L1014.61 439.07L1023.45 490.641C1025.57 490.993 1027.59 491.806 1029.37 493.023C1031.14 494.241 1032.63 495.832 1033.72 497.686C1034.81 499.54 1035.49 501.612 1035.69 503.754C1035.9 505.897 1035.63 508.059 1034.92 510.087V510.087Z" fill="#9E616A"/>
<path id="Vector_29" d="M983.356 327L1025.07 472.797L1002.47 486.191L937 328.953L983.356 327Z" fill="#2F2E41"/>
</g>
<g id="hairs">
<path id="Vector_30" d="M1037.83 279.763C1029.86 274.233 1024.9 265.303 1021.49 256.219C1018.08 247.134 1015.93 237.587 1012.07 228.686C1007.39 217.939 1000.33 208.397 991.414 200.783C985.707 195.918 979.067 191.809 971.665 190.604C964.263 189.399 956.015 191.55 951.281 197.366C946.547 203.183 946.557 212.807 952.29 217.641C950.578 215.84 947.26 216.287 945.774 218.278C945.089 219.319 944.753 220.552 944.816 221.797C944.878 223.042 945.335 224.234 946.121 225.202C946.694 225.918 947.397 226.52 948.193 226.974C949.981 230.97 953.04 234.263 956.894 236.34C961.579 238.65 967.824 238.167 971.371 234.333C974.918 230.499 974.411 223.339 969.841 220.81C976.95 219.441 984.305 223.569 988.427 229.52C992.55 235.472 993.936 242.908 994.276 250.14C994.615 257.372 994.011 264.636 994.621 271.85C995.231 279.064 997.204 286.447 1001.97 291.898C1009.77 300.832 1023.5 302.499 1034.86 299.069C1046.22 295.64 1055.78 288.059 1065.03 280.635C1057.34 286.544 1045.81 285.294 1037.83 279.763Z" fill="#2F2E41"/>
</g>
<g id="umbrella">
<path id="Vector_31" d="M723.748 391.289C718.591 395.094 717.28 402.054 719.053 407.959C719.974 411.187 721.792 414.086 724.297 416.321C726.801 418.555 729.888 420.033 733.199 420.583C740.625 421.982 748.573 419.07 754.35 414.458C760.861 409.26 764.636 401.678 768.385 394.434C773.464 384.62 779.038 375.043 784.403 365.384C790.387 354.61 796.369 343.836 802.348 333.06C815.789 308.82 829.166 284.546 842.481 260.237C855.779 235.9 868.925 211.481 881.92 186.979C892.451 167.014 902.879 146.977 912.634 126.619C913.593 124.618 914.543 122.613 915.484 120.604C915.761 119.861 915.735 119.038 915.412 118.313C915.088 117.589 914.494 117.02 913.755 116.729C913.011 116.46 912.192 116.49 911.469 116.812C910.746 117.135 910.177 117.724 909.88 118.457C901.002 137.418 891.396 156.04 881.696 174.589C869.536 197.841 857.157 220.977 844.557 243.995C831.533 267.929 818.411 291.81 805.19 315.636C793.748 336.307 782.285 356.965 770.799 377.611C768.01 382.637 765.181 387.643 762.541 392.75C759.13 399.349 755.583 406.257 749.397 410.688C744.142 414.45 736.694 416.442 730.608 413.534C726.075 411.368 723.763 405.957 724.385 401.28C724.511 400.215 724.859 399.188 725.406 398.265C725.953 397.342 726.687 396.544 727.56 395.922C730.674 393.625 726.849 389.002 723.748 391.289V391.289Z" fill="#2F2E41"/>
<path id="head" d="M1048.27 263.611L1047.91 263.568C1034.29 261.895 1020.78 259.876 1007.78 257.568C998.526 255.924 989.492 254.137 980.927 252.254C973.704 250.675 966.565 248.983 959.706 247.226C952.06 245.279 944.471 243.182 937.154 240.993C934.1 240.094 930.991 239.142 927.916 238.165C922.218 236.356 916.725 234.516 911.592 232.697C906.61 230.955 901.586 229.096 896.661 227.173C896.555 227.142 896.452 227.104 896.352 227.06C886.371 223.184 876.572 219 867.235 214.63C865.426 213.79 863.628 212.938 861.84 212.073C807.982 186.046 762.89 150.733 727.817 107.114L727.618 106.866L727.757 106.581C746.505 68.1279 778.959 38.0792 818.739 22.3426C858.52 6.6059 902.748 6.31977 942.728 21.5404C947.654 23.4221 952.504 25.5273 957.143 27.7981L969.631 33.9043C976.38 37.2028 982.908 40.9368 989.172 45.0829C1023.83 68.0839 1048.95 102.897 1059.85 143.04C1070.75 183.183 1066.69 225.919 1048.42 263.291L1048.27 263.611Z" fill="#6C63FF"/>
</g>
<path id="Vector_32" d="M752.803 131.115C799.347 96.6126 850.099 68.1826 903.831 46.5114C918.904 40.4286 934.182 34.8911 949.664 29.8988C951.497 29.3075 950.228 26.5868 948.408 27.1741C893.026 45.0469 840.152 69.9149 791.067 101.176C777.352 109.9 763.962 119.107 750.896 128.798C749.342 129.95 751.254 132.263 752.803 131.115V131.115Z" fill="#3F3D56"/>
<path id="Vector_33" d="M979.587 39.7523C979.411 40.0068 979.32 40.3109 979.327 40.6206C979.335 40.9303 979.442 41.2295 979.631 41.4746C988.104 53.2227 995.288 65.8482 1001.06 79.1331C1006.83 92.4177 1011.24 106.258 1014.2 120.437C1017.19 134.617 1018.76 149.061 1018.89 163.553C1019.03 178.042 1017.7 192.509 1014.94 206.733C1012.57 218.896 1009.1 230.817 1004.56 242.346C1003.79 244.281 1003 246.204 1002.18 248.113C1001.46 249.762 1000.73 251.398 999.972 253.022C999.158 254.782 1001.97 255.839 1002.78 254.099C1003.77 251.945 1004.74 249.778 1005.64 247.585C1010.4 236.236 1014.13 224.484 1016.79 212.469C1019.96 198.138 1021.66 183.521 1021.86 168.845C1022.08 154.148 1020.84 139.465 1018.16 125.012C1015.5 110.574 1011.38 96.4434 1005.86 82.835C1000.34 69.1734 993.359 56.1466 985.044 43.9797C984.666 43.4206 984.279 42.8605 983.89 42.3103L979.587 39.7523Z" fill="#3F3D56"/>
<path id="Vector_34" d="M830.709 193.958L878.846 135.954L926.983 77.9497L954.08 45.2982C955.316 43.8086 952.876 42.0617 951.648 43.5407L903.511 101.545L855.374 159.549L828.277 192.201C827.04 193.69 829.481 195.437 830.708 193.958H830.709Z" fill="#3F3D56"/>
<path id="Vector_35" d="M936.051 238.731L949.734 167.702L963.37 96.917L971.06 56.9934C971.425 55.0986 968.437 54.8206 968.074 56.7034L954.392 127.733L940.756 198.518L933.065 238.441C932.7 240.336 935.688 240.614 936.051 238.731V238.731Z" fill="#3F3D56"/>
<path id="Vector_36" d="M988.895 45.4993C985.979 50.707 981.36 54.7528 975.813 56.9574C970.266 59.1621 964.13 59.3913 958.435 57.6067C952.739 55.8221 947.831 52.1323 944.534 47.1567C941.237 42.1811 939.752 36.2228 940.329 30.282C940.601 27.4192 941.352 24.6223 942.55 22.0079C947.384 23.854 952.175 25.9337 956.924 28.247L969.412 34.3531C976.142 37.6406 982.65 41.3639 988.895 45.4993V45.4993Z" fill="#3F3D56"/>
<g id="rains">
<path id="Vector_37" d="M381.343 61.8404C386.009 78.1469 392.995 93.6979 402.086 108.016C404.674 112.085 407.428 116.041 410.349 119.884C411.5 121.403 414.107 119.909 412.939 118.37C402.792 105.012 394.628 90.2585 388.7 74.5664C387.027 70.1213 385.539 65.6135 384.235 61.0428C384.119 60.6715 383.863 60.3598 383.521 60.1735C383.18 59.9873 382.779 59.941 382.404 60.0444C382.029 60.1478 381.708 60.3929 381.51 60.728C381.312 61.063 381.252 61.4618 381.343 61.8404H381.343Z" fill="#F2F2F2"/>
<path id="Vector_38" d="M470.188 126.833L488.411 158.534C488.619 158.863 488.946 159.098 489.324 159.191C489.703 159.283 490.102 159.225 490.438 159.028C490.774 158.832 491.02 158.512 491.126 158.138C491.231 157.763 491.186 157.362 491.001 157.019L472.778 125.318C472.57 124.989 472.243 124.754 471.865 124.661C471.486 124.569 471.087 124.627 470.751 124.824C470.415 125.02 470.169 125.34 470.063 125.714C469.958 126.089 470.003 126.49 470.188 126.833V126.833Z" fill="#F2F2F2"/>
<path id="Vector_39" d="M510.848 81.5244L525.689 113.225C526.507 114.972 529.094 113.451 528.28 111.711L513.438 80.0103C512.62 78.2632 510.033 79.7846 510.848 81.5244Z" fill="#F2F2F2"/>
<path id="Vector_40" d="M658.343 102.84C663.009 119.147 669.995 134.698 679.086 149.016C681.674 153.085 684.428 157.041 687.349 160.884C688.5 162.403 691.107 160.909 689.939 159.37C679.792 146.012 671.628 131.259 665.7 115.566C664.027 111.121 662.539 106.613 661.235 102.043C661.119 101.671 660.863 101.36 660.521 101.174C660.18 100.987 659.779 100.941 659.404 101.044C659.029 101.148 658.708 101.393 658.51 101.728C658.312 102.063 658.252 102.462 658.343 102.84H658.343Z" fill="#F2F2F2"/>
<path id="Vector_41" d="M747.188 167.833L765.411 199.534C765.619 199.863 765.946 200.098 766.325 200.191C766.703 200.283 767.102 200.225 767.438 200.028C767.774 199.832 768.021 199.512 768.126 199.138C768.231 198.763 768.186 198.362 768.001 198.019L749.778 166.318C749.57 165.989 749.243 165.754 748.865 165.661C748.486 165.569 748.087 165.627 747.751 165.824C747.415 166.02 747.169 166.34 747.063 166.714C746.958 167.089 747.003 167.49 747.188 167.833V167.833Z" fill="#F2F2F2"/>
<path id="Vector_42" d="M787.848 122.524L802.689 154.225C803.507 155.972 806.094 154.451 805.28 152.711L790.438 121.01C789.62 119.263 787.033 120.785 787.848 122.524Z" fill="#F2F2F2"/>
<path id="Vector_43" d="M613.343 296.84C618.009 313.147 624.995 328.698 634.086 343.016C636.674 347.085 639.428 351.041 642.349 354.884C643.5 356.403 646.107 354.909 644.939 353.37C634.792 340.012 626.628 325.259 620.7 309.566C619.027 305.121 617.539 300.613 616.235 296.043C616.119 295.671 615.863 295.36 615.521 295.174C615.18 294.987 614.779 294.941 614.404 295.044C614.029 295.148 613.708 295.393 613.51 295.728C613.312 296.063 613.252 296.462 613.343 296.84H613.343Z" fill="#F2F2F2"/>
<path id="Vector_44" d="M702.188 361.832L720.411 393.534C720.619 393.863 720.946 394.098 721.325 394.191C721.703 394.283 722.102 394.225 722.438 394.028C722.774 393.832 723.021 393.512 723.126 393.138C723.231 392.763 723.186 392.362 723.001 392.019L704.778 360.318C704.57 359.989 704.243 359.754 703.865 359.661C703.486 359.569 703.087 359.627 702.751 359.824C702.415 360.02 702.169 360.34 702.063 360.714C701.958 361.089 702.003 361.49 702.188 361.832V361.832Z" fill="#F2F2F2"/>
<path id="Vector_45" d="M742.848 316.524L757.689 348.225C758.507 349.972 761.094 348.451 760.28 346.711L745.438 315.01C744.62 313.263 742.033 314.785 742.848 316.524Z" fill="#F2F2F2"/>
<path id="Vector_46" d="M310.343 377.84C315.009 394.147 321.995 409.698 331.086 424.016C333.674 428.085 336.428 432.041 339.349 435.884C340.5 437.403 343.107 435.909 341.939 434.37C331.792 421.012 323.628 406.259 317.7 390.566C316.027 386.121 314.539 381.613 313.235 377.043C313.119 376.671 312.863 376.36 312.521 376.174C312.18 375.987 311.779 375.941 311.404 376.044C311.029 376.148 310.708 376.393 310.51 376.728C310.312 377.063 310.252 377.462 310.343 377.84H310.343Z" fill="#F2F2F2"/>
<path id="Vector_47" d="M399.188 442.832L417.411 474.534C417.619 474.863 417.946 475.098 418.324 475.19C418.703 475.283 419.102 475.225 419.438 475.028C419.774 474.832 420.021 474.512 420.126 474.138C420.231 473.763 420.186 473.362 420.001 473.019L401.778 441.318C401.57 440.989 401.243 440.754 400.865 440.661C400.486 440.569 400.087 440.627 399.751 440.824C399.415 441.02 399.169 441.34 399.063 441.714C398.958 442.089 399.003 442.49 399.188 442.832V442.832Z" fill="#F2F2F2"/>
<path id="Vector_48" d="M439.848 397.524L454.689 429.225C455.507 430.972 458.094 429.451 457.28 427.711L442.438 396.01C441.62 394.263 439.033 395.785 439.848 397.524Z" fill="#F2F2F2"/>
<path id="Vector_49" d="M694.343 478.84C699.009 495.147 705.995 510.698 715.086 525.016C717.674 529.085 720.428 533.041 723.349 536.884C724.5 538.403 727.107 536.909 725.939 535.37C715.792 522.012 707.628 507.258 701.7 491.566C700.027 487.121 698.539 482.613 697.235 478.043C697.119 477.671 696.863 477.36 696.521 477.174C696.18 476.987 695.779 476.941 695.404 477.044C695.029 477.148 694.708 477.393 694.51 477.728C694.312 478.063 694.252 478.462 694.343 478.84H694.343Z" fill="#F2F2F2"/>
<path id="Vector_50" d="M783.188 543.833L801.411 575.534C801.619 575.863 801.946 576.098 802.325 576.19C802.703 576.283 803.102 576.225 803.438 576.028C803.774 575.832 804.021 575.512 804.126 575.138C804.231 574.763 804.186 574.362 804.001 574.019L785.778 542.318C785.57 541.989 785.243 541.754 784.865 541.661C784.486 541.569 784.087 541.627 783.751 541.824C783.415 542.02 783.169 542.339 783.063 542.714C782.958 543.089 783.003 543.49 783.188 543.833V543.833Z" fill="#F2F2F2"/>
<path id="Vector_51" d="M823.848 498.524L838.689 530.225C839.507 531.972 842.094 530.451 841.28 528.711L826.438 497.01C825.62 495.263 823.033 496.785 823.848 498.524Z" fill="#F2F2F2"/>
<path id="Vector_52" d="M859.343 371.84C864.009 388.147 870.995 403.698 880.086 418.016C882.674 422.085 885.428 426.041 888.349 429.884C889.5 431.403 892.107 429.909 890.939 428.37C880.792 415.012 872.628 400.259 866.7 384.566C865.027 380.121 863.539 375.613 862.235 371.043C862.119 370.671 861.863 370.36 861.521 370.174C861.18 369.987 860.779 369.941 860.404 370.044C860.029 370.148 859.708 370.393 859.51 370.728C859.312 371.063 859.252 371.462 859.343 371.84H859.343Z" fill="#F2F2F2"/>
<path id="Vector_53" d="M948.188 436.832L966.411 468.534C966.619 468.863 966.946 469.098 967.325 469.191C967.703 469.283 968.102 469.225 968.438 469.028C968.774 468.832 969.021 468.512 969.126 468.138C969.231 467.763 969.186 467.362 969.001 467.019L950.778 435.318C950.57 434.989 950.243 434.754 949.865 434.661C949.486 434.569 949.087 434.627 948.751 434.824C948.415 435.02 948.169 435.34 948.063 435.714C947.958 436.089 948.003 436.49 948.188 436.832V436.832Z" fill="#F2F2F2"/>
<path id="Vector_54" d="M988.848 391.524L1003.69 423.225C1004.51 424.972 1007.09 423.451 1006.28 421.711L991.439 390.01C990.621 388.263 988.033 389.785 988.848 391.524Z" fill="#F2F2F2"/>
<path id="Vector_55" d="M897.343 145.84C902.009 162.147 908.995 177.698 918.086 192.016C920.674 196.085 923.428 200.041 926.349 203.884C927.5 205.403 930.107 203.91 928.939 202.37C918.792 189.012 910.628 174.259 904.7 158.567C903.027 154.121 901.539 149.614 900.235 145.043C900.119 144.672 899.863 144.36 899.521 144.174C899.18 143.987 898.779 143.941 898.404 144.044C898.029 144.148 897.708 144.393 897.51 144.728C897.312 145.063 897.252 145.462 897.343 145.84H897.343Z" fill="#F2F2F2"/>
<path id="Vector_56" d="M986.188 210.833L1004.41 242.534C1004.62 242.863 1004.95 243.098 1005.32 243.191C1005.7 243.283 1006.1 243.225 1006.44 243.028C1006.77 242.832 1007.02 242.512 1007.13 242.138C1007.23 241.763 1007.19 241.362 1007 241.019L988.778 209.318C988.57 208.989 988.243 208.754 987.865 208.661C987.486 208.569 987.087 208.627 986.751 208.824C986.415 209.02 986.169 209.34 986.064 209.714C985.958 210.089 986.003 210.49 986.188 210.833V210.833Z" fill="#F2F2F2"/>
<path id="Vector_57" d="M1026.85 165.524L1041.69 197.225C1042.51 198.972 1045.09 197.451 1044.28 195.711L1029.44 164.01C1028.62 162.263 1026.03 163.785 1026.85 165.524Z" fill="#F2F2F2"/>
<path id="Vector_58" d="M87.3427 65.8404C92.0087 82.1469 98.9947 97.6979 108.086 112.016C110.674 116.085 113.428 120.041 116.349 123.884C117.5 125.403 120.107 123.909 118.939 122.37C108.792 109.012 100.628 94.2585 94.6996 78.5664C93.0273 74.1213 91.5393 69.6135 90.2355 65.0428C90.1191 64.6715 89.8631 64.3598 89.5214 64.1735C89.1797 63.9873 88.779 63.941 88.4039 64.0444C88.0287 64.1478 87.7083 64.3929 87.5104 64.728C87.3124 65.063 87.2522 65.4618 87.3426 65.8404H87.3427Z" fill="#F2F2F2"/>
<path id="Vector_59" d="M176.188 130.833L194.411 162.534C194.619 162.863 194.946 163.098 195.324 163.191C195.703 163.283 196.102 163.225 196.438 163.028C196.774 162.832 197.021 162.512 197.126 162.138C197.231 161.763 197.186 161.362 197.001 161.019L178.778 129.318C178.57 128.989 178.243 128.754 177.865 128.661C177.486 128.569 177.087 128.627 176.751 128.824C176.415 129.02 176.169 129.34 176.063 129.714C175.958 130.089 176.003 130.49 176.188 130.833V130.833Z" fill="#F2F2F2"/>
<path id="Vector_60" d="M216.848 85.5244L231.689 117.225C232.507 118.972 235.094 117.451 234.28 115.711L219.438 84.0103C218.62 82.2632 216.033 83.7846 216.848 85.5244V85.5244Z" fill="#F2F2F2"/>
<path id="Vector_61" d="M150.343 192.84C155.009 209.147 161.995 224.698 171.086 239.016C173.674 243.085 176.428 247.041 179.349 250.884C180.5 252.403 183.107 250.909 181.939 249.37C171.792 236.012 163.628 221.259 157.7 205.566C156.027 201.121 154.539 196.613 153.235 192.043C153.119 191.671 152.863 191.36 152.521 191.174C152.18 190.987 151.779 190.941 151.404 191.044C151.029 191.148 150.708 191.393 150.51 191.728C150.312 192.063 150.252 192.462 150.343 192.84H150.343Z" fill="#F2F2F2"/>
<path id="Vector_62" d="M239.188 257.833L257.411 289.534C257.619 289.863 257.946 290.098 258.324 290.191C258.703 290.283 259.102 290.225 259.438 290.028C259.774 289.832 260.021 289.512 260.126 289.138C260.231 288.763 260.186 288.362 260.001 288.019L241.778 256.318C241.57 255.989 241.243 255.754 240.865 255.661C240.486 255.569 240.087 255.627 239.751 255.824C239.415 256.02 239.169 256.34 239.063 256.714C238.958 257.089 239.003 257.49 239.188 257.833Z" fill="#F2F2F2"/>
<path id="Vector_63" d="M279.848 212.524L294.689 244.225C295.507 245.972 298.094 244.451 297.28 242.711L282.438 211.01C281.62 209.263 279.033 210.785 279.848 212.524V212.524Z" fill="#F2F2F2"/>
<path id="Vector_64" d="M5.34266 421.84C10.0087 438.147 16.9947 453.698 26.0864 468.016C28.6742 472.085 31.4283 476.041 34.3486 479.884C35.5002 481.403 38.1065 479.91 36.939 478.37C26.7921 465.012 18.628 450.259 12.6996 434.566C11.0273 430.121 9.53923 425.613 8.23546 421.043C8.11911 420.671 7.86309 420.36 7.5214 420.174C7.1797 419.987 6.77903 419.941 6.40386 420.044C6.02869 420.148 5.70834 420.393 5.51037 420.728C5.31239 421.063 5.25225 421.462 5.34263 421.84H5.34266Z" fill="#F2F2F2"/>
<path id="Vector_65" d="M94.1876 486.833L112.411 518.534C112.619 518.863 112.946 519.098 113.324 519.19C113.703 519.283 114.102 519.225 114.438 519.028C114.774 518.832 115.021 518.512 115.126 518.138C115.231 517.763 115.186 517.362 115.001 517.019L96.778 485.318C96.5702 484.989 96.2427 484.754 95.8646 484.661C95.4864 484.569 95.0873 484.627 94.7512 484.824C94.4152 485.02 94.1686 485.339 94.0635 485.714C93.9583 486.089 94.0028 486.49 94.1876 486.833V486.833Z" fill="#F2F2F2"/>
<path id="Vector_66" d="M134.848 441.524L149.689 473.225C150.507 474.972 153.094 473.451 152.28 471.711L137.438 440.01C136.62 438.263 134.033 439.785 134.848 441.524Z" fill="#F2F2F2"/>
<path id="Vector_67" d="M407.343 242.84C412.009 259.147 418.995 274.698 428.086 289.016C430.674 293.085 433.428 297.041 436.349 300.884C437.5 302.403 440.107 300.91 438.939 299.37C428.792 286.012 420.628 271.259 414.7 255.567C413.027 251.121 411.539 246.614 410.235 242.043C410.119 241.672 409.863 241.36 409.521 241.174C409.18 240.987 408.779 240.941 408.404 241.044C408.029 241.148 407.708 241.393 407.51 241.728C407.312 242.063 407.252 242.462 407.343 242.84H407.343Z" fill="#F2F2F2"/>
<path id="Vector_68" d="M496.188 307.832L514.411 339.534C514.619 339.863 514.946 340.098 515.324 340.191C515.703 340.283 516.102 340.225 516.438 340.028C516.774 339.832 517.02 339.512 517.126 339.138C517.231 338.763 517.186 338.362 517.001 338.019L498.778 306.318C498.57 305.989 498.243 305.754 497.865 305.661C497.486 305.569 497.087 305.627 496.751 305.824C496.415 306.02 496.169 306.34 496.063 306.714C495.958 307.089 496.003 307.49 496.188 307.832V307.832Z" fill="#F2F2F2"/>
<path id="Vector_69" d="M536.848 262.524L551.689 294.225C552.507 295.972 555.094 294.451 554.28 292.711L539.438 261.01C538.62 259.263 536.033 260.785 536.848 262.524Z" fill="#F2F2F2"/>
</g>
<path id="Vector_70" d="M217.422 449.711C228.763 447.286 234.402 428.684 230.015 408.161C225.628 387.637 212.878 372.965 201.536 375.389C190.194 377.814 184.556 396.416 188.943 416.939C193.329 437.463 206.08 452.135 217.422 449.711Z" fill="#CCCCCC"/>
<g id=" squirrel">
<path id="Vector_71" d="M225 425C225 433.284 224.284 450 216 450C207.716 450 195 433.284 195 425C195 421.022 196.58 417.206 199.393 414.393C202.206 411.58 206.022 410 210 410C213.978 410 217.794 411.58 220.607 414.393C223.42 417.206 225 421.022 225 425Z" fill="#E6E6E6"/>
<path id="Vector_72" d="M221.495 439.657C223.929 439.657 225.902 437.684 225.902 435.25C225.902 432.817 223.929 430.844 221.495 430.844C219.061 430.844 217.088 432.817 217.088 435.25C217.088 437.684 219.061 439.657 221.495 439.657Z" fill="#CCCCCC"/>
<path id="Vector_73" d="M208.373 447.53C210.807 447.53 212.78 445.557 212.78 443.124C212.78 440.69 210.807 438.717 208.373 438.717C205.939 438.717 203.966 440.69 203.966 443.124C203.966 445.557 205.939 447.53 208.373 447.53Z" fill="#CCCCCC"/>
<g id="ears">
<path id="Vector_74" d="M211.083 404.092C209.083 403.092 208 410.533 208 410.533H212.713C212.713 410.533 213.083 405.092 211.083 404.092Z" fill="#E6E6E6"/>
<path id="Vector_75" d="M193.424 414.208C191.461 415.28 196.953 420.416 196.953 420.416L199.643 416.546C199.643 416.546 195.386 413.137 193.424 414.208Z" fill="#E6E6E6"/>
</g>
<path id="Vector_76" d="M211.616 434.564C211.171 434.803 210.649 434.855 210.165 434.709C209.681 434.563 209.275 434.231 209.036 433.786C209.002 433.723 208.995 433.649 209.016 433.58C209.037 433.511 209.084 433.454 209.148 433.42C209.211 433.386 209.285 433.378 209.354 433.399C209.423 433.419 209.481 433.466 209.515 433.529C209.686 433.847 209.976 434.084 210.322 434.189C210.667 434.293 211.04 434.255 211.359 434.085C211.677 433.914 211.914 433.624 212.018 433.278C212.122 432.933 212.085 432.56 211.914 432.242C211.881 432.178 211.874 432.104 211.895 432.035C211.916 431.966 211.963 431.909 212.027 431.875C212.09 431.841 212.164 431.833 212.233 431.854C212.302 431.874 212.36 431.921 212.394 431.984C212.633 432.43 212.685 432.951 212.539 433.435C212.393 433.919 212.061 434.325 211.616 434.564Z" fill="white"/>
<path id="Vector_77" d="M209.622 430.56C210.682 429.991 211.364 429.2 211.145 428.792C210.926 428.385 209.89 428.515 208.83 429.084C207.77 429.653 207.088 430.444 207.307 430.852C207.525 431.26 208.562 431.129 209.622 430.56Z" fill="#8C3606"/>
<path id="Vector_78" d="M198.952 431.581C199.096 430.886 199.39 430.231 199.814 429.662C200.239 429.093 200.783 428.624 201.408 428.289C202.033 427.953 202.725 427.759 203.433 427.72C204.142 427.681 204.85 427.798 205.509 428.063C205.84 427.05 205.864 425.962 205.576 424.935C205.289 423.909 204.704 422.991 203.895 422.298C203.086 421.604 202.09 421.166 201.032 421.039C199.974 420.911 198.902 421.101 197.951 421.583C197.001 422.064 196.215 422.817 195.692 423.746C195.17 424.675 194.934 425.738 195.016 426.8C195.097 427.863 195.492 428.877 196.15 429.715C196.808 430.553 197.7 431.178 198.713 431.509C198.792 431.535 198.872 431.559 198.952 431.581Z" fill="white"/>
<path id="Vector_79" d="M199.853 428.707C200.877 428.707 201.707 427.877 201.707 426.853C201.707 425.83 200.877 425 199.853 425C198.83 425 198 425.83 198 426.853C198 427.877 198.83 428.707 199.853 428.707Z" fill="#3F3D56"/>
<path id="Vector_80" d="M211.952 425.581C212.096 424.886 212.39 424.231 212.814 423.662C213.239 423.093 213.783 422.624 214.408 422.289C215.033 421.953 215.725 421.759 216.433 421.72C217.142 421.681 217.85 421.798 218.509 422.063C218.84 421.05 218.864 419.962 218.576 418.935C218.289 417.909 217.704 416.991 216.895 416.298C216.086 415.604 215.09 415.166 214.032 415.039C212.974 414.911 211.902 415.101 210.951 415.583C210.001 416.064 209.215 416.817 208.692 417.746C208.17 418.675 207.934 419.738 208.016 420.8C208.097 421.863 208.492 422.877 209.15 423.715C209.808 424.553 210.7 425.178 211.713 425.509V425.509C211.792 425.535 211.872 425.559 211.952 425.581Z" fill="white"/>
<path id="Vector_81" d="M213.475 422.522C214.498 422.522 215.328 421.692 215.328 420.668C215.328 419.645 214.498 418.815 213.475 418.815C212.451 418.815 211.621 419.645 211.621 420.668C211.621 421.692 212.451 422.522 213.475 422.522Z" fill="#3F3D56"/>
<g id="whisker">
<path id="rightup" d="M222.776 420.54L216.448 426.988L217.086 427.615L223.414 421.167L222.776 420.54Z" fill="white"/>
<path id="rightdown" d="M224.786 423.66L217.141 428.474L217.617 429.231L225.263 424.418L224.786 423.66Z" fill="white"/>
<path id="leftup" d="M202.872 434.273L194 435.982L194.169 436.86L203.041 435.152L202.872 434.273Z" fill="white"/>
<path id="leftdpwn" d="M203.726 435.672L195.488 439.382L195.856 440.198L204.094 436.488L203.726 435.672Z" fill="white"/>
</g>
</g>
<path id="Vector_82" d="M1012.47 482.246C1009.08 479.434 1005.97 476.31 1003.17 472.916C998.011 466.744 993.394 460.14 989.369 453.176C983.922 443.82 979.365 433.973 975.759 423.766C975.749 423.746 975.749 423.726 975.739 423.706C974.609 420.516 973.562 417.232 972.599 413.856C972.59 413.817 972.577 413.781 972.559 413.746C970.934 408.041 969.619 402.252 968.619 396.406C964.579 372.736 972.419 351.176 979.709 337.256C980.332 336.081 980.863 334.861 981.299 333.606C983.287 328.108 983.442 322.114 981.74 316.52C980.038 310.927 976.572 306.035 971.859 302.576L971.509 302.316C968.627 300.185 965.351 298.647 961.871 297.789C958.391 296.931 954.776 296.771 951.234 297.318C947.692 297.864 944.293 299.107 941.234 300.974C938.174 302.841 935.515 305.295 933.409 308.196C933.383 308.223 933.359 308.253 933.339 308.286C920.879 325.646 909.139 351.306 914.209 383.016C915.418 390.483 917.416 397.8 920.169 404.846C921.009 407.016 921.929 409.206 922.929 411.416C927.019 420.416 931.032 428.862 934.969 436.756C938.419 443.686 941.792 450.189 945.089 456.266C955.759 475.966 965.519 491.176 973.799 501.826C983.379 514.126 990.979 520.335 995.729 520.335C996.215 520.34 996.698 520.266 997.159 520.116C997.179 520.106 997.189 520.106 997.209 520.096C1000.91 518.846 1005.46 514.996 1009.25 510.106C1012.76 505.556 1015.61 500.106 1016.51 494.996C1017.18 491.186 1017.02 485.886 1012.47 482.246Z" fill="#2F2E41"/>
</g>
<defs>
<clipPath id="clip0_35_2">
<rect width="1065.86" height="824.159" fill="white"/>
</clipPath>
</defs>
</svg>
